<svg xmlns="http://www.w3.org/2000/svg" xmlns:xlink="http://www.w3.org/1999/xlink" version="1.1"><metadata>Created by FontForge 20170731 at Wed Mar 06 00:31:56 2019 By bhall</metadata><defs><font id="Protomolecule-Light" horiz-adv-x="514"><font-face x-height="712" ascent="764" bbox="-170 -236 1099 981" cap-height="712" descent="-236" font-family="Protomolecule" font-stretch="normal" font-weight="300" panose-1="2 0 5 4 4 0 0 2 0 3" stemh="45" stemv="51" underline-position="-135" underline-thickness="51" unicode-range="U+000D-FB02" units-per-em="1000"/><glyph d="M163 444v-444h-51v444h-66v38h66v104c0 73 40 126 116 126h44v-45h-35c-51 0 -74 -29 -74 -80v-105h109v-38h-109zM399 0v482h51v-482h-51zM393 649v63h63v-63h-63z" glyph-name="fi" horiz-adv-x="547" unicode="fi"/><glyph d="M163 444v-444h-51v444h-66v38h66v104c0 73 40 126 116 126h44v-45h-35c-51 0 -74 -29 -74 -80v-105h109v-38h-109zM510 0c-79 0 -116 49 -116 125v587h51v-586c0 -55 17 -81 74 -81h35v-45h-44z" glyph-name="fl" horiz-adv-x="586" unicode="fl"/><glyph d="M97 0v712h365v-712h-365zM135 38h289v636h-289v-636z" glyph-name=".notdef" horiz-adv-x="559"/><glyph glyph-name=".null" horiz-adv-x="0"/><glyph glyph-name=".null" horiz-adv-x="0"/><glyph glyph-name="CR" horiz-adv-x="255"/><glyph glyph-name="space" horiz-adv-x="255"/><glyph d="M191 192h-49l-3 520h55zM133 0v67h67v-67h-67z" glyph-name="exclam" horiz-adv-x="304" unicode="!"/><glyph d="M95 556v156h63v-156h-63zM250 556v156h63v-156h-63z" glyph-name="quotedbl" horiz-adv-x="408" unicode="&quot;"/><glyph d="M488 437l-25 -153h96v-44h-103l-38 -240h-51l39 240h-176l-37 -240h-51l38 240h-96v44h103l25 153h-99v45h105l36 230h52l-37 -230h175l36 230h50l-36 -230h94v-45h-100zM262 437l-25 -153h175l25 153h-175z" glyph-name="numbersign" horiz-adv-x="639" unicode="#"/><glyph d="M528 191c0 -115 -82 -189 -218 -196v-109h-45v108c-93 4 -153 33 -214 94l38 38c58 -58 105 -78 176 -83v295l-16 2c-52 7 -100 29 -127 52c-37 32 -56 76 -56 131c0 113 75 186 199 194v89h45v-89c76 -4 126 -28 182 -76l-35 -35c-39 35 -79 60 -147 65v-290l29 -5 c67 -12 98 -22 127 -47c39 -32 62 -81 62 -138zM474 189c0 43 -12 77 -39 100c-38 33 -77 33 -125 41v-287c101 7 164 58 164 146zM265 671c-92 -7 -146 -62 -146 -146c0 -41 12 -72 37 -93c32 -27 72 -39 109 -44v283z" glyph-name="dollar" horiz-adv-x="587" unicode="$"/><glyph d="M759 127c0 -80 -54 -134 -131 -134c-79 0 -132 54 -132 134v107c0 80 53 134 132 134c77 0 131 -54 131 -134v-107zM332 478c0 -79 -54 -133 -131 -133c-79 0 -132 54 -132 133v107c0 80 53 134 132 134c77 0 131 -54 131 -134v-107zM715 232c0 60 -24 98 -87 98 s-88 -38 -88 -98v-103c0 -60 25 -98 88 -98s87 38 87 98v103zM288 583c0 60 -24 98 -87 98s-88 -38 -88 -98v-103c0 -60 25 -97 88 -97c61 0 87 37 87 97v103zM271 0h-45l332 712h45z" glyph-name="percent" horiz-adv-x="828" unicode="%"/><glyph d="M593 0l-69 84c-27 -27 -102 -90 -219 -90c-131 0 -221 82 -221 203c0 113 80 164 163 221c-37 45 -79 96 -79 158c0 80 65 142 145 142s145 -63 145 -143c0 -59 -37 -97 -82 -128c0 0 -37 -26 -53 -36l204 -247c32 48 42 87 42 177h53c0 -89 -17 -161 -62 -217l102 -124 h-69zM278 382c-67 -46 -140 -90 -140 -182c0 -93 67 -158 166 -158c57 0 118 15 190 79zM405 575c0 55 -40 95 -92 95s-91 -39 -91 -92c0 -36 14 -65 70 -131l16 11c15 9 24 16 25 17c37 25 72 53 72 100z" glyph-name="ampersand" horiz-adv-x="746" unicode="&amp;"/><glyph d="M95 556v156h63v-156h-63z" glyph-name="quotesingle" horiz-adv-x="253" unicode="'"/><glyph d="M182 -94c-31 31 -50 49 -66 80s-19 61 -19 93v554c0 32 3 62 19 93s35 49 66 80l35 -35c-23 -23 -42 -40 -54 -65c-10 -21 -15 -47 -15 -79v-542c0 -31 5 -58 15 -79c12 -25 31 -42 54 -65z" glyph-name="parenleft" horiz-adv-x="284" unicode="("/><glyph d="M187 79c0 -32 -2 -62 -19 -93c-16 -31 -35 -49 -66 -80l-37 37c23 23 42 40 54 65c11 21 14 46 14 77v542c0 31 -3 56 -14 77c-12 25 -31 42 -54 65l37 37c31 -31 50 -49 66 -80c17 -31 19 -61 19 -93v-554z" glyph-name="parenright" horiz-adv-x="284" unicode=")"/><glyph d="M373 438l-120 73l3 -141h-45l3 141l-120 -73l-22 38l123 68l-123 68l22 38l120 -73l-3 141h45l-3 -141l120 73l22 -38l-123 -68l123 -68z" glyph-name="asterisk" horiz-adv-x="467" unicode="*"/><glyph d="M281 240v-181h-47v181h-181v47h181v180h47v-180h180v-47h-180z" glyph-name="plus" unicode="+"/><glyph d="M95 -136v204h68v-136z" glyph-name="comma" horiz-adv-x="258" unicode=","/><glyph d="M82 240v47h262v-47h-262z" glyph-name="hyphen" horiz-adv-x="426" unicode="-"/><glyph d="M95 0v74h74v-74h-74z" glyph-name="period" horiz-adv-x="264" unicode="."/><glyph d="M53 -74h-53l285 860h53z" glyph-name="slash" horiz-adv-x="338" unicode="/"/><glyph d="M444 184c0 -111 -77 -190 -187 -190c-109 0 -187 79 -187 190v344c0 111 78 190 187 190c110 0 187 -79 187 -190v-344zM393 523c0 84 -47 150 -136 150s-136 -66 -136 -150v-334c0 -84 47 -150 136 -150s136 66 136 150v334z" glyph-name="zero" unicode="0"/><glyph d="M262 0v654l-129 -114v61l129 111h51v-712h-51z" glyph-name="one" unicode="1"/><glyph d="M72 0v45l286 375c28 36 40 70 40 111c0 85 -50 142 -137 142c-74 0 -137 -42 -137 -142h-51c0 106 71 187 188 187c114 0 188 -75 188 -187c0 -53 -13 -90 -49 -137l-267 -349h316v-45h-377z" glyph-name="two" unicode="2"/><glyph d="M447 190c0 -127 -87 -197 -202 -197c-111 0 -195 57 -203 180h51c8 -97 77 -135 152 -135c85 0 151 57 151 152c0 96 -46 152 -155 152h-12v45h12c96 0 141 51 141 143c0 93 -61 144 -138 144c-84 0 -133 -50 -142 -130h-51c11 112 89 175 193 175 c112 0 189 -74 189 -189c0 -76 -29 -131 -101 -162c80 -27 115 -87 115 -178z" glyph-name="three" unicode="3"/><glyph d="M376 117v-117h-51v117h-282v45l262 550h54l-262 -550h228v226h51v-226h95v-45h-95z" glyph-name="four" unicode="4"/><glyph d="M451 233c0 -68 -4 -138 -55 -189c-34 -34 -80 -51 -137 -51c-59 0 -106 16 -137 48c-28 28 -44 67 -48 116h51c11 -76 50 -119 134 -119c39 0 75 13 98 36c42 42 43 105 43 159c0 89 -17 190 -133 190c-65 0 -114 -27 -129 -75h-45v364h342v-45h-297v-252 c31 35 76 53 135 53c51 0 91 -14 120 -43c51 -51 58 -125 58 -192z" glyph-name="five" unicode="5"/><glyph d="M448 201c0 -114 -68 -207 -188 -207s-189 84 -189 200c0 47 11 89 40 149l183 369h51l-164 -329c24 11 52 17 83 17c116 0 184 -88 184 -199zM397 197c0 85 -47 158 -138 158c-84 0 -137 -62 -137 -158s53 -158 137 -158s138 62 138 158z" glyph-name="six" unicode="6"/><glyph d="M207 0h-52l252 667h-270v-112h-51v157h373v-45z" glyph-name="seven" unicode="7"/><glyph d="M460 192c0 -114 -88 -198 -203 -198s-203 84 -203 198c0 83 45 142 113 178c-64 35 -98 89 -98 162c0 104 77 186 188 186s188 -82 188 -186c0 -73 -32 -127 -97 -162c68 -36 112 -95 112 -178zM409 192c0 87 -66 154 -152 154s-152 -67 -152 -154 c0 -88 66 -153 152 -153s152 65 152 153zM394 532c0 83 -56 141 -137 141s-137 -58 -137 -141s56 -141 137 -141s137 58 137 141z" glyph-name="eight" unicode="8"/><glyph d="M443 518c0 -47 -11 -89 -40 -149l-183 -369h-51l164 329c-24 -11 -52 -17 -84 -17c-117 0 -183 88 -183 199c0 114 68 207 188 207s189 -84 189 -200zM392 515c0 96 -54 158 -138 158s-137 -62 -137 -158c0 -85 46 -158 137 -158c84 0 138 62 138 158z" glyph-name="nine" unicode="9"/><glyph d="M123 0v74h74v-74h-74zM123 312v74h74v-74h-74z" glyph-name="colon" horiz-adv-x="292" unicode=":"/><glyph d="M125 -136v204h68v-136zM123 312v74h74v-74h-74z" glyph-name="semicolon" horiz-adv-x="292" unicode=";"/><glyph d="M409 78l-304 161v48l304 161v-55l-254 -130l254 -130v-55z" glyph-name="less" unicode="&lt;"/><glyph d="M53 163v47h408v-47h-408zM53 316v47h408v-47h-408z" glyph-name="equal" unicode="="/><glyph d="M409 239l-304 -161v55l254 130l-254 130v55l304 -161v-48z" glyph-name="greater" unicode="&gt;"/><glyph d="M438 542c0 -47 -17 -80 -44 -119l-85 -125c-13 -19 -18 -44 -18 -60v-47h-51v45c0 39 9 61 29 90l84 124c20 31 34 53 34 92c0 75 -55 131 -128 131c-78 0 -128 -61 -128 -131h-51c0 96 72 176 179 176c102 0 179 -76 179 -176zM232 0v67h67v-67h-67z" glyph-name="question" horiz-adv-x="488" unicode="?"/><glyph d="M569 0v59c-33 -45 -75 -66 -139 -66c-59 0 -106 22 -139 65c-31 42 -43 92 -43 183c0 88 11 141 39 181c29 43 82 67 142 67c61 0 105 -21 140 -68v89c0 57 -10 88 -41 119c-29 29 -63 42 -114 42h-132c-51 0 -84 -13 -113 -42c-31 -31 -41 -60 -41 -119v-353 c0 -68 12 -92 62 -129l-35 -35c-61 43 -78 77 -78 164v350c0 64 20 115 55 151s82 54 141 54h150c59 0 106 -19 141 -54c37 -37 56 -88 56 -151v-507h-51zM569 241c0 98 -15 203 -135 203s-135 -105 -135 -203s15 -203 135 -203s135 105 135 203z" glyph-name="at" horiz-adv-x="697" unicode="@"/><glyph d="M529 0l-62 173h-332l-62 -173h-58l262 712h48l262 -712h-58zM301 640l-149 -419h298z" glyph-name="A" horiz-adv-x="602" unicode="A"/><glyph d="M589 194c0 -127 -84 -194 -209 -194h-270v712h262c118 0 206 -69 206 -186c0 -75 -42 -137 -111 -160c77 -27 122 -89 122 -172zM535 194c0 92 -64 146 -161 146h-210v-292h210c97 0 161 54 161 146zM524 526c0 98 -72 138 -158 138h-202v-276h202c86 0 158 40 158 138z" glyph-name="B" horiz-adv-x="671" unicode="B"/><glyph d="M568 202c-24 -128 -116 -208 -242 -208c-68 0 -131 26 -178 73c-65 65 -66 129 -66 289c0 161 1 224 66 289c47 47 110 73 178 73c128 0 218 -80 242 -208h-55c-21 99 -91 160 -187 160c-51 0 -99 -19 -135 -55c-51 -51 -55 -107 -55 -259s4 -208 55 -259 c36 -36 84 -55 135 -55c96 0 168 61 189 160h53z" glyph-name="C" horiz-adv-x="644" unicode="C"/><glyph d="M596 366c0 -96 3 -229 -69 -301c-43 -43 -103 -65 -178 -65h-239v712h239c75 0 135 -22 178 -65c72 -72 69 -185 69 -281zM542 366c0 80 3 184 -53 243c-41 43 -96 55 -153 55h-172v-616h172c57 0 112 12 153 55c56 59 53 183 53 263z" glyph-name="D" horiz-adv-x="678" unicode="D"/><glyph d="M110 0v712h432v-48h-378v-281h322v-48h-322v-287h378v-48h-432z" glyph-name="E" horiz-adv-x="598" unicode="E"/><glyph d="M164 664v-293h322v-48h-322v-323h-54v712h432v-48h-378z" glyph-name="F" horiz-adv-x="576" unicode="F"/><glyph d="M571 248c0 -75 -15 -127 -58 -172c-47 -52 -115 -82 -187 -82c-68 0 -131 26 -178 73c-65 65 -66 129 -66 289c0 161 1 224 66 289c47 47 110 73 178 73c124 0 222 -83 243 -208h-54c-21 99 -93 160 -189 160c-51 0 -99 -19 -135 -55c-51 -51 -55 -107 -55 -259 s4 -208 55 -259c36 -36 84 -55 135 -55c56 0 111 24 148 69c31 39 43 80 43 141v64h-191v48h245v-116z" glyph-name="G" horiz-adv-x="651" unicode="G"/><glyph d="M535 0v335h-371v-335h-54v712h54v-329h371v329h54v-712h-54z" glyph-name="H" horiz-adv-x="699" unicode="H"/><glyph d="M110 0v712h54v-712h-54z" glyph-name="I" horiz-adv-x="274" unicode="I"/><glyph d="M398 210c0 -130 -83 -216 -212 -216c-63 0 -115 20 -156 61l37 37c27 -27 56 -50 119 -50c103 0 158 64 158 179v491h54v-502z" glyph-name="J" horiz-adv-x="498" unicode="J"/><glyph d="M563 0l-229 399l-170 -206v-193h-54v712h54v-445l361 445h65l-220 -272l257 -440h-64z" glyph-name="K" horiz-adv-x="645" unicode="K"/><glyph d="M110 0v712h54v-664h378v-48h-432z" glyph-name="L" horiz-adv-x="572" unicode="L"/><glyph d="M654 0v587l-216 -487h-54l-220 487v-587h-54v712h54l248 -549l242 549h54v-712h-54z" glyph-name="M" horiz-adv-x="818" unicode="M"/><glyph d="M575 0l-411 619v-619h-54v712h54l411 -617v617h54v-712h-54z" glyph-name="N" horiz-adv-x="739" unicode="N"/><glyph d="M570 356c0 -160 -1 -224 -66 -289c-47 -47 -110 -73 -178 -73s-131 26 -178 73c-65 65 -66 129 -66 289c0 161 1 224 66 289c47 47 110 73 178 73s131 -26 178 -73c65 -65 66 -128 66 -289zM516 356c0 152 -4 208 -55 259c-36 36 -84 55 -135 55s-99 -19 -135 -55 c-51 -51 -55 -107 -55 -259s4 -208 55 -259c36 -36 84 -55 135 -55s99 19 135 55c51 51 55 107 55 259z" glyph-name="O" horiz-adv-x="652" unicode="O"/><glyph d="M586 507c0 -130 -92 -205 -215 -205h-207v-302h-54v712h261c123 0 215 -74 215 -205zM532 507c0 107 -68 157 -167 157h-201v-314h201c99 0 167 50 167 157z" glyph-name="P" horiz-adv-x="631" unicode="P"/><glyph d="M567 -36l-84 84c-44 -35 -100 -54 -157 -54c-68 0 -131 26 -178 73c-65 65 -66 129 -66 289c0 161 1 224 66 289c47 47 110 73 178 73s131 -26 178 -73c65 -65 66 -128 66 -289c0 -146 -1 -214 -51 -272l84 -84zM516 356c0 152 -4 208 -55 259c-36 36 -84 55 -135 55 s-99 -19 -135 -55c-51 -51 -55 -107 -55 -259s4 -208 55 -259c36 -36 84 -55 135 -55c45 0 86 14 121 42l-100 100l36 36l99 -99c32 45 34 107 34 235z" glyph-name="Q" horiz-adv-x="651" unicode="Q"/><glyph d="M530 0l-170 328h-196v-328h-54v712h271c116 0 204 -67 204 -191c0 -107 -64 -175 -164 -192l172 -329h-63zM531 520c0 99 -65 144 -157 144h-210v-288h210c92 0 157 45 157 144z" glyph-name="R" horiz-adv-x="657" unicode="R"/><glyph d="M528 191c0 -121 -91 -197 -240 -197c-105 0 -172 29 -237 94l38 38c64 -64 117 -84 202 -84c113 0 183 54 183 147c0 43 -12 77 -39 100c-27 21 -44 30 -103 38l-83 13c-54 8 -96 25 -127 52c-37 31 -56 75 -56 131c0 120 84 195 221 195c88 0 144 -24 205 -77l-35 -35 c-42 40 -89 66 -173 66c-104 0 -165 -56 -165 -147c0 -41 12 -72 37 -93s66 -37 106 -44l77 -12c67 -9 98 -22 127 -47c39 -32 62 -81 62 -138z" glyph-name="S" horiz-adv-x="587" unicode="S"/><glyph d="M296 664v-664h-54v664h-212v48h479v-48h-213z" glyph-name="T" horiz-adv-x="539" unicode="T"/><glyph d="M588 231c0 -139 -101 -237 -244 -237s-244 98 -244 237v481h54v-474c0 -118 75 -196 190 -196s190 78 190 196v474h54v-481z" glyph-name="U" horiz-adv-x="688" unicode="U"/><glyph d="M290 0h-46l-234 712h57l200 -617l200 617h57z" glyph-name="V" horiz-adv-x="534" unicode="V"/><glyph d="M644 0h-55l-168 620l-168 -620h-55l-178 712h57l150 -619l166 619h56l166 -619l150 619h57z" glyph-name="W" horiz-adv-x="842" unicode="W"/><glyph d="M451 0l-186 317l-186 -317h-61l218 365l-204 347h63l170 -299l171 299h62l-204 -347l220 -365h-63z" glyph-name="X" horiz-adv-x="532" unicode="X"/><glyph d="M274 295v-295h-54v295l-210 417h58l181 -360l177 360h58z" glyph-name="Y" horiz-adv-x="494" unicode="Y"/><glyph d="M63 0v57l375 607h-360v48h418v-48l-378 -616h378v-48h-433z" glyph-name="Z" horiz-adv-x="559" unicode="Z"/><glyph d="M97 -74v860h148v-45h-97v-770h97v-45h-148z" glyph-name="bracketleft" horiz-adv-x="290" unicode="["/><glyph d="M285 -74l-285 860h53l285 -860h-53z" glyph-name="backslash" horiz-adv-x="338" unicode="\"/><glyph d="M45 -74v42h100v776h-100v42h148v-860h-148z" glyph-name="bracketright" horiz-adv-x="290" unicode="]"/><glyph d="M387 422l-130 242l-130 -242h-51l158 296h46l158 -296h-51z" glyph-name="asciicircum" unicode="^"/><glyph d="M0 -160v38h514v-38h-514z" glyph-name="underscore" unicode="_"/><glyph d="M239 590l-106 147h67l97 -147h-58z" glyph-name="grave" horiz-adv-x="500" unicode="`"/><glyph d="M73 0h-58l262 712h48l262 -712h-58l-228 640z" glyph-name="a" horiz-adv-x="602" unicode="a"/><glyph d="M110 48h264c97 0 161 54 161 146s-64 146 -161 146h-264v48h256c86 0 158 40 158 138s-72 138 -158 138h-256v48h262c118 0 206 -69 206 -186c0 -75 -42 -137 -111 -160c77 -27 122 -89 122 -172c0 -127 -84 -194 -209 -194h-270v48z" glyph-name="b" horiz-adv-x="671" unicode="b"/><glyph d="M568 202c-24 -128 -116 -208 -242 -208c-68 0 -131 26 -178 73c-65 65 -66 129 -66 289c0 161 1 224 66 289c47 47 110 73 178 73c128 0 218 -80 242 -208h-55c-21 99 -91 160 -187 160c-51 0 -99 -19 -135 -55c-51 -51 -55 -107 -55 -259s4 -208 55 -259 c36 -36 84 -55 135 -55c96 0 168 61 189 160h53z" glyph-name="c" horiz-adv-x="644" unicode="c"/><glyph d="M110 48h226c57 0 112 12 153 55c56 59 53 183 53 263s3 184 -53 243c-41 43 -96 55 -153 55h-226v48h239c75 0 135 -22 178 -65c72 -72 69 -185 69 -281s3 -229 -69 -301c-43 -43 -103 -65 -178 -65h-239v48z" glyph-name="d" horiz-adv-x="678" unicode="d"/><glyph d="M109 335v49h377v-49h-377zM109 0v49h432v-49h-432zM109 664v49h432v-49h-432z" glyph-name="e" horiz-adv-x="598" unicode="e"/><glyph d="M486 371v-48h-322v-323h-54v371h376zM110 664v48h432v-48h-432z" glyph-name="f" horiz-adv-x="576" unicode="f"/><glyph d="M571 248c0 -75 -15 -127 -58 -172c-47 -52 -115 -82 -187 -82c-68 0 -131 26 -178 73c-65 65 -66 129 -66 289c0 161 1 224 66 289c47 47 110 73 178 73c124 0 222 -83 243 -208h-54c-21 99 -93 160 -189 160c-51 0 -99 -19 -135 -55c-51 -51 -55 -107 -55 -259 s4 -208 55 -259c36 -36 84 -55 135 -55c56 0 111 24 148 69c31 39 43 80 43 141v64h-191v48h245v-116z" glyph-name="g" horiz-adv-x="651" unicode="g"/><glyph d="M164 0h-54v712h54v-712zM535 712h54v-712h-54v712z" glyph-name="h" horiz-adv-x="699" unicode="h"/><glyph d="M110 0v712h54v-712h-54z" glyph-name="i" horiz-adv-x="274" unicode="i"/><glyph d="M398 210c0 -130 -83 -216 -212 -216c-63 0 -115 20 -156 61l37 37c27 -27 56 -50 119 -50c103 0 158 64 158 179v491h54v-502z" glyph-name="j" horiz-adv-x="498" unicode="j"/><glyph d="M563 0l-229 399l-170 -206v-193h-54v712h54v-445l361 445h65l-220 -272l257 -440h-64z" glyph-name="k" horiz-adv-x="645" unicode="k"/><glyph d="M110 0v712h54v-664h378v-48h-432z" glyph-name="l" horiz-adv-x="572" unicode="l"/><glyph d="M654 0v587l-216 -487h-54l-220 487v-587h-54v712h54l248 -549l242 549h54v-712h-54z" glyph-name="m" horiz-adv-x="818" unicode="m"/><glyph d="M575 0l-411 619v-619h-54v712h54l411 -617v617h54v-712h-54z" glyph-name="n" horiz-adv-x="739" unicode="n"/><glyph d="M570 356c0 -160 -1 -224 -66 -289c-47 -47 -110 -73 -178 -73s-131 26 -178 73c-65 65 -66 129 -66 289c0 161 1 224 66 289c47 47 110 73 178 73s131 -26 178 -73c65 -65 66 -128 66 -289zM516 356c0 152 -4 208 -55 259c-36 36 -84 55 -135 55s-99 -19 -135 -55 c-51 -51 -55 -107 -55 -259s4 -208 55 -259c36 -36 84 -55 135 -55s99 19 135 55c51 51 55 107 55 259z" glyph-name="o" horiz-adv-x="652" unicode="o"/><glyph d="M110 350h255c99 0 167 50 167 157s-68 157 -167 157h-255v48h261c123 0 215 -74 215 -205c0 -130 -92 -205 -215 -205h-207v-302h-54v350z" glyph-name="p" horiz-adv-x="631" unicode="p"/><glyph d="M567 -36l-84 84c-44 -35 -100 -54 -157 -54c-68 0 -131 26 -178 73c-65 65 -66 129 -66 289c0 161 1 224 66 289c47 47 110 73 178 73s131 -26 178 -73c65 -65 66 -128 66 -289c0 -146 -1 -214 -51 -272l84 -84zM516 356c0 152 -4 208 -55 259c-36 36 -84 55 -135 55 s-99 -19 -135 -55c-51 -51 -55 -107 -55 -259s4 -208 55 -259c36 -36 84 -55 135 -55c45 0 86 14 121 42l-100 100l36 36l99 -99c32 45 34 107 34 235z" glyph-name="q" horiz-adv-x="651" unicode="q"/><glyph d="M109 376h265c92 0 157 45 157 144s-65 144 -157 144h-265l1 48h271c116 0 204 -67 204 -191c0 -107 -64 -175 -164 -192l172 -329h-63l-170 328h-196v-328h-54z" glyph-name="r" horiz-adv-x="657" unicode="r"/><glyph d="M528 191c0 -121 -91 -197 -240 -197c-105 0 -172 29 -237 94l38 38c64 -64 117 -84 202 -84c113 0 183 54 183 147c0 43 -12 77 -39 100c-27 21 -44 30 -103 38l-83 13c-54 8 -96 25 -127 52c-37 31 -56 75 -56 131c0 120 84 195 221 195c88 0 144 -24 205 -77l-35 -35 c-42 40 -89 66 -173 66c-104 0 -165 -56 -165 -147c0 -41 12 -72 37 -93s66 -37 106 -44l77 -12c67 -9 98 -22 127 -47c39 -32 62 -81 62 -138z" glyph-name="s" horiz-adv-x="587" unicode="s"/><glyph d="M296 664v-664h-54v664h-212v48h479v-48h-213z" glyph-name="t" horiz-adv-x="539" unicode="t"/><glyph d="M588 231c0 -139 -101 -237 -244 -237s-244 98 -244 237v481h54v-474c0 -118 75 -196 190 -196s190 78 190 196v474h54v-481z" glyph-name="u" horiz-adv-x="688" unicode="u"/><glyph d="M290 0h-46l-234 712h57l200 -617l200 617h57z" glyph-name="v" horiz-adv-x="534" unicode="v"/><glyph d="M644 0h-55l-168 620l-168 -620h-55l-178 712h57l150 -619l166 619h56l166 -619l150 619h57z" glyph-name="w" horiz-adv-x="842" unicode="w"/><glyph d="M451 0l-186 317l-186 -317h-61l218 365l-204 347h63l170 -299l171 299h62l-204 -347l220 -365h-63z" glyph-name="x" horiz-adv-x="532" unicode="x"/><glyph d="M274 295v-295h-54v295l-210 417h58l181 -360l177 360h58z" glyph-name="y" horiz-adv-x="494" unicode="y"/><glyph d="M63 0v57l375 607h-360v48h418v-48l-378 -616h378v-48h-433z" glyph-name="z" horiz-adv-x="559" unicode="z"/><glyph d="M252 -74c-49 0 -77 7 -97 27c-19 19 -26 40 -26 95v207c0 28 -6 48 -18 60c-11 11 -24 19 -43 19h-18v44h18c19 0 32 8 43 19c12 12 18 32 18 60v207c0 55 7 76 26 95c20 20 48 27 97 27h14v-45h-13c-36 0 -48 -2 -59 -13s-14 -28 -14 -65v-207c0 -52 -18 -79 -61 -100 c43 -21 61 -48 61 -100v-207c0 -37 3 -54 14 -65s23 -13 59 -13h13v-45h-14z" glyph-name="braceleft" horiz-adv-x="316" unicode="{"/><glyph d="M133 -74v860h51v-860h-51z" glyph-name="bar" horiz-adv-x="317" unicode="|"/><glyph d="M248 334c-19 0 -32 -8 -43 -19c-12 -12 -18 -32 -18 -60v-207c0 -55 -7 -76 -26 -95c-20 -20 -48 -27 -97 -27h-14v45h13c36 0 48 2 59 13s14 28 14 65v207c0 52 18 79 61 100c-43 21 -61 48 -61 100v207c0 37 -3 54 -14 65s-23 13 -59 13h-13v45h14c49 0 77 -7 97 -27 c19 -19 26 -40 26 -95v-207c0 -28 6 -48 18 -60c11 -11 24 -19 43 -19h18v-44h-18z" glyph-name="braceright" horiz-adv-x="316" unicode="}"/><glyph d="M461 277c-54 -54 -77 -62 -116 -62c-33 0 -66 16 -102 31c-28 12 -49 23 -76 23c-28 0 -43 -5 -83 -45l-31 31c54 54 77 62 116 62c33 0 66 -16 102 -31c28 -12 49 -23 76 -23c29 0 43 5 83 45z" glyph-name="asciitilde" unicode="~"/><glyph glyph-name="uni00A0" horiz-adv-x="255"/><glyph d="M110 -230l3 520h49l3 -520h-55zM104 415v67h67v-67h-67z" glyph-name="exclamdown" horiz-adv-x="304" unicode="¡"/><glyph d="M440 193c-49 -54 -87 -71 -148 -74v-119h-43v121c-113 15 -180 104 -180 245s67 230 180 245v101h43v-99c61 -3 99 -20 148 -74l-35 -32c-39 43 -68 58 -113 61v-404c45 3 74 18 113 61zM249 565c-41 -7 -73 -28 -96 -61c-24 -35 -33 -73 -33 -138s9 -103 33 -138 c23 -33 55 -54 96 -61v398z" glyph-name="cent" horiz-adv-x="498" unicode="¢"/><glyph d="M114 0v342h-64v38h64v122c0 130 83 216 212 216c63 0 115 -20 156 -61l-37 -37c-27 27 -56 50 -119 50c-103 0 -158 -64 -158 -179v-111h158v-38h-158v-294h314v-48h-368z" glyph-name="sterling" horiz-adv-x="537" unicode="£"/><glyph d="M540 22l-75 74c-37 -31 -85 -48 -137 -48s-100 17 -137 48l-74 -74l-32 32l74 74c-31 37 -48 85 -48 137s17 101 48 138l-74 73l32 32l74 -73c37 31 85 47 137 47s100 -16 137 -47l75 73l32 -32l-74 -73c31 -37 47 -86 47 -138s-16 -100 -47 -137l74 -74zM497 265 c0 94 -75 169 -169 169s-169 -75 -169 -169s75 -169 169 -169s169 75 169 169z" glyph-name="currency" horiz-adv-x="657" unicode="¤"/><glyph d="M320 386h108v-38h-127l-27 -53v-53h154v-38h-154v-204h-54v204h-155v38h155v53l-27 53h-128v38h109l-164 326h57l181 -361l179 361h56z" glyph-name="yen" horiz-adv-x="493" unicode="¥"/><glyph d="M133 -74v350h51v-350h-51zM133 436v350h51v-350h-51z" glyph-name="brokenbar" horiz-adv-x="328" unicode="¦"/><glyph d="M469 247c0 -84 -51 -143 -110 -170c63 -21 103 -74 103 -146c0 -97 -74 -167 -179 -167c-100 0 -176 56 -184 155h54c7 -72 54 -107 130 -107s125 42 125 119c0 53 -37 96 -94 112l-83 23c-85 24 -134 94 -134 181c0 84 51 143 110 170c-63 27 -99 68 -99 141 c0 100 79 160 175 160c93 0 173 -54 178 -151h-53c-7 75 -52 104 -125 104c-75 0 -122 -37 -122 -113c0 -61 39 -92 91 -107l83 -23c84 -24 134 -95 134 -181zM415 247c0 39 -6 72 -35 101c-27 27 -60 41 -97 41c-39 0 -72 -14 -97 -41c-27 -29 -35 -58 -35 -101 c0 -45 12 -77 35 -101c25 -27 58 -41 97 -41s72 14 97 41c23 25 35 54 35 101z" glyph-name="section" horiz-adv-x="566" unicode="§"/><glyph d="M117 600v77h58v-77h-58zM325 600v77h58v-77h-58z" glyph-name="dieresis" horiz-adv-x="500" unicode="¨"/><glyph d="M809 356c0 -200 -162 -362 -362 -362s-362 162 -362 362s162 362 362 362s362 -162 362 -362zM761 356c0 172 -142 318 -314 318s-314 -146 -314 -318s142 -318 314 -318s314 146 314 318zM582 202c-39 -35 -75 -52 -131 -52c-122 0 -177 94 -177 206s55 207 177 207 c56 0 90 -16 131 -53l-30 -30c-36 32 -61 42 -101 42c-101 0 -132 -78 -132 -166s31 -165 132 -165c40 0 65 9 101 41z" glyph-name="copyright" horiz-adv-x="894" unicode="©"/><glyph d="M313 327v36c-32 -31 -62 -41 -114 -41c-56 0 -87 8 -112 35c-19 19 -28 46 -28 75c0 71 49 111 133 111h121v42c0 60 -29 91 -105 91c-53 0 -80 -12 -104 -48l-32 27c35 47 75 60 136 60c100 0 148 -46 148 -126v-262h-43zM313 508h-116c-63 0 -95 -25 -95 -75 c0 -49 29 -72 97 -72c35 0 67 3 94 28c13 13 20 37 20 72v47z" glyph-name="ordfeminine" horiz-adv-x="447" unicode="ª"/><glyph d="M42 265l196 196v-66l-130 -130l130 -130v-66zM249 265l196 196v-66l-130 -130l130 -130v-66z" glyph-name="guillemotleft" horiz-adv-x="527" unicode="«"/><glyph d="M414 107v133h-361v47h408v-180h-47z" glyph-name="logicalnot" unicode="¬"/><glyph d="M82 240v47h262v-47h-262z" glyph-name="uni00AD" horiz-adv-x="426" unicode="­"/><glyph d="M809 356c0 -200 -162 -362 -362 -362s-362 162 -362 362s162 362 362 362s362 -162 362 -362zM762 356c0 173 -142 319 -315 319s-315 -146 -315 -319s142 -319 315 -319s315 146 315 319zM543 156l-99 167h-66v-167h-45v401h128c67 0 124 -50 124 -118 c0 -60 -38 -97 -91 -112l101 -171h-52zM540 439c0 44 -36 77 -84 77h-78v-153h78c48 0 84 32 84 76z" glyph-name="registered" horiz-adv-x="894" unicode="®"/><glyph d="M398 610h-296v46h296v-46z" glyph-name="macron" horiz-adv-x="500" unicode="¯"/><glyph d="M386 562c0 -87 -70 -157 -157 -157s-157 70 -157 157s70 157 157 157s157 -70 157 -157zM341 562c0 64 -49 115 -113 115s-111 -48 -111 -115s48 -115 112 -115s112 48 112 115z" glyph-name="degree" horiz-adv-x="458" unicode="°"/><glyph d="M281 270v-182h-47v182h-181v47h181v181h47v-181h180v-47h-180zM53 0v47h408v-47h-408z" glyph-name="plusminus" unicode="±"/><glyph d="M50 285v40l168 213c15 20 23 41 23 62c0 47 -26 76 -73 76c-39 0 -74 -20 -74 -76h-44c0 68 46 116 118 116c71 0 118 -44 118 -116c0 -35 -10 -56 -34 -87l-149 -188h183v-40h-236z" glyph-name="twosuperior" horiz-adv-x="336" unicode="²"/><glyph d="M302 402c0 -79 -55 -122 -125 -122c-68 0 -124 37 -127 114h45c3 -53 41 -74 82 -74c47 0 81 30 81 82c0 51 -25 81 -84 81h-8v39h8c52 0 76 29 76 77c0 51 -33 77 -74 77c-45 0 -72 -27 -76 -70h-44c5 69 55 110 120 110c71 0 118 -45 118 -116c0 -46 -19 -78 -57 -95 c43 -16 65 -50 65 -103z" glyph-name="threesuperior" horiz-adv-x="352" unicode="³"/><glyph d="M261 590h-58l97 147h67z" glyph-name="acute" horiz-adv-x="500" unicode="´"/><glyph d="M408 0v57c-36 -42 -83 -63 -142 -63c-53 0 -95 15 -127 45v-269h-51v712h51v-299c0 -93 46 -144 133 -144s136 52 136 144v299h51v-482h-51z" glyph-name="uni00B5" horiz-adv-x="556" unicode="µ"/><glyph d="M418 -230v894h-123v-894h-51v562c-128 0 -199 97 -199 190c0 98 74 190 211 190h213v-942h-51z" glyph-name="paragraph" horiz-adv-x="579" unicode="¶"/><glyph d="M95 227v74h74v-74h-74z" glyph-name="periodcentered" horiz-adv-x="264" unicode="·"/><glyph d="M244 -220h-63l72 150h55z" glyph-name="cedilla" horiz-adv-x="500" unicode="¸"/><glyph d="M125 285v378l-80 -71v51l80 69h44v-427h-44z" glyph-name="onesuperior" horiz-adv-x="249" unicode="¹"/><glyph d="M380 519c0 -56 -7 -113 -48 -154c-28 -28 -63 -42 -106 -42s-78 14 -106 42c-41 41 -48 98 -48 154s7 113 48 154c28 28 63 42 106 42s78 -14 106 -42c41 -41 48 -98 48 -154zM337 519c0 43 -2 94 -33 125c-21 21 -47 32 -78 32s-57 -11 -78 -32 c-31 -31 -33 -82 -33 -125s2 -94 33 -125c20 -20 47 -32 78 -32s58 12 78 32c31 31 33 82 33 125z" glyph-name="ordmasculine" horiz-adv-x="452" unicode="º"/><glyph d="M82 69v66l130 130l-130 130v66l196 -196zM289 69v66l130 130l-130 130v66l196 -196z" glyph-name="guillemotright" horiz-adv-x="527" unicode="»"/><glyph d="M664 67v-67h-44v67h-170v40l154 320h47l-153 -320h122v120h44v-120h52v-40h-52zM213 0h-45l332 712h45zM125 285v378l-80 -71v51l80 69h44v-427h-44z" glyph-name="onequarter" horiz-adv-x="756" unicode="¼"/><glyph d="M478 0v40l168 213c15 20 23 41 23 62c0 47 -26 76 -73 76c-39 0 -74 -20 -74 -76h-44c0 68 46 116 118 116c71 0 118 -44 118 -116c0 -35 -11 -56 -34 -87l-149 -188h183v-40h-236zM198 0h-45l332 712h45zM125 285v378l-80 -71v51l80 69h44v-427h-44z" glyph-name="onehalf" horiz-adv-x="764" unicode="½"/><glyph d="M302 402c0 -79 -55 -122 -125 -122c-68 0 -124 37 -127 114h45c3 -53 41 -74 82 -74c47 0 81 30 81 82c0 51 -25 81 -84 81h-8v39h8c52 0 76 29 76 77c0 51 -33 77 -74 77c-45 0 -72 -27 -76 -70h-44c5 69 55 110 120 110c71 0 118 -45 118 -116c0 -46 -19 -78 -57 -95 c43 -16 65 -50 65 -103zM714 67v-67h-44v67h-170v40l154 320h47l-153 -320h122v120h44v-120h52v-40h-52zM273 0h-45l332 712h45z" glyph-name="threequarters" horiz-adv-x="806" unicode="¾"/><glyph d="M408 -60c0 -96 -72 -176 -179 -176c-102 0 -179 76 -179 176c0 47 17 80 44 119l85 125c13 19 18 44 18 60v47h51v-45c0 -39 -9 -61 -29 -90l-84 -124c-20 -31 -34 -53 -34 -92c0 -75 55 -131 128 -131c78 0 128 61 128 131h51zM189 415v67h67v-67h-67z" glyph-name="questiondown" horiz-adv-x="488" unicode="¿"/><glyph d="M529 0l-62 173h-332l-62 -173h-58l262 712h48l262 -712h-58zM301 640l-149 -419h298zM290 780l-106 147h67l97 -147h-58z" glyph-name="Agrave" horiz-adv-x="602" unicode="À"/><glyph d="M529 0l-62 173h-332l-62 -173h-58l262 712h48l262 -712h-58zM301 640l-149 -419h298zM312 780h-58l97 147h67z" glyph-name="Aacute" horiz-adv-x="602" unicode="Á"/><glyph d="M529 0l-62 173h-332l-62 -173h-58l262 712h48l262 -712h-58zM301 640l-149 -419h298zM394 780l-93 109l-93 -109h-57l123 147h54l123 -147h-57z" glyph-name="Acircumflex" horiz-adv-x="602" unicode="Â"/><glyph d="M529 0l-62 173h-332l-62 -173h-58l262 712h48l262 -712h-58zM301 640l-149 -419h298zM450 843c-46 -46 -71 -48 -89 -48c-28 0 -46 11 -69 24c-19 11 -36 21 -56 21c-16 0 -28 -2 -59 -33l-30 29c46 46 70 48 89 48c29 0 45 -9 69 -24c21 -13 36 -21 56 -21 c15 0 28 2 59 33z" glyph-name="Atilde" horiz-adv-x="602" unicode="Ã"/><glyph d="M529 0l-62 173h-332l-62 -173h-58l262 712h48l262 -712h-58zM301 640l-149 -419h298zM168 790v77h58v-77h-58zM376 790v77h58v-77h-58z" glyph-name="Adieresis" horiz-adv-x="602" unicode="Ä"/><glyph d="M529 0l-62 173h-332l-62 -173h-58l262 712h48l262 -712h-58zM301 640l-149 -419h298zM415 861c0 -63 -51 -115 -114 -115s-114 52 -114 115s51 114 114 114s114 -51 114 -114zM374 861c0 40 -33 72 -73 72s-73 -32 -73 -72s33 -73 73 -73s73 33 73 73z" glyph-name="Aring" horiz-adv-x="602" unicode="Å"/><glyph d="M414 0v173h-255l-90 -173h-59l377 712h458v-48h-378v-284h322v-48h-322v-284h378v-48h-431zM414 664l-232 -443h232v443z" glyph-name="AE" horiz-adv-x="901" unicode="Æ"/><glyph d="M568 202c-24 -128 -116 -208 -242 -208c-68 0 -131 26 -178 73c-65 65 -66 129 -66 289c0 161 1 224 66 289c47 47 110 73 178 73c128 0 218 -80 242 -208h-55c-21 99 -91 160 -187 160c-51 0 -99 -19 -135 -55c-51 -51 -55 -107 -55 -259s4 -208 55 -259 c36 -36 84 -55 135 -55c96 0 168 61 189 160h53zM302 -220h-63l72 150h55z" glyph-name="Ccedilla" horiz-adv-x="644" unicode="Ç"/><glyph d="M110 0v712h432v-48h-378v-281h322v-48h-322v-287h378v-48h-432zM303 780l-106 147h67l97 -147h-58z" glyph-name="Egrave" horiz-adv-x="598" unicode="È"/><glyph d="M110 0v712h432v-48h-378v-281h322v-48h-322v-287h378v-48h-432zM325 780h-58l97 147h67z" glyph-name="Eacute" horiz-adv-x="598" unicode="É"/><glyph d="M110 0v712h432v-48h-378v-281h322v-48h-322v-287h378v-48h-432zM407 780l-93 109l-93 -109h-57l123 147h54l123 -147h-57z" glyph-name="Ecircumflex" horiz-adv-x="598" unicode="Ê"/><glyph d="M110 0v712h432v-48h-378v-281h322v-48h-322v-287h378v-48h-432zM181 790v77h58v-77h-58zM389 790v77h58v-77h-58z" glyph-name="Edieresis" horiz-adv-x="598" unicode="Ë"/><glyph d="M110 0v712h54v-712h-54zM126 780l-106 147h67l97 -147h-58z" glyph-name="Igrave" horiz-adv-x="274" unicode="Ì"/><glyph d="M110 0v712h54v-712h-54zM148 780h-58l97 147h67z" glyph-name="Iacute" horiz-adv-x="274" unicode="Í"/><glyph d="M110 0v712h54v-712h-54zM232 780l-93 109l-93 -109h-57l123 147h54l123 -147h-57z" glyph-name="Icircumflex" horiz-adv-x="274" unicode="Î"/><glyph d="M110 0v712h54v-712h-54zM4 790v77h58v-77h-58zM212 790v77h58v-77h-58z" glyph-name="Idieresis" horiz-adv-x="274" unicode="Ï"/><glyph d="M607 356c0 -173 -9 -198 -38 -243c-40 -64 -111 -113 -215 -113h-233v338h-81v42h81v332h240c92 0 164 -39 208 -115c32 -56 38 -78 38 -241zM553 351c0 137 0 182 -40 235c-43 59 -94 79 -166 79h-172v-285h178v-42h-178v-291h172c76 0 135 25 172 81 c33 49 34 82 34 223z" glyph-name="Eth" horiz-adv-x="689" unicode="Ð"/><glyph d="M575 0l-411 619v-619h-54v712h54l411 -617v617h54v-712h-54zM519 843c-46 -46 -71 -48 -89 -48c-28 0 -46 11 -69 24c-19 11 -36 21 -56 21c-16 0 -28 -2 -59 -33l-30 29c46 46 70 48 89 48c29 0 45 -9 69 -24c21 -13 36 -21 56 -21c15 0 28 2 59 33z" glyph-name="Ntilde" horiz-adv-x="739" unicode="Ñ"/><glyph d="M570 356c0 -160 -1 -224 -66 -289c-47 -47 -110 -73 -178 -73s-131 26 -178 73c-65 65 -66 129 -66 289c0 161 1 224 66 289c47 47 110 73 178 73s131 -26 178 -73c65 -65 66 -128 66 -289zM516 356c0 152 -4 208 -55 259c-36 36 -84 55 -135 55s-99 -19 -135 -55 c-51 -51 -55 -107 -55 -259s4 -208 55 -259c36 -36 84 -55 135 -55s99 19 135 55c51 51 55 107 55 259zM315 780l-106 147h67l97 -147h-58z" glyph-name="Ograve" horiz-adv-x="652" unicode="Ò"/><glyph d="M570 356c0 -160 -1 -224 -66 -289c-47 -47 -110 -73 -178 -73s-131 26 -178 73c-65 65 -66 129 -66 289c0 161 1 224 66 289c47 47 110 73 178 73s131 -26 178 -73c65 -65 66 -128 66 -289zM516 356c0 152 -4 208 -55 259c-36 36 -84 55 -135 55s-99 -19 -135 -55 c-51 -51 -55 -107 -55 -259s4 -208 55 -259c36 -36 84 -55 135 -55s99 19 135 55c51 51 55 107 55 259zM337 780h-58l97 147h67z" glyph-name="Oacute" horiz-adv-x="652" unicode="Ó"/><glyph d="M570 356c0 -160 -1 -224 -66 -289c-47 -47 -110 -73 -178 -73s-131 26 -178 73c-65 65 -66 129 -66 289c0 161 1 224 66 289c47 47 110 73 178 73s131 -26 178 -73c65 -65 66 -128 66 -289zM516 356c0 152 -4 208 -55 259c-36 36 -84 55 -135 55s-99 -19 -135 -55 c-51 -51 -55 -107 -55 -259s4 -208 55 -259c36 -36 84 -55 135 -55s99 19 135 55c51 51 55 107 55 259zM419 780l-93 109l-93 -109h-57l123 147h54l123 -147h-57z" glyph-name="Ocircumflex" horiz-adv-x="652" unicode="Ô"/><glyph d="M570 356c0 -160 -1 -224 -66 -289c-47 -47 -110 -73 -178 -73s-131 26 -178 73c-65 65 -66 129 -66 289c0 161 1 224 66 289c47 47 110 73 178 73s131 -26 178 -73c65 -65 66 -128 66 -289zM516 356c0 152 -4 208 -55 259c-36 36 -84 55 -135 55s-99 -19 -135 -55 c-51 -51 -55 -107 -55 -259s4 -208 55 -259c36 -36 84 -55 135 -55s99 19 135 55c51 51 55 107 55 259zM475 843c-46 -46 -71 -48 -89 -48c-28 0 -46 11 -69 24c-19 11 -36 21 -56 21c-16 0 -28 -2 -59 -33l-30 29c46 46 70 48 89 48c29 0 45 -9 69 -24 c21 -13 36 -21 56 -21c15 0 28 2 59 33z" glyph-name="Otilde" horiz-adv-x="652" unicode="Õ"/><glyph d="M570 356c0 -160 -1 -224 -66 -289c-47 -47 -110 -73 -178 -73s-131 26 -178 73c-65 65 -66 129 -66 289c0 161 1 224 66 289c47 47 110 73 178 73s131 -26 178 -73c65 -65 66 -128 66 -289zM516 356c0 152 -4 208 -55 259c-36 36 -84 55 -135 55s-99 -19 -135 -55 c-51 -51 -55 -107 -55 -259s4 -208 55 -259c36 -36 84 -55 135 -55s99 19 135 55c51 51 55 107 55 259zM193 790v77h58v-77h-58zM401 790v77h58v-77h-58z" glyph-name="Odieresis" horiz-adv-x="652" unicode="Ö"/><glyph d="M412 78l-155 155l-155 -155l-31 31l155 155l-155 155l31 31l155 -155l155 155l31 -31l-155 -155l155 -155z" glyph-name="multiply" unicode="×"/><glyph d="M570 356c0 -160 -1 -224 -66 -289c-47 -47 -110 -73 -178 -73c-47 0 -91 12 -130 35l-35 -73h-53l49 102l-9 9c-65 65 -66 129 -66 289c0 161 1 224 66 289c47 47 110 73 178 73c47 0 91 -12 130 -35l35 73h53l-49 -102l9 -9c65 -65 66 -128 66 -289zM434 637 c-31 23 -69 33 -108 33c-51 0 -99 -19 -135 -55c-51 -51 -55 -107 -55 -259c0 -141 2 -200 45 -248zM516 356c0 141 -2 200 -45 248l-253 -529c31 -22 67 -33 108 -33c51 0 99 19 135 55c51 51 55 107 55 259z" glyph-name="Oslash" horiz-adv-x="652" unicode="Ø"/><glyph d="M588 231c0 -139 -101 -237 -244 -237s-244 98 -244 237v481h54v-474c0 -118 75 -196 190 -196s190 78 190 196v474h54v-481zM333 780l-106 147h67l97 -147h-58z" glyph-name="Ugrave" horiz-adv-x="688" unicode="Ù"/><glyph d="M588 231c0 -139 -101 -237 -244 -237s-244 98 -244 237v481h54v-474c0 -118 75 -196 190 -196s190 78 190 196v474h54v-481zM355 780h-58l97 147h67z" glyph-name="Uacute" horiz-adv-x="688" unicode="Ú"/><glyph d="M588 231c0 -139 -101 -237 -244 -237s-244 98 -244 237v481h54v-474c0 -118 75 -196 190 -196s190 78 190 196v474h54v-481zM437 780l-93 109l-93 -109h-57l123 147h54l123 -147h-57z" glyph-name="Ucircumflex" horiz-adv-x="688" unicode="Û"/><glyph d="M588 231c0 -139 -101 -237 -244 -237s-244 98 -244 237v481h54v-474c0 -118 75 -196 190 -196s190 78 190 196v474h54v-481zM211 790v77h58v-77h-58zM419 790v77h58v-77h-58z" glyph-name="Udieresis" horiz-adv-x="688" unicode="Ü"/><glyph d="M274 295v-295h-54v295l-210 417h58l181 -360l177 360h58zM258 780h-58l97 147h67z" glyph-name="Yacute" horiz-adv-x="494" unicode="Ý"/><glyph d="M586 359c0 -130 -92 -205 -215 -205h-207v-154h-54v712h54v-148h207c123 0 215 -74 215 -205zM532 359c0 107 -68 157 -167 157h-201v-314h201c99 0 167 50 167 157z" glyph-name="Thorn" horiz-adv-x="646" unicode="Þ"/><glyph d="M473 134c0 -43 -15 -77 -39 -100c-27 -24 -52 -34 -95 -34h-54v45h44c32 0 46 7 65 22s28 39 28 73v179c0 32 -6 52 -23 68c-15 15 -37 23 -65 23h-49v45h39c60 0 98 41 98 102c0 33 -12 65 -35 85c-22 21 -57 32 -104 32c-96 0 -135 -61 -135 -149v-525h-51v525 c0 121 71 194 192 194c100 0 183 -50 183 -162c0 -53 -21 -94 -63 -122c52 -26 64 -61 64 -124v-177z" glyph-name="germandbls" horiz-adv-x="550" unicode="ß"/><glyph d="M73 0h-58l262 712h48l262 -712h-58l-228 640zM290 780l-106 147h67l97 -147h-58z" glyph-name="agrave" horiz-adv-x="602" unicode="à"/><glyph d="M73 0h-58l262 712h48l262 -712h-58l-228 640zM312 780h-58l97 147h67z" glyph-name="aacute" horiz-adv-x="602" unicode="á"/><glyph d="M73 0h-58l262 712h48l262 -712h-58l-228 640zM394 780l-93 109l-93 -109h-57l123 147h54l123 -147h-57z" glyph-name="acircumflex" horiz-adv-x="602" unicode="â"/><glyph d="M73 0h-58l262 712h48l262 -712h-58l-228 640zM450 843c-46 -46 -71 -48 -89 -48c-28 0 -46 11 -69 24c-19 11 -36 21 -56 21c-16 0 -28 -2 -59 -33l-30 29c46 46 70 48 89 48c29 0 45 -9 69 -24c21 -13 36 -21 56 -21c15 0 28 2 59 33z" glyph-name="atilde" horiz-adv-x="602" unicode="ã"/><glyph d="M73 0h-58l262 712h48l262 -712h-58l-228 640zM168 790v77h58v-77h-58zM376 790v77h58v-77h-58z" glyph-name="adieresis" horiz-adv-x="602" unicode="ä"/><glyph d="M73 0h-58l262 712h48l262 -712h-58l-228 640zM415 861c0 -63 -51 -115 -114 -115s-114 52 -114 115s51 114 114 114s114 -51 114 -114zM374 861c0 40 -33 72 -73 72s-73 -32 -73 -72s33 -73 73 -73s73 33 73 73z" glyph-name="aring" horiz-adv-x="602" unicode="å"/><glyph d="M69 0h-59l377 712h458v-48h-378v-284h322v-48h-322v-284h378v-48h-431v664z" glyph-name="ae" horiz-adv-x="901" unicode="æ"/><glyph d="M568 202c-24 -128 -116 -208 -242 -208c-68 0 -131 26 -178 73c-65 65 -66 129 -66 289c0 161 1 224 66 289c47 47 110 73 178 73c128 0 218 -80 242 -208h-55c-21 99 -91 160 -187 160c-51 0 -99 -19 -135 -55c-51 -51 -55 -107 -55 -259s4 -208 55 -259 c36 -36 84 -55 135 -55c96 0 168 61 189 160h53zM302 -220h-63l72 150h55z" glyph-name="ccedilla" horiz-adv-x="644" unicode="ç"/><glyph d="M109 335v49h377v-49h-377zM109 0v49h432v-49h-432zM109 664v49h432v-49h-432zM303 780l-106 147h67l97 -147h-58z" glyph-name="egrave" horiz-adv-x="598" unicode="è"/><glyph d="M109 335v49h377v-49h-377zM109 0v49h432v-49h-432zM109 664v49h432v-49h-432zM325 780h-58l97 147h67z" glyph-name="eacute" horiz-adv-x="598" unicode="é"/><glyph d="M109 335v49h377v-49h-377zM109 0v49h432v-49h-432zM109 664v49h432v-49h-432zM407 780l-93 109l-93 -109h-57l123 147h54l123 -147h-57z" glyph-name="ecircumflex" horiz-adv-x="598" unicode="ê"/><glyph d="M109 335v49h377v-49h-377zM109 0v49h432v-49h-432zM109 664v49h432v-49h-432zM181 790v77h58v-77h-58zM389 790v77h58v-77h-58z" glyph-name="edieresis" horiz-adv-x="598" unicode="ë"/><glyph d="M110 0v712h54v-712h-54zM126 780l-106 147h67l97 -147h-58z" glyph-name="igrave" horiz-adv-x="274" unicode="ì"/><glyph d="M110 0v712h54v-712h-54zM148 780h-58l97 147h67z" glyph-name="iacute" horiz-adv-x="274" unicode="í"/><glyph d="M110 0v712h54v-712h-54zM232 780l-93 109l-93 -109h-57l123 147h54l123 -147h-57z" glyph-name="icircumflex" horiz-adv-x="274" unicode="î"/><glyph d="M110 0v712h54v-712h-54zM4 790v77h58v-77h-58zM212 790v77h58v-77h-58z" glyph-name="idieresis" horiz-adv-x="274" unicode="ï"/><glyph d="M607 356c0 -173 -9 -198 -38 -243c-40 -64 -111 -113 -215 -113h-233v338h-81v42h81v332h240c92 0 164 -39 208 -115c32 -56 38 -78 38 -241zM553 351c0 137 0 182 -40 235c-43 59 -94 79 -166 79h-172v-285h178v-42h-178v-291h172c76 0 135 25 172 81 c33 49 34 82 34 223z" glyph-name="eth" horiz-adv-x="689" unicode="ð"/><glyph d="M575 0l-411 619v-619h-54v712h54l411 -617v617h54v-712h-54zM519 843c-46 -46 -71 -48 -89 -48c-28 0 -46 11 -69 24c-19 11 -36 21 -56 21c-16 0 -28 -2 -59 -33l-30 29c46 46 70 48 89 48c29 0 45 -9 69 -24c21 -13 36 -21 56 -21c15 0 28 2 59 33z" glyph-name="ntilde" horiz-adv-x="739" unicode="ñ"/><glyph d="M570 356c0 -160 -1 -224 -66 -289c-47 -47 -110 -73 -178 -73s-131 26 -178 73c-65 65 -66 129 -66 289c0 161 1 224 66 289c47 47 110 73 178 73s131 -26 178 -73c65 -65 66 -128 66 -289zM516 356c0 152 -4 208 -55 259c-36 36 -84 55 -135 55s-99 -19 -135 -55 c-51 -51 -55 -107 -55 -259s4 -208 55 -259c36 -36 84 -55 135 -55s99 19 135 55c51 51 55 107 55 259zM315 780l-106 147h67l97 -147h-58z" glyph-name="ograve" horiz-adv-x="652" unicode="ò"/><glyph d="M570 356c0 -160 -1 -224 -66 -289c-47 -47 -110 -73 -178 -73s-131 26 -178 73c-65 65 -66 129 -66 289c0 161 1 224 66 289c47 47 110 73 178 73s131 -26 178 -73c65 -65 66 -128 66 -289zM516 356c0 152 -4 208 -55 259c-36 36 -84 55 -135 55s-99 -19 -135 -55 c-51 -51 -55 -107 -55 -259s4 -208 55 -259c36 -36 84 -55 135 -55s99 19 135 55c51 51 55 107 55 259zM337 780h-58l97 147h67z" glyph-name="oacute" horiz-adv-x="652" unicode="ó"/><glyph d="M570 356c0 -160 -1 -224 -66 -289c-47 -47 -110 -73 -178 -73s-131 26 -178 73c-65 65 -66 129 -66 289c0 161 1 224 66 289c47 47 110 73 178 73s131 -26 178 -73c65 -65 66 -128 66 -289zM516 356c0 152 -4 208 -55 259c-36 36 -84 55 -135 55s-99 -19 -135 -55 c-51 -51 -55 -107 -55 -259s4 -208 55 -259c36 -36 84 -55 135 -55s99 19 135 55c51 51 55 107 55 259zM419 780l-93 109l-93 -109h-57l123 147h54l123 -147h-57z" glyph-name="ocircumflex" horiz-adv-x="652" unicode="ô"/><glyph d="M570 356c0 -160 -1 -224 -66 -289c-47 -47 -110 -73 -178 -73s-131 26 -178 73c-65 65 -66 129 -66 289c0 161 1 224 66 289c47 47 110 73 178 73s131 -26 178 -73c65 -65 66 -128 66 -289zM516 356c0 152 -4 208 -55 259c-36 36 -84 55 -135 55s-99 -19 -135 -55 c-51 -51 -55 -107 -55 -259s4 -208 55 -259c36 -36 84 -55 135 -55s99 19 135 55c51 51 55 107 55 259zM475 843c-46 -46 -71 -48 -89 -48c-28 0 -46 11 -69 24c-19 11 -36 21 -56 21c-16 0 -28 -2 -59 -33l-30 29c46 46 70 48 89 48c29 0 45 -9 69 -24 c21 -13 36 -21 56 -21c15 0 28 2 59 33z" glyph-name="otilde" horiz-adv-x="652" unicode="õ"/><glyph d="M570 356c0 -160 -1 -224 -66 -289c-47 -47 -110 -73 -178 -73s-131 26 -178 73c-65 65 -66 129 -66 289c0 161 1 224 66 289c47 47 110 73 178 73s131 -26 178 -73c65 -65 66 -128 66 -289zM516 356c0 152 -4 208 -55 259c-36 36 -84 55 -135 55s-99 -19 -135 -55 c-51 -51 -55 -107 -55 -259s4 -208 55 -259c36 -36 84 -55 135 -55s99 19 135 55c51 51 55 107 55 259zM193 790v77h58v-77h-58zM401 790v77h58v-77h-58z" glyph-name="odieresis" horiz-adv-x="652" unicode="ö"/><glyph d="M53 240v47h408v-47h-408zM222 397v70h70v-70h-70zM222 60v70h70v-70h-70z" glyph-name="divide" unicode="÷"/><glyph d="M570 356c0 -160 -1 -224 -66 -289c-47 -47 -110 -73 -178 -73c-47 0 -91 12 -130 35l-35 -73h-53l49 102l-9 9c-65 65 -66 129 -66 289c0 161 1 224 66 289c47 47 110 73 178 73c47 0 91 -12 130 -35l35 73h53l-49 -102l9 -9c65 -65 66 -128 66 -289zM434 637 c-31 23 -69 33 -108 33c-51 0 -99 -19 -135 -55c-51 -51 -55 -107 -55 -259c0 -141 2 -200 45 -248zM516 356c0 141 -2 200 -45 248l-253 -529c31 -22 67 -33 108 -33c51 0 99 19 135 55c51 51 55 107 55 259z" glyph-name="oslash" horiz-adv-x="652" unicode="ø"/><glyph d="M588 231c0 -139 -101 -237 -244 -237s-244 98 -244 237v481h54v-474c0 -118 75 -196 190 -196s190 78 190 196v474h54v-481zM333 780l-106 147h67l97 -147h-58z" glyph-name="ugrave" horiz-adv-x="688" unicode="ù"/><glyph d="M588 231c0 -139 -101 -237 -244 -237s-244 98 -244 237v481h54v-474c0 -118 75 -196 190 -196s190 78 190 196v474h54v-481zM355 780h-58l97 147h67z" glyph-name="uacute" horiz-adv-x="688" unicode="ú"/><glyph d="M588 231c0 -139 -101 -237 -244 -237s-244 98 -244 237v481h54v-474c0 -118 75 -196 190 -196s190 78 190 196v474h54v-481zM437 780l-93 109l-93 -109h-57l123 147h54l123 -147h-57z" glyph-name="ucircumflex" horiz-adv-x="688" unicode="û"/><glyph d="M588 231c0 -139 -101 -237 -244 -237s-244 98 -244 237v481h54v-474c0 -118 75 -196 190 -196s190 78 190 196v474h54v-481zM211 790v77h58v-77h-58zM419 790v77h58v-77h-58z" glyph-name="udieresis" horiz-adv-x="688" unicode="ü"/><glyph d="M274 295v-295h-54v295l-210 417h58l181 -360l177 360h58zM258 780h-58l97 147h67z" glyph-name="yacute" horiz-adv-x="494" unicode="ý"/><glyph d="M471 241c0 -76 -13 -156 -62 -205c-25 -25 -67 -42 -118 -42c-55 0 -100 12 -143 68v-292h-51v942h51v-292c43 56 88 68 143 68c51 0 93 -17 118 -42c49 -49 62 -129 62 -205zM420 241c0 100 -18 202 -136 202s-136 -102 -136 -202s18 -202 136 -202s136 102 136 202z" glyph-name="thorn" horiz-adv-x="540" unicode="þ"/><glyph d="M192 -131c-9 -26 -20 -45 -33 -56c-24 -23 -59 -31 -91 -31h-24v45h19c55 0 71 18 88 66l39 107l-176 482h56l145 -422l145 422h56zM82 600v77h58v-77h-58zM290 600v77h58v-77h-58z" glyph-name="ydieresis" horiz-adv-x="430" unicode="ÿ"/><glyph d="M529 0l-62 173h-332l-62 -173h-58l262 712h48l262 -712h-58zM301 640l-149 -419h298zM153 800v46h296v-46h-296z" glyph-name="Amacron" horiz-adv-x="602" unicode="Ā"/><glyph d="M73 0h-58l262 712h48l262 -712h-58l-228 640zM153 800v46h296v-46h-296z" glyph-name="amacron" horiz-adv-x="602" unicode="ā"/><glyph d="M529 0l-62 173h-332l-62 -173h-58l262 712h48l262 -712h-58zM301 640l-149 -419h298zM466 927c-9 -85 -57 -135 -165 -135s-156 50 -165 135h45c8 -56 51 -90 120 -90s112 34 120 90h45z" glyph-name="Abreve" horiz-adv-x="602" unicode="Ă"/><glyph d="M73 0h-58l262 712h48l262 -712h-58l-228 640zM466 927c-9 -85 -57 -135 -165 -135s-156 50 -165 135h45c8 -56 51 -90 120 -90s112 34 120 90h45z" glyph-name="abreve" horiz-adv-x="602" unicode="ă"/><glyph d="M529 0l-62 173h-332l-62 -173h-58l262 712h48l262 -712h-58zM301 640l-149 -419h298zM520 -220h-63l72 150h55z" glyph-name="Aogonek" horiz-adv-x="602" unicode="Ą"/><glyph d="M73 0h-58l262 712h48l262 -712h-58l-228 640zM520 -220h-63l72 150h55z" glyph-name="aogonek" horiz-adv-x="602" unicode="ą"/><glyph d="M568 202c-24 -128 -116 -208 -242 -208c-68 0 -131 26 -178 73c-65 65 -66 129 -66 289c0 161 1 224 66 289c47 47 110 73 178 73c128 0 218 -80 242 -208h-55c-21 99 -91 160 -187 160c-51 0 -99 -19 -135 -55c-51 -51 -55 -107 -55 -259s4 -208 55 -259 c36 -36 84 -55 135 -55c96 0 168 61 189 160h53zM333 780h-58l97 147h67z" glyph-name="Cacute" horiz-adv-x="644" unicode="Ć"/><glyph d="M568 202c-24 -128 -116 -208 -242 -208c-68 0 -131 26 -178 73c-65 65 -66 129 -66 289c0 161 1 224 66 289c47 47 110 73 178 73c128 0 218 -80 242 -208h-55c-21 99 -91 160 -187 160c-51 0 -99 -19 -135 -55c-51 -51 -55 -107 -55 -259s4 -208 55 -259 c36 -36 84 -55 135 -55c96 0 168 61 189 160h53zM333 780h-58l97 147h67z" glyph-name="cacute" horiz-adv-x="644" unicode="ć"/><glyph d="M568 202c-24 -128 -116 -208 -242 -208c-68 0 -131 26 -178 73c-65 65 -66 129 -66 289c0 161 1 224 66 289c47 47 110 73 178 73c128 0 218 -80 242 -208h-55c-21 99 -91 160 -187 160c-51 0 -99 -19 -135 -55c-51 -51 -55 -107 -55 -259s4 -208 55 -259 c36 -36 84 -55 135 -55c96 0 168 61 189 160h53zM419 780l-93 109l-93 -109h-57l123 147h54l123 -147h-57z" glyph-name="Ccircumflex" horiz-adv-x="644" unicode="Ĉ"/><glyph d="M568 202c-24 -128 -116 -208 -242 -208c-68 0 -131 26 -178 73c-65 65 -66 129 -66 289c0 161 1 224 66 289c47 47 110 73 178 73c128 0 218 -80 242 -208h-55c-21 99 -91 160 -187 160c-51 0 -99 -19 -135 -55c-51 -51 -55 -107 -55 -259s4 -208 55 -259 c36 -36 84 -55 135 -55c96 0 168 61 189 160h53zM419 780l-93 109l-93 -109h-57l123 147h54l123 -147h-57z" glyph-name="ccircumflex" horiz-adv-x="644" unicode="ĉ"/><glyph d="M568 202c-24 -128 -116 -208 -242 -208c-68 0 -131 26 -178 73c-65 65 -66 129 -66 289c0 161 1 224 66 289c47 47 110 73 178 73c128 0 218 -80 242 -208h-55c-21 99 -91 160 -187 160c-51 0 -99 -19 -135 -55c-51 -51 -55 -107 -55 -259s4 -208 55 -259 c36 -36 84 -55 135 -55c96 0 168 61 189 160h53zM295 800v63h62v-63h-62z" glyph-name="Cdotaccent" horiz-adv-x="644" unicode="Ċ"/><glyph d="M568 202c-24 -128 -116 -208 -242 -208c-68 0 -131 26 -178 73c-65 65 -66 129 -66 289c0 161 1 224 66 289c47 47 110 73 178 73c128 0 218 -80 242 -208h-55c-21 99 -91 160 -187 160c-51 0 -99 -19 -135 -55c-51 -51 -55 -107 -55 -259s4 -208 55 -259 c36 -36 84 -55 135 -55c96 0 168 61 189 160h53zM295 800v63h62v-63h-62z" glyph-name="cdotaccent" horiz-adv-x="644" unicode="ċ"/><glyph d="M568 202c-24 -128 -116 -208 -242 -208c-68 0 -131 26 -178 73c-65 65 -66 129 -66 289c0 161 1 224 66 289c47 47 110 73 178 73c128 0 218 -80 242 -208h-55c-21 99 -91 160 -187 160c-51 0 -99 -19 -135 -55c-51 -51 -55 -107 -55 -259s4 -208 55 -259 c36 -36 84 -55 135 -55c96 0 168 61 189 160h53zM349 780h-54l-123 147h57l93 -109l93 109h57z" glyph-name="Ccaron" horiz-adv-x="644" unicode="Č"/><glyph d="M568 202c-24 -128 -116 -208 -242 -208c-68 0 -131 26 -178 73c-65 65 -66 129 -66 289c0 161 1 224 66 289c47 47 110 73 178 73c128 0 218 -80 242 -208h-55c-21 99 -91 160 -187 160c-51 0 -99 -19 -135 -55c-51 -51 -55 -107 -55 -259s4 -208 55 -259 c36 -36 84 -55 135 -55c96 0 168 61 189 160h53zM349 780h-54l-123 147h57l93 -109l93 109h57z" glyph-name="ccaron" horiz-adv-x="644" unicode="č"/><glyph d="M596 366c0 -96 3 -229 -69 -301c-43 -43 -103 -65 -178 -65h-239v712h239c75 0 135 -22 178 -65c72 -72 69 -185 69 -281zM542 366c0 80 3 184 -53 243c-41 43 -96 55 -153 55h-172v-616h172c57 0 112 12 153 55c56 59 53 183 53 263zM366 780h-54l-123 147h57l93 -109 l93 109h57z" glyph-name="Dcaron" horiz-adv-x="678" unicode="Ď"/><glyph d="M110 48h226c57 0 112 12 153 55c56 59 53 183 53 263s3 184 -53 243c-41 43 -96 55 -153 55h-226v48h239c75 0 135 -22 178 -65c72 -72 69 -185 69 -281s3 -229 -69 -301c-43 -43 -103 -65 -178 -65h-239v48zM366 780h-54l-123 147h57l93 -109l93 109h57z" glyph-name="dcaron" horiz-adv-x="678" unicode="ď"/><glyph d="M607 356c0 -174 -9 -197 -38 -243c-40 -63 -111 -113 -215 -113h-233v338h-81v42h81v332h240c92 0 164 -40 208 -115c33 -57 38 -78 38 -241zM553 351c0 137 -1 182 -40 235c-43 58 -94 79 -166 79h-172v-285h178v-42h-178v-291h172c75 0 135 26 172 81 c33 49 34 81 34 223z" glyph-name="Dcroat" horiz-adv-x="689" unicode="Đ"/><glyph d="M40 380h313v-42h-313v42zM110 48h226c57 0 112 12 153 55c56 59 53 183 53 263s3 184 -53 243c-41 43 -96 55 -153 55h-226v48h239c75 0 135 -22 178 -65c72 -72 69 -185 69 -281s3 -229 -69 -301c-43 -43 -103 -65 -178 -65h-239v48z" glyph-name="dcroat" horiz-adv-x="678" unicode="đ"/><glyph d="M110 0v712h432v-48h-378v-281h322v-48h-322v-287h378v-48h-432zM166 800v46h296v-46h-296z" glyph-name="Emacron" horiz-adv-x="598" unicode="Ē"/><glyph d="M109 335v49h377v-49h-377zM109 0v49h432v-49h-432zM109 664v49h432v-49h-432zM166 800v46h296v-46h-296z" glyph-name="emacron" horiz-adv-x="598" unicode="ē"/><glyph d="M110 0v712h432v-48h-378v-281h322v-48h-322v-287h378v-48h-432zM283 800v63h62v-63h-62z" glyph-name="Edotaccent" horiz-adv-x="598" unicode="Ė"/><glyph d="M109 335v49h377v-49h-377zM109 0v49h432v-49h-432zM109 664v49h432v-49h-432zM283 800v63h62v-63h-62z" glyph-name="edotaccent" horiz-adv-x="598" unicode="ė"/><glyph d="M110 0v712h432v-48h-378v-281h322v-48h-322v-287h378v-48h-432zM478 -220h-63l72 150h55z" glyph-name="Eogonek" horiz-adv-x="598" unicode="Ę"/><glyph d="M109 335v49h377v-49h-377zM109 0v49h432v-49h-432zM109 664v49h432v-49h-432zM478 -220h-63l72 150h55z" glyph-name="eogonek" horiz-adv-x="598" unicode="ę"/><glyph d="M110 0v712h432v-48h-378v-281h322v-48h-322v-287h378v-48h-432zM341 780h-54l-123 147h57l93 -109l93 109h57z" glyph-name="Ecaron" horiz-adv-x="598" unicode="Ě"/><glyph d="M109 335v49h377v-49h-377zM109 0v49h432v-49h-432zM109 664v49h432v-49h-432zM341 780h-54l-123 147h57l93 -109l93 109h57z" glyph-name="ecaron" horiz-adv-x="598" unicode="ě"/><glyph d="M571 248c0 -75 -15 -127 -58 -172c-47 -52 -115 -82 -187 -82c-68 0 -131 26 -178 73c-65 65 -66 129 -66 289c0 161 1 224 66 289c47 47 110 73 178 73c124 0 222 -83 243 -208h-54c-21 99 -93 160 -189 160c-51 0 -99 -19 -135 -55c-51 -51 -55 -107 -55 -259 s4 -208 55 -259c36 -36 84 -55 135 -55c56 0 111 24 148 69c31 39 43 80 43 141v64h-191v48h245v-116zM419 780l-93 109l-93 -109h-57l123 147h54l123 -147h-57z" glyph-name="Gcircumflex" horiz-adv-x="651" unicode="Ĝ"/><glyph d="M571 248c0 -75 -15 -127 -58 -172c-47 -52 -115 -82 -187 -82c-68 0 -131 26 -178 73c-65 65 -66 129 -66 289c0 161 1 224 66 289c47 47 110 73 178 73c124 0 222 -83 243 -208h-54c-21 99 -93 160 -189 160c-51 0 -99 -19 -135 -55c-51 -51 -55 -107 -55 -259 s4 -208 55 -259c36 -36 84 -55 135 -55c56 0 111 24 148 69c31 39 43 80 43 141v64h-191v48h245v-116zM419 780l-93 109l-93 -109h-57l123 147h54l123 -147h-57z" glyph-name="gcircumflex" horiz-adv-x="651" unicode="ĝ"/><glyph d="M571 248c0 -75 -15 -127 -58 -172c-47 -52 -115 -82 -187 -82c-68 0 -131 26 -178 73c-65 65 -66 129 -66 289c0 161 1 224 66 289c47 47 110 73 178 73c124 0 222 -83 243 -208h-54c-21 99 -93 160 -189 160c-51 0 -99 -19 -135 -55c-51 -51 -55 -107 -55 -259 s4 -208 55 -259c36 -36 84 -55 135 -55c56 0 111 24 148 69c31 39 43 80 43 141v64h-191v48h245v-116zM488 927c-9 -85 -57 -135 -165 -135s-156 50 -165 135h45c8 -56 51 -90 120 -90s112 34 120 90h45z" glyph-name="Gbreve" horiz-adv-x="651" unicode="Ğ"/><glyph d="M571 248c0 -75 -15 -127 -58 -172c-47 -52 -115 -82 -187 -82c-68 0 -131 26 -178 73c-65 65 -66 129 -66 289c0 161 1 224 66 289c47 47 110 73 178 73c124 0 222 -83 243 -208h-54c-21 99 -93 160 -189 160c-51 0 -99 -19 -135 -55c-51 -51 -55 -107 -55 -259 s4 -208 55 -259c36 -36 84 -55 135 -55c56 0 111 24 148 69c31 39 43 80 43 141v64h-191v48h245v-116zM488 927c-9 -85 -57 -135 -165 -135s-156 50 -165 135h45c8 -56 51 -90 120 -90s112 34 120 90h45z" glyph-name="gbreve" horiz-adv-x="651" unicode="ğ"/><glyph d="M571 248c0 -75 -15 -127 -58 -172c-47 -52 -115 -82 -187 -82c-68 0 -131 26 -178 73c-65 65 -66 129 -66 289c0 161 1 224 66 289c47 47 110 73 178 73c124 0 222 -83 243 -208h-54c-21 99 -93 160 -189 160c-51 0 -99 -19 -135 -55c-51 -51 -55 -107 -55 -259 s4 -208 55 -259c36 -36 84 -55 135 -55c56 0 111 24 148 69c31 39 43 80 43 141v64h-191v48h245v-116zM295 800v63h62v-63h-62z" glyph-name="Gdotaccent" horiz-adv-x="651" unicode="Ġ"/><glyph d="M571 248c0 -75 -15 -127 -58 -172c-47 -52 -115 -82 -187 -82c-68 0 -131 26 -178 73c-65 65 -66 129 -66 289c0 161 1 224 66 289c47 47 110 73 178 73c124 0 222 -83 243 -208h-54c-21 99 -93 160 -189 160c-51 0 -99 -19 -135 -55c-51 -51 -55 -107 -55 -259 s4 -208 55 -259c36 -36 84 -55 135 -55c56 0 111 24 148 69c31 39 43 80 43 141v64h-191v48h245v-116zM295 800v63h62v-63h-62z" glyph-name="gdotaccent" horiz-adv-x="651" unicode="ġ"/><glyph d="M571 248c0 -75 -15 -127 -58 -172c-47 -52 -115 -82 -187 -82c-68 0 -131 26 -178 73c-65 65 -66 129 -66 289c0 161 1 224 66 289c47 47 110 73 178 73c124 0 222 -83 243 -208h-54c-21 99 -93 160 -189 160c-51 0 -99 -19 -135 -55c-51 -51 -55 -107 -55 -259 s4 -208 55 -259c36 -36 84 -55 135 -55c56 0 111 24 148 69c31 39 43 80 43 141v64h-191v48h245v-116zM358 -70l-64 -150h-63l72 150h55z" glyph-name="Gcommaaccent" horiz-adv-x="651" unicode="Ģ"/><glyph d="M571 248c0 -75 -15 -127 -58 -172c-47 -52 -115 -82 -187 -82c-68 0 -131 26 -178 73c-65 65 -66 129 -66 289c0 161 1 224 66 289c47 47 110 73 178 73c124 0 222 -83 243 -208h-54c-21 99 -93 160 -189 160c-51 0 -99 -19 -135 -55c-51 -51 -55 -107 -55 -259 s4 -208 55 -259c36 -36 84 -55 135 -55c56 0 111 24 148 69c31 39 43 80 43 141v64h-191v48h245v-116zM358 -70l-64 -150h-63l72 150h55z" glyph-name="gcommaaccent" horiz-adv-x="651" unicode="ģ"/><glyph d="M535 0v335h-371v-335h-54v712h54v-329h371v329h54v-712h-54zM443 780l-93 109l-93 -109h-57l123 147h54l123 -147h-57z" glyph-name="Hcircumflex" horiz-adv-x="699" unicode="Ĥ"/><glyph d="M164 0h-54v712h54v-712zM535 712h54v-712h-54v712zM443 780l-93 109l-93 -109h-57l123 147h54l123 -147h-57z" glyph-name="hcircumflex" horiz-adv-x="699" unicode="ĥ"/><glyph d="M671 517h-76v-517h-54v335h-371v-335h-54v517h-76v42h76v153h54v-153h371v153h54v-153h76v-42zM541 383v134h-371v-134h371z" glyph-name="Hbar" horiz-adv-x="711" unicode="Ħ"/><glyph d="M38 561h634v-45h-634v45zM170 0h-54v712h54v-712zM541 712h54v-712h-54v712z" glyph-name="hbar" horiz-adv-x="699" unicode="ħ"/><glyph d="M110 0v712h54v-712h-54zM-11 800v46h296v-46h-296z" glyph-name="Imacron" horiz-adv-x="274" unicode="Ī"/><glyph d="M110 0v712h54v-712h-54zM-11 800v46h296v-46h-296z" glyph-name="imacron" horiz-adv-x="274" unicode="ī"/><glyph d="M110 0v712h54v-712h-54zM101 -220h-63l72 150h55z" glyph-name="Iogonek" horiz-adv-x="274" unicode="Į"/><glyph d="M110 0v712h54v-712h-54zM101 -220h-63l72 150h55z" glyph-name="iogonek" horiz-adv-x="274" unicode="į"/><glyph d="M110 0v712h54v-712h-54zM106 800v63h62v-63h-62z" glyph-name="Idotaccent" horiz-adv-x="274" unicode="İ"/><glyph d="M110 0v712h54v-712h-54zM106 800v63h62v-63h-62z" glyph-name="dotlessi" horiz-adv-x="274" unicode="ı"/><glyph d="M398 210c0 -130 -83 -216 -212 -216c-63 0 -115 20 -156 61l37 37c27 -27 56 -50 119 -50c103 0 158 64 158 179v491h54v-502zM464 780l-93 109l-93 -109h-57l123 147h54l123 -147h-57z" glyph-name="Jcircumflex" horiz-adv-x="498" unicode="Ĵ"/><glyph d="M398 210c0 -130 -83 -216 -212 -216c-63 0 -115 20 -156 61l37 37c27 -27 56 -50 119 -50c103 0 158 64 158 179v491h54v-502zM464 780l-93 109l-93 -109h-57l123 147h54l123 -147h-57z" glyph-name="jcircumflex" horiz-adv-x="498" unicode="ĵ"/><glyph d="M563 0l-229 399l-170 -206v-193h-54v712h54v-445l361 445h65l-220 -272l257 -440h-64zM381 -70l-64 -150h-63l72 150h55z" glyph-name="Kcommaaccent" horiz-adv-x="645" unicode="Ķ"/><glyph d="M563 0l-229 399l-170 -206v-193h-54v712h54v-445l361 445h65l-220 -272l257 -440h-64zM381 -70l-64 -150h-63l72 150h55z" glyph-name="kcommaaccent" horiz-adv-x="645" unicode="ķ"/><glyph d="M110 0v712h54v-664h378v-48h-432zM199 780h-58l97 147h67z" glyph-name="Lacute" horiz-adv-x="572" unicode="Ĺ"/><glyph d="M110 0v712h54v-664h378v-48h-432zM199 780h-58l97 147h67z" glyph-name="lacute" horiz-adv-x="572" unicode="ĺ"/><glyph d="M110 0v712h54v-664h378v-48h-432zM344 -70l-64 -150h-63l72 150h55z" glyph-name="Lcommaaccent" horiz-adv-x="572" unicode="Ļ"/><glyph d="M110 0v712h54v-664h378v-48h-432zM344 -70l-64 -150h-63l72 150h55z" glyph-name="lcommaaccent" horiz-adv-x="572" unicode="ļ"/><glyph d="M110 0v712h54v-664h378v-48h-432zM382 712l-48 -148h-47l40 148h55z" glyph-name="Lcaron" horiz-adv-x="572" unicode="Ľ"/><glyph d="M110 0v712h54v-664h378v-48h-432zM382 712l-48 -148h-47l40 148h55z" glyph-name="lcaron" horiz-adv-x="572" unicode="ľ"/><glyph d="M116 0v306l-76 -48v48l76 48v358h54v-324l164 104v-48l-164 -104v-292h378v-48h-432z" glyph-name="Lslash" horiz-adv-x="578" unicode="Ł"/><glyph d="M116 0v306l-76 -48v48l76 48v358h54v-324l164 104v-48l-164 -104v-292h378v-48h-432z" glyph-name="lslash" horiz-adv-x="578" unicode="ł"/><glyph d="M575 0l-411 619v-619h-54v712h54l411 -617v617h54v-712h-54zM380 780h-58l97 147h67z" glyph-name="Nacute" horiz-adv-x="739" unicode="Ń"/><glyph d="M575 0l-411 619v-619h-54v712h54l411 -617v617h54v-712h-54zM380 780h-58l97 147h67z" glyph-name="nacute" horiz-adv-x="739" unicode="ń"/><glyph d="M575 0l-411 619v-619h-54v712h54l411 -617v617h54v-712h-54zM417 -70l-64 -150h-63l72 150h55z" glyph-name="Ncommaaccent" horiz-adv-x="739" unicode="Ņ"/><glyph d="M575 0l-411 619v-619h-54v712h54l411 -617v617h54v-712h-54zM417 -70l-64 -150h-63l72 150h55z" glyph-name="ncommaaccent" horiz-adv-x="739" unicode="ņ"/><glyph d="M575 0l-411 619v-619h-54v712h54l411 -617v617h54v-712h-54zM396 780h-54l-123 147h57l93 -109l93 109h57z" glyph-name="Ncaron" horiz-adv-x="739" unicode="Ň"/><glyph d="M575 0l-411 619v-619h-54v712h54l411 -617v617h54v-712h-54zM396 780h-54l-123 147h57l93 -109l93 109h57z" glyph-name="ncaron" horiz-adv-x="739" unicode="ň"/><glyph d="M570 356c0 -160 -1 -224 -66 -289c-47 -47 -110 -73 -178 -73s-131 26 -178 73c-65 65 -66 129 -66 289c0 161 1 224 66 289c47 47 110 73 178 73s131 -26 178 -73c65 -65 66 -128 66 -289zM516 356c0 152 -4 208 -55 259c-36 36 -84 55 -135 55s-99 -19 -135 -55 c-51 -51 -55 -107 -55 -259s4 -208 55 -259c36 -36 84 -55 135 -55s99 19 135 55c51 51 55 107 55 259zM178 800v46h296v-46h-296z" glyph-name="Omacron" horiz-adv-x="652" unicode="Ō"/><glyph d="M570 356c0 -160 -1 -224 -66 -289c-47 -47 -110 -73 -178 -73s-131 26 -178 73c-65 65 -66 129 -66 289c0 161 1 224 66 289c47 47 110 73 178 73s131 -26 178 -73c65 -65 66 -128 66 -289zM516 356c0 152 -4 208 -55 259c-36 36 -84 55 -135 55s-99 -19 -135 -55 c-51 -51 -55 -107 -55 -259s4 -208 55 -259c36 -36 84 -55 135 -55s99 19 135 55c51 51 55 107 55 259zM178 800v46h296v-46h-296z" glyph-name="omacron" horiz-adv-x="652" unicode="ō"/><glyph d="M570 356c0 -160 -1 -224 -66 -289c-47 -47 -110 -73 -178 -73s-131 26 -178 73c-65 65 -66 129 -66 289c0 161 1 224 66 289c47 47 110 73 178 73s131 -26 178 -73c65 -65 66 -128 66 -289zM516 356c0 152 -4 208 -55 259c-36 36 -84 55 -135 55s-99 -19 -135 -55 c-51 -51 -55 -107 -55 -259s4 -208 55 -259c36 -36 84 -55 135 -55s99 19 135 55c51 51 55 107 55 259zM370 927l-106 -147h-58l97 147h67zM517 927l-107 -147h-57l97 147h67z" glyph-name="Ohungarumlaut" horiz-adv-x="652" unicode="Ő"/><glyph d="M570 356c0 -160 -1 -224 -66 -289c-47 -47 -110 -73 -178 -73s-131 26 -178 73c-65 65 -66 129 -66 289c0 161 1 224 66 289c47 47 110 73 178 73s131 -26 178 -73c65 -65 66 -128 66 -289zM516 356c0 152 -4 208 -55 259c-36 36 -84 55 -135 55s-99 -19 -135 -55 c-51 -51 -55 -107 -55 -259s4 -208 55 -259c36 -36 84 -55 135 -55s99 19 135 55c51 51 55 107 55 259zM370 927l-106 -147h-58l97 147h67zM517 927l-107 -147h-57l97 147h67z" glyph-name="ohungarumlaut" horiz-adv-x="652" unicode="ő"/><glyph d="M516 0v85c-48 -60 -117 -91 -190 -91c-68 0 -131 26 -178 73c-65 65 -66 129 -66 289c0 161 1 224 66 289c47 47 110 73 178 73c78 0 141 -30 190 -91v85h422v-47h-369c0 -96 1 -189 1 -285h313v-42h-313c0 -97 -1 -194 -1 -291h372v-47h-425zM516 356 c0 152 -4 208 -55 259c-36 36 -84 55 -135 55s-99 -19 -135 -55c-51 -51 -55 -107 -55 -259s4 -208 55 -259c36 -36 84 -55 135 -55s99 19 135 55c51 51 55 107 55 259z" glyph-name="OE" horiz-adv-x="997" unicode="Œ"/><glyph d="M516 0v85c-48 -60 -117 -91 -190 -91c-68 0 -131 26 -178 73c-65 65 -66 129 -66 289c0 161 1 224 66 289c47 47 110 73 178 73c78 0 141 -30 190 -91v85h422v-47h-369c0 -96 1 -189 1 -285h313v-42h-313c0 -97 -1 -194 -1 -291h372v-47h-425zM516 356 c0 152 -4 208 -55 259c-36 36 -84 55 -135 55s-99 -19 -135 -55c-51 -51 -55 -107 -55 -259s4 -208 55 -259c36 -36 84 -55 135 -55s99 19 135 55c51 51 55 107 55 259z" glyph-name="oe" horiz-adv-x="997" unicode="œ"/><glyph d="M530 0l-170 328h-196v-328h-54v712h271c116 0 204 -67 204 -191c0 -107 -64 -175 -164 -192l172 -329h-63zM531 520c0 99 -65 144 -157 144h-210v-288h210c92 0 157 45 157 144zM339 780h-58l97 147h67z" glyph-name="Racute" horiz-adv-x="657" unicode="Ŕ"/><glyph d="M109 376h265c92 0 157 45 157 144s-65 144 -157 144h-265l1 48h271c116 0 204 -67 204 -191c0 -107 -64 -175 -164 -192l172 -329h-63l-170 328h-196v-328h-54zM339 780h-58l97 147h67z" glyph-name="racute" horiz-adv-x="657" unicode="ŕ"/><glyph d="M530 0l-170 328h-196v-328h-54v712h271c116 0 204 -67 204 -191c0 -107 -64 -175 -164 -192l172 -329h-63zM531 520c0 99 -65 144 -157 144h-210v-288h210c92 0 157 45 157 144zM385 -70l-64 -150h-63l72 150h55z" glyph-name="Rcommaaccent" horiz-adv-x="657" unicode="Ŗ"/><glyph d="M109 376h265c92 0 157 45 157 144s-65 144 -157 144h-265l1 48h271c116 0 204 -67 204 -191c0 -107 -64 -175 -164 -192l172 -329h-63l-170 328h-196v-328h-54zM385 -70l-64 -150h-63l72 150h55z" glyph-name="rcommaaccent" horiz-adv-x="657" unicode="ŗ"/><glyph d="M530 0l-170 328h-196v-328h-54v712h271c116 0 204 -67 204 -191c0 -107 -64 -175 -164 -192l172 -329h-63zM531 520c0 99 -65 144 -157 144h-210v-288h210c92 0 157 45 157 144zM355 780h-54l-123 147h57l93 -109l93 109h57z" glyph-name="Rcaron" horiz-adv-x="657" unicode="Ř"/><glyph d="M109 376h265c92 0 157 45 157 144s-65 144 -157 144h-265l1 48h271c116 0 204 -67 204 -191c0 -107 -64 -175 -164 -192l172 -329h-63l-170 328h-196v-328h-54zM355 780h-54l-123 147h57l93 -109l93 109h57z" glyph-name="rcaron" horiz-adv-x="657" unicode="ř"/><glyph d="M528 191c0 -121 -91 -197 -240 -197c-105 0 -172 29 -237 94l38 38c64 -64 117 -84 202 -84c113 0 183 54 183 147c0 43 -12 77 -39 100c-27 21 -44 30 -103 38l-83 13c-54 8 -96 25 -127 52c-37 31 -56 75 -56 131c0 120 84 195 221 195c88 0 144 -24 205 -77l-35 -35 c-42 40 -89 66 -173 66c-104 0 -165 -56 -165 -147c0 -41 12 -72 37 -93s66 -37 106 -44l77 -12c67 -9 98 -22 127 -47c39 -32 62 -81 62 -138zM304 780h-58l97 147h67z" glyph-name="Sacute" horiz-adv-x="587" unicode="Ś"/><glyph d="M528 191c0 -121 -91 -197 -240 -197c-105 0 -172 29 -237 94l38 38c64 -64 117 -84 202 -84c113 0 183 54 183 147c0 43 -12 77 -39 100c-27 21 -44 30 -103 38l-83 13c-54 8 -96 25 -127 52c-37 31 -56 75 -56 131c0 120 84 195 221 195c88 0 144 -24 205 -77l-35 -35 c-42 40 -89 66 -173 66c-104 0 -165 -56 -165 -147c0 -41 12 -72 37 -93s66 -37 106 -44l77 -12c67 -9 98 -22 127 -47c39 -32 62 -81 62 -138zM304 780h-58l97 147h67z" glyph-name="sacute" horiz-adv-x="587" unicode="ś"/><glyph d="M528 191c0 -121 -91 -197 -240 -197c-105 0 -172 29 -237 94l38 38c64 -64 117 -84 202 -84c113 0 183 54 183 147c0 43 -12 77 -39 100c-27 21 -44 30 -103 38l-83 13c-54 8 -96 25 -127 52c-37 31 -56 75 -56 131c0 120 84 195 221 195c88 0 144 -24 205 -77l-35 -35 c-42 40 -89 66 -173 66c-104 0 -165 -56 -165 -147c0 -41 12 -72 37 -93s66 -37 106 -44l77 -12c67 -9 98 -22 127 -47c39 -32 62 -81 62 -138zM384 780l-93 109l-93 -109h-57l123 147h54l123 -147h-57z" glyph-name="Scircumflex" horiz-adv-x="587" unicode="Ŝ"/><glyph d="M528 191c0 -121 -91 -197 -240 -197c-105 0 -172 29 -237 94l38 38c64 -64 117 -84 202 -84c113 0 183 54 183 147c0 43 -12 77 -39 100c-27 21 -44 30 -103 38l-83 13c-54 8 -96 25 -127 52c-37 31 -56 75 -56 131c0 120 84 195 221 195c88 0 144 -24 205 -77l-35 -35 c-42 40 -89 66 -173 66c-104 0 -165 -56 -165 -147c0 -41 12 -72 37 -93s66 -37 106 -44l77 -12c67 -9 98 -22 127 -47c39 -32 62 -81 62 -138zM384 780l-93 109l-93 -109h-57l123 147h54l123 -147h-57z" glyph-name="scircumflex" horiz-adv-x="587" unicode="ŝ"/><glyph d="M528 191c0 -121 -91 -197 -240 -197c-105 0 -172 29 -237 94l38 38c64 -64 117 -84 202 -84c113 0 183 54 183 147c0 43 -12 77 -39 100c-27 21 -44 30 -103 38l-83 13c-54 8 -96 25 -127 52c-37 31 -56 75 -56 131c0 120 84 195 221 195c88 0 144 -24 205 -77l-35 -35 c-42 40 -89 66 -173 66c-104 0 -165 -56 -165 -147c0 -41 12 -72 37 -93s66 -37 106 -44l77 -12c67 -9 98 -22 127 -47c39 -32 62 -81 62 -138zM256 -220h-63l72 150h55z" glyph-name="Scedilla" horiz-adv-x="587" unicode="Ş"/><glyph d="M528 191c0 -121 -91 -197 -240 -197c-105 0 -172 29 -237 94l38 38c64 -64 117 -84 202 -84c113 0 183 54 183 147c0 43 -12 77 -39 100c-27 21 -44 30 -103 38l-83 13c-54 8 -96 25 -127 52c-37 31 -56 75 -56 131c0 120 84 195 221 195c88 0 144 -24 205 -77l-35 -35 c-42 40 -89 66 -173 66c-104 0 -165 -56 -165 -147c0 -41 12 -72 37 -93s66 -37 106 -44l77 -12c67 -9 98 -22 127 -47c39 -32 62 -81 62 -138zM256 -220h-63l72 150h55z" glyph-name="scedilla" horiz-adv-x="587" unicode="ş"/><glyph d="M528 191c0 -121 -91 -197 -240 -197c-105 0 -172 29 -237 94l38 38c64 -64 117 -84 202 -84c113 0 183 54 183 147c0 43 -12 77 -39 100c-27 21 -44 30 -103 38l-83 13c-54 8 -96 25 -127 52c-37 31 -56 75 -56 131c0 120 84 195 221 195c88 0 144 -24 205 -77l-35 -35 c-42 40 -89 66 -173 66c-104 0 -165 -56 -165 -147c0 -41 12 -72 37 -93s66 -37 106 -44l77 -12c67 -9 98 -22 127 -47c39 -32 62 -81 62 -138zM314 780h-54l-123 147h57l93 -109l93 109h57z" glyph-name="Scaron" horiz-adv-x="587" unicode="Š"/><glyph d="M528 191c0 -121 -91 -197 -240 -197c-105 0 -172 29 -237 94l38 38c64 -64 117 -84 202 -84c113 0 183 54 183 147c0 43 -12 77 -39 100c-27 21 -44 30 -103 38l-83 13c-54 8 -96 25 -127 52c-37 31 -56 75 -56 131c0 120 84 195 221 195c88 0 144 -24 205 -77l-35 -35 c-42 40 -89 66 -173 66c-104 0 -165 -56 -165 -147c0 -41 12 -72 37 -93s66 -37 106 -44l77 -12c67 -9 98 -22 127 -47c39 -32 62 -81 62 -138zM314 780h-54l-123 147h57l93 -109l93 109h57z" glyph-name="scaron" horiz-adv-x="587" unicode="š"/><glyph d="M296 664v-664h-54v664h-212v48h479v-48h-213zM327 -70l-64 -150h-63l72 150h55z" glyph-name="Tcommaaccent" horiz-adv-x="539" unicode="Ţ"/><glyph d="M296 664v-664h-54v664h-212v48h479v-48h-213zM327 -70l-64 -150h-63l72 150h55z" glyph-name="tcommaaccent" horiz-adv-x="539" unicode="ţ"/><glyph d="M296 664v-664h-54v664h-212v48h479v-48h-213zM296 780h-54l-123 147h57l93 -109l93 109h57z" glyph-name="Tcaron" horiz-adv-x="539" unicode="Ť"/><glyph d="M296 664v-664h-54v664h-212v48h479v-48h-213zM296 780h-54l-123 147h57l93 -109l93 109h57z" glyph-name="tcaron" horiz-adv-x="539" unicode="ť"/><glyph d="M588 231c0 -139 -101 -237 -244 -237s-244 98 -244 237v481h54v-474c0 -118 75 -196 190 -196s190 78 190 196v474h54v-481zM196 800v46h296v-46h-296z" glyph-name="Umacron" horiz-adv-x="688" unicode="Ū"/><glyph d="M588 231c0 -139 -101 -237 -244 -237s-244 98 -244 237v481h54v-474c0 -118 75 -196 190 -196s190 78 190 196v474h54v-481zM196 800v46h296v-46h-296z" glyph-name="umacron" horiz-adv-x="688" unicode="ū"/><glyph d="M588 231c0 -139 -101 -237 -244 -237s-244 98 -244 237v481h54v-474c0 -118 75 -196 190 -196s190 78 190 196v474h54v-481zM509 927c-9 -85 -57 -135 -165 -135s-156 50 -165 135h45c8 -56 51 -90 120 -90s112 34 120 90h45z" glyph-name="Ubreve" horiz-adv-x="688" unicode="Ŭ"/><glyph d="M588 231c0 -139 -101 -237 -244 -237s-244 98 -244 237v481h54v-474c0 -118 75 -196 190 -196s190 78 190 196v474h54v-481zM509 927c-9 -85 -57 -135 -165 -135s-156 50 -165 135h45c8 -56 51 -90 120 -90s112 34 120 90h45z" glyph-name="ubreve" horiz-adv-x="688" unicode="ŭ"/><glyph d="M588 231c0 -139 -101 -237 -244 -237s-244 98 -244 237v481h54v-474c0 -118 75 -196 190 -196s190 78 190 196v474h54v-481zM458 867c0 -63 -51 -115 -114 -115s-114 52 -114 115s51 114 114 114s114 -51 114 -114zM417 867c0 40 -33 72 -73 72s-73 -32 -73 -72 s33 -73 73 -73s73 33 73 73z" glyph-name="Uring" horiz-adv-x="688" unicode="Ů"/><glyph d="M588 231c0 -139 -101 -237 -244 -237s-244 98 -244 237v481h54v-474c0 -118 75 -196 190 -196s190 78 190 196v474h54v-481zM458 867c0 -63 -51 -115 -114 -115s-114 52 -114 115s51 114 114 114s114 -51 114 -114zM417 867c0 40 -33 72 -73 72s-73 -32 -73 -72 s33 -73 73 -73s73 33 73 73z" glyph-name="uring" horiz-adv-x="688" unicode="ů"/><glyph d="M588 231c0 -139 -101 -237 -244 -237s-244 98 -244 237v481h54v-474c0 -118 75 -196 190 -196s190 78 190 196v474h54v-481zM388 927l-106 -147h-58l97 147h67zM535 927l-107 -147h-57l97 147h67z" glyph-name="Uhungarumlaut" horiz-adv-x="688" unicode="Ű"/><glyph d="M588 231c0 -139 -101 -237 -244 -237s-244 98 -244 237v481h54v-474c0 -118 75 -196 190 -196s190 78 190 196v474h54v-481zM388 927l-106 -147h-58l97 147h67zM535 927l-107 -147h-57l97 147h67z" glyph-name="uhungarumlaut" horiz-adv-x="688" unicode="ű"/><glyph d="M588 231c0 -139 -101 -237 -244 -237s-244 98 -244 237v481h54v-474c0 -118 75 -196 190 -196s190 78 190 196v474h54v-481zM420 -220h-63l72 150h55z" glyph-name="Uogonek" horiz-adv-x="688" unicode="Ų"/><glyph d="M588 231c0 -139 -101 -237 -244 -237s-244 98 -244 237v481h54v-474c0 -118 75 -196 190 -196s190 78 190 196v474h54v-481zM420 -220h-63l72 150h55z" glyph-name="uogonek" horiz-adv-x="688" unicode="ų"/><glyph d="M274 295v-295h-54v295l-210 417h58l181 -360l177 360h58zM114 790v77h58v-77h-58zM322 790v77h58v-77h-58z" glyph-name="Ydieresis" horiz-adv-x="494" unicode="Ÿ"/><glyph d="M63 0v57l375 607h-360v48h418v-48l-378 -616h378v-48h-433zM290 780h-58l97 147h67z" glyph-name="Zacute" horiz-adv-x="559" unicode="Ź"/><glyph d="M63 0v57l375 607h-360v48h418v-48l-378 -616h378v-48h-433zM290 780h-58l97 147h67z" glyph-name="zacute" horiz-adv-x="559" unicode="ź"/><glyph d="M63 0v57l375 607h-360v48h418v-48l-378 -616h378v-48h-433zM248 800v63h62v-63h-62z" glyph-name="Zdotaccent" horiz-adv-x="559" unicode="Ż"/><glyph d="M63 0v57l375 607h-360v48h418v-48l-378 -616h378v-48h-433zM248 800v63h62v-63h-62z" glyph-name="zdotaccent" horiz-adv-x="559" unicode="ż"/><glyph d="M63 0v57l375 607h-360v48h418v-48l-378 -616h378v-48h-433zM314 780h-54l-123 147h57l93 -109l93 109h57z" glyph-name="Zcaron" horiz-adv-x="559" unicode="Ž"/><glyph d="M63 0v57l375 607h-360v48h418v-48l-378 -616h378v-48h-433zM314 780h-54l-123 147h57l93 -109l93 109h57z" glyph-name="zcaron" horiz-adv-x="559" unicode="ž"/><glyph d="M321 667c-51 0 -79 -29 -88 -80l-36 -207h109v-38h-116l-101 -572h-51l101 572h-109v38h116l36 206c13 73 62 126 138 126h44v-45h-43z" glyph-name="florin" horiz-adv-x="394" unicode="ƒ"/><glyph d="M528 191c0 -121 -91 -197 -240 -197c-105 0 -172 29 -237 94l38 38c64 -64 117 -84 202 -84c113 0 183 54 183 147c0 43 -12 77 -39 100c-27 21 -44 30 -103 38l-83 13c-54 8 -96 25 -127 52c-37 31 -56 75 -56 131c0 120 84 195 221 195c88 0 144 -24 205 -77l-35 -35 c-42 40 -89 66 -173 66c-104 0 -165 -56 -165 -147c0 -41 12 -72 37 -93s66 -37 106 -44l77 -12c67 -9 98 -22 127 -47c39 -32 62 -81 62 -138zM320 -70l-64 -150h-63l72 150h55z" glyph-name="Scommaaccent" horiz-adv-x="587" unicode="Ș"/><glyph d="M528 191c0 -121 -91 -197 -240 -197c-105 0 -172 29 -237 94l38 38c64 -64 117 -84 202 -84c113 0 183 54 183 147c0 43 -12 77 -39 100c-27 21 -44 30 -103 38l-83 13c-54 8 -96 25 -127 52c-37 31 -56 75 -56 131c0 120 84 195 221 195c88 0 144 -24 205 -77l-35 -35 c-42 40 -89 66 -173 66c-104 0 -165 -56 -165 -147c0 -41 12 -72 37 -93s66 -37 106 -44l77 -12c67 -9 98 -22 127 -47c39 -32 62 -81 62 -138zM320 -70l-64 -150h-63l72 150h55z" glyph-name="scommaaccent" horiz-adv-x="587" unicode="ș"/><glyph d="M296 664v-664h-54v664h-212v48h479v-48h-213zM327 -70l-64 -150h-63l72 150h55z" glyph-name="uni021A" horiz-adv-x="539" unicode="Ț"/><glyph d="M296 664v-664h-54v664h-212v48h479v-48h-213zM327 -70l-64 -150h-63l72 150h55z" glyph-name="uni021B" horiz-adv-x="539" unicode="ț"/><glyph d="M148 -105c0 -76 -37 -125 -116 -125h-44v45h35c57 0 74 26 74 81v586h51v-587z" glyph-name="dotlessj" horiz-adv-x="245" unicode="ȷ"/><glyph d="M343 590l-93 109l-93 -109h-57l123 147h54l123 -147h-57z" glyph-name="circumflex" horiz-adv-x="500" unicode="ˆ"/><glyph d="M277 590h-54l-123 147h57l93 -109l93 109h57z" glyph-name="caron" horiz-adv-x="500" unicode="ˇ"/><glyph d="M415 722c-9 -85 -57 -135 -165 -135s-156 50 -165 135h45c8 -56 51 -90 120 -90s112 34 120 90h45z" glyph-name="breve" horiz-adv-x="500" unicode="˘"/><glyph d="M281 610h-62v63h62v-63z" glyph-name="dotaccent" horiz-adv-x="500" unicode="˙"/><glyph d="M364 677c0 -63 -51 -115 -114 -115s-114 52 -114 115s51 114 114 114s114 -51 114 -114zM323 677c0 40 -33 72 -73 72s-73 -32 -73 -72s33 -73 73 -73s73 33 73 73z" glyph-name="ring" horiz-adv-x="500" unicode="˚"/><glyph d="M291 -220h-63l72 150h55z" glyph-name="ogonek" horiz-adv-x="500" unicode="˛"/><glyph d="M399 653c-46 -46 -71 -48 -89 -48c-28 0 -46 11 -69 24c-19 11 -36 21 -56 21c-16 0 -28 -2 -59 -33l-30 29c46 46 70 48 89 48c29 0 45 -9 69 -24c21 -13 36 -21 56 -21c15 0 28 2 59 33z" glyph-name="tilde" horiz-adv-x="500" unicode="˜"/><glyph d="M294 737l-106 -147h-58l97 147h67zM441 737l-107 -147h-57l97 147h67z" glyph-name="hungarumlaut" horiz-adv-x="500" unicode="˝"/><glyph d="M159 615l-58 -33v130h58v-97z" glyph-name="tonos" horiz-adv-x="253" unicode="΄"/><glyph d="M383 600h-58v77h58v-77zM279 615l-58 -33v130h58v-97zM175 600h-58v77h58v-77z" glyph-name="dieresistonos" horiz-adv-x="500" unicode="΅"/><glyph d="M587 0h-58l-62 173h-332l-62 -173h-58l262 712h48zM450 221l-149 419l-149 -419h298zM68 615l-58 -33v130h58v-97z" glyph-name="Alphatonos" horiz-adv-x="602" unicode="Ά"/><glyph d="M169 227h-74v74h74v-74z" glyph-name="anoteleia" horiz-adv-x="264" unicode="·"/><glyph d="M542 0h-432v712h432v-48h-378v-281h322v-48h-322v-287h378v-48zM8 615l-58 -33v130h58v-97z" glyph-name="Epsilontonos" horiz-adv-x="598" unicode="Έ"/><glyph d="M589 0h-54v335h-371v-335h-54v712h54v-329h371v329h54v-712zM8 615l-58 -33v130h58v-97z" glyph-name="Etatonos" horiz-adv-x="699" unicode="Ή"/><glyph d="M164 0h-54v712h54v-712zM8 615l-58 -33v130h58v-97z" glyph-name="Iotatonos" horiz-adv-x="274" unicode="Ί"/><glyph d="M570 356c0 -160 -1 -224 -66 -289c-47 -47 -110 -73 -178 -73s-131 26 -178 73c-65 65 -66 129 -66 289c0 161 1 224 66 289c47 47 110 73 178 73s131 -26 178 -73c65 -65 66 -128 66 -289zM516 356c0 152 -4 208 -55 259c-36 36 -84 55 -135 55s-99 -19 -135 -55 c-51 -51 -55 -107 -55 -259s4 -208 55 -259c36 -36 84 -55 135 -55s99 19 135 55c51 51 55 107 55 259zM28 615l-58 -33v130h58v-97z" glyph-name="Omicrontonos" horiz-adv-x="652" unicode="Ό"/><glyph d="M484 712l-210 -417v-295h-54v295l-210 417h58l181 -360l177 360h58zM-12 615l-58 -33v130h58v-97z" glyph-name="Upsilontonos" horiz-adv-x="494" unicode="Ύ"/><glyph d="M570 0h-186v47c46 22 79 45 105 88c25 41 27 114 27 221c0 153 -4 208 -55 259c-36 36 -84 55 -135 55s-99 -19 -135 -55c-51 -51 -55 -106 -55 -259c0 -107 2 -180 27 -221c26 -43 59 -66 105 -88v-47h-186v47h91c-30 24 -48 45 -62 71c-32 59 -29 150 -29 238 c0 161 1 224 66 289c47 47 111 73 178 73s131 -26 178 -73c65 -65 66 -128 66 -289c0 -88 3 -179 -29 -238c-14 -26 -32 -47 -62 -71h91v-47zM28 615l-58 -33v130h58v-97z" glyph-name="Omegatonos" horiz-adv-x="652" unicode="Ώ"/><glyph d="M255 0h-44c-79 0 -116 49 -116 125v357h51v-356c0 -55 17 -81 74 -81h35v-45zM253 600h-58v77h58v-77zM149 615l-58 -33v130h58v-97zM45 600h-58v77h58v-77z" glyph-name="iotadieresistonos" horiz-adv-x="287" unicode="ΐ"/><glyph d="M587 0h-58l-62 173h-332l-62 -173h-58l262 712h48zM450 221l-149 419l-149 -419h298z" glyph-name="Alpha" horiz-adv-x="602" unicode="Α"/><glyph d="M589 194c0 -127 -84 -194 -209 -194h-270v712h262c118 0 206 -69 206 -186c0 -75 -42 -137 -111 -160c77 -27 122 -89 122 -172zM524 526c0 98 -72 138 -158 138h-202v-276h202c86 0 158 40 158 138zM535 194c0 92 -64 146 -161 146h-210v-292h210c97 0 161 54 161 146z" glyph-name="Beta" horiz-adv-x="671" unicode="Β"/><glyph d="M522 664h-358v-664h-54v712h412v-48z" glyph-name="Gamma" horiz-adv-x="538" unicode="Γ"/><glyph d="M581 0h-571l262 712h47zM511 48l-216 592l-215 -592h431z" glyph-name="Delta" horiz-adv-x="591" unicode="Δ"/><glyph d="M542 0h-432v712h432v-48h-378v-281h322v-48h-322v-287h378v-48z" glyph-name="Epsilon" horiz-adv-x="598" unicode="Ε"/><glyph d="M496 0h-433v57l375 607h-360v48h418v-48l-378 -616h378v-48z" glyph-name="Zeta" horiz-adv-x="559" unicode="Ζ"/><glyph d="M589 0h-54v335h-371v-335h-54v712h54v-329h371v329h54v-712z" glyph-name="Eta" horiz-adv-x="699" unicode="Η"/><glyph d="M570 356c0 -160 -1 -224 -66 -289c-47 -47 -110 -73 -178 -73s-131 26 -178 73c-65 65 -66 129 -66 289c0 161 1 224 66 289c47 47 110 73 178 73s131 -26 178 -73c65 -65 66 -128 66 -289zM516 383c-1 132 -7 184 -55 232c-36 36 -84 55 -135 55s-99 -19 -135 -55 c-48 -48 -54 -100 -55 -232h380zM516 335h-380c0 -136 6 -189 55 -238c36 -36 84 -55 135 -55s99 19 135 55c49 49 55 102 55 238z" glyph-name="Theta" horiz-adv-x="652" unicode="Θ"/><glyph d="M164 0h-54v712h54v-712z" glyph-name="Iota" horiz-adv-x="274" unicode="Ι"/><glyph d="M627 0h-64l-229 399l-170 -206v-193h-54v712h54v-445l361 445h65l-220 -272z" glyph-name="Kappa" horiz-adv-x="645" unicode="Κ"/><glyph d="M545 0h-57l-203 640l-203 -640h-57l234 712h52z" glyph-name="Lambda" horiz-adv-x="570" unicode="Λ"/><glyph d="M708 0h-54v587l-216 -487h-54l-220 487v-587h-54v712h54l248 -549l242 549h54v-712z" glyph-name="Mu" horiz-adv-x="818" unicode="Μ"/><glyph d="M629 0h-54l-411 619v-619h-54v712h54l411 -617v617h54v-712z" glyph-name="Nu" horiz-adv-x="739" unicode="Ν"/><glyph d="M508 0h-452v48h199v287h-143v48h143v281h-199v48h452v-48h-199v-281h143v-48h-143v-287h199v-48z" glyph-name="Xi" horiz-adv-x="564" unicode="Ξ"/><glyph d="M570 356c0 -160 -1 -224 -66 -289c-47 -47 -110 -73 -178 -73s-131 26 -178 73c-65 65 -66 129 -66 289c0 161 1 224 66 289c47 47 110 73 178 73s131 -26 178 -73c65 -65 66 -128 66 -289zM516 356c0 152 -4 208 -55 259c-36 36 -84 55 -135 55s-99 -19 -135 -55 c-51 -51 -55 -107 -55 -259s4 -208 55 -259c36 -36 84 -55 135 -55s99 19 135 55c51 51 55 107 55 259z" glyph-name="Omicron" horiz-adv-x="652" unicode="Ο"/><glyph d="M569 0h-54v664h-351v-664h-54v712h459v-712z" glyph-name="Pi" horiz-adv-x="680" unicode="Π"/><glyph d="M586 507c0 -130 -92 -205 -215 -205h-207v-302h-54v712h261c123 0 215 -74 215 -205zM532 507c0 107 -68 157 -167 157h-201v-314h201c99 0 167 50 167 157z" glyph-name="Rho" horiz-adv-x="631" unicode="Ρ"/><glyph d="M496 0h-433v57l199 324l-184 283v48h418v-48h-359l185 -282l-204 -334h378v-48z" glyph-name="Sigma" horiz-adv-x="552" unicode="Σ"/><glyph d="M509 664h-213v-664h-54v664h-212v48h479v-48z" glyph-name="Tau" horiz-adv-x="539" unicode="Τ"/><glyph d="M484 712l-210 -417v-295h-54v295l-210 417h58l181 -360l177 360h58z" glyph-name="Upsilon" horiz-adv-x="494" unicode="Υ"/><glyph d="M649 361c0 -78 -3 -161 -62 -220c-58 -58 -122 -77 -202 -77v-64h-54v64c-80 0 -144 19 -202 77c-59 59 -62 142 -62 220s3 161 62 220c58 58 122 77 202 77v54h54v-54c80 0 144 -19 202 -77c59 -59 62 -142 62 -220zM595 361c0 64 -2 141 -51 190c-46 46 -96 59 -159 59 v-498c63 0 113 13 159 59c49 49 51 126 51 190zM331 112v498c-63 0 -113 -13 -159 -59c-49 -49 -51 -126 -51 -190s2 -141 51 -190c46 -46 96 -59 159 -59z" glyph-name="Phi" horiz-adv-x="715" unicode="Φ"/><glyph d="M514 0h-63l-186 317l-186 -317h-61l218 365l-204 347h63l170 -299l171 299h62l-204 -347z" glyph-name="Chi" horiz-adv-x="532" unicode="Χ"/><glyph d="M600 376c0 -73 -22 -115 -66 -159c-47 -47 -110 -73 -178 -73h-2v-144h-54v144h-2c-68 0 -131 26 -178 73c-44 44 -66 86 -66 159v336h54v-336c0 -62 22 -96 55 -129c36 -36 84 -55 135 -55h2v520h54v-520h2c51 0 99 19 135 55c33 33 55 67 55 129v336h54v-336z" glyph-name="Psi" horiz-adv-x="654" unicode="Ψ"/><glyph d="M570 0h-186v47c46 22 79 45 105 88c25 41 27 114 27 221c0 153 -4 208 -55 259c-36 36 -84 55 -135 55s-99 -19 -135 -55c-51 -51 -55 -106 -55 -259c0 -107 2 -180 27 -221c26 -43 59 -66 105 -88v-47h-186v47h91c-30 24 -48 45 -62 71c-32 59 -29 150 -29 238 c0 161 1 224 66 289c47 47 111 73 178 73s131 -26 178 -73c65 -65 66 -128 66 -289c0 -88 3 -179 -29 -238c-14 -26 -32 -47 -62 -71h91v-47z" glyph-name="Omega" horiz-adv-x="652" unicode="Ω"/><glyph d="M164 0h-54v712h54v-712zM4 790v77h58v-77h-58zM212 790v77h58v-77h-58z" glyph-name="Iotadieresis" horiz-adv-x="274" unicode="Ϊ"/><glyph d="M484 712l-210 -417v-295h-54v295l-210 417h58l181 -360l177 360h58zM114 790v77h58v-77h-58zM322 790v77h58v-77h-58z" glyph-name="Upsilondieresis" horiz-adv-x="494" unicode="Ϋ"/><glyph d="M443 0h-51v62c-43 -56 -88 -68 -143 -68c-51 0 -93 17 -118 42c-49 49 -62 129 -62 205s13 156 62 205c25 25 67 42 118 42c55 0 100 -12 143 -68v62h51v-482zM392 241c0 100 -18 202 -136 202s-136 -102 -136 -202s18 -202 136 -202s136 102 136 202zM291 615l-58 -33 v130h58v-97z" glyph-name="alphatonos" horiz-adv-x="540" unicode="ά"/><glyph d="M437 68c-62 -62 -125 -74 -197 -74c-96 0 -172 47 -172 136c0 60 26 92 82 115c-48 19 -72 56 -72 108c0 84 79 135 168 135c82 0 143 -22 190 -74l-34 -33c-34 36 -87 63 -155 63c-52 0 -114 -34 -114 -92c0 -54 31 -84 96 -84h82v-44h-82c-74 0 -106 -36 -106 -94 c0 -59 56 -92 115 -92c40 0 106 2 164 61zM291 615l-58 -33v130h58v-97z" glyph-name="epsilontonos" horiz-adv-x="492" unicode="έ"/><glyph d="M468 0h-51v299c0 93 -46 144 -133 144s-136 -52 -136 -144v-299h-51v482h51v-57c36 42 83 63 142 63c53 0 96 -15 128 -46c33 -32 50 -77 50 -134v-308zM311 615l-58 -33v130h58v-97z" glyph-name="etatonos" horiz-adv-x="559" unicode="ή"/><glyph d="M255 0h-44c-79 0 -116 49 -116 125v357h51v-356c0 -55 17 -81 74 -81h35v-45zM153 615l-58 -33v130h58v-97z" glyph-name="iotatonos" horiz-adv-x="287" unicode="ί"/><glyph d="M437 236c0 -69 -4 -138 -55 -189c-35 -35 -74 -53 -129 -53c-54 0 -94 18 -129 53c-51 51 -54 120 -54 189v246h50v-246c0 -56 -2 -116 38 -156c27 -27 56 -41 95 -41s68 14 95 41c40 40 38 100 38 156v246h51v-246zM385 600h-58v77h58v-77zM281 615l-58 -33v130h58v-97z M177 600h-58v77h58v-77z" glyph-name="upsilondieresistonos" horiz-adv-x="507" unicode="ΰ"/><glyph d="M443 0h-51v62c-43 -56 -88 -68 -143 -68c-51 0 -93 17 -118 42c-49 49 -62 129 -62 205s13 156 62 205c25 25 67 42 118 42c55 0 100 -12 143 -68v62h51v-482zM392 241c0 100 -18 202 -136 202s-136 -102 -136 -202s18 -202 136 -202s136 102 136 202z" glyph-name="alpha" horiz-adv-x="540" unicode="α"/><glyph d="M491 197c0 -109 -78 -203 -177 -203c-61 0 -114 2 -167 69v-63h-50v538c0 99 72 174 180 174c103 0 177 -55 177 -164c0 -61 -19 -150 -104 -167c92 -11 141 -74 141 -184zM442 200c0 140 -87 159 -173 159h-61v38h63c124 0 135 88 135 140c0 97 -59 134 -127 134 c-91 0 -131 -66 -131 -152v-319c0 -80 41 -163 144 -163c107 0 150 86 150 163z" glyph-name="beta" horiz-adv-x="540" unicode="β"/><glyph d="M416 482l-175 -482v-230h-51v230l-176 482h56l145 -422l145 422h56z" glyph-name="gamma" horiz-adv-x="430" unicode="γ"/><glyph d="M457 241c0 -69 -9 -143 -60 -194c-35 -35 -79 -53 -134 -53c-54 0 -99 18 -134 53c-51 51 -60 125 -60 194s9 143 60 194c35 35 80 53 134 53c25 0 53 -5 73 -17l-213 202v39h285v-39h-229l179 -172c92 -88 99 -175 99 -260zM406 241c0 56 -3 121 -43 161 c-27 27 -61 41 -100 41s-73 -14 -100 -41c-40 -40 -43 -105 -43 -161s3 -121 43 -161c27 -27 61 -41 100 -41s73 14 100 41c40 40 43 105 43 161z" glyph-name="delta" horiz-adv-x="526" unicode="δ"/><glyph d="M437 68c-62 -62 -125 -74 -197 -74c-96 0 -172 47 -172 136c0 60 26 92 82 115c-48 19 -72 56 -72 108c0 84 79 135 168 135c82 0 143 -22 190 -74l-34 -33c-34 36 -87 63 -155 63c-52 0 -114 -34 -114 -92c0 -54 31 -84 96 -84h82v-44h-82c-74 0 -106 -36 -106 -94 c0 -59 56 -92 115 -92c40 0 106 2 164 61z" glyph-name="epsilon" horiz-adv-x="492" unicode="ε"/><glyph d="M413 -52c0 -64 -35 -101 -125 -101v39c46 0 81 14 81 56c0 41 -25 58 -84 58h-36c-132 0 -194 23 -194 113c0 60 23 93 84 143c0 0 211 174 219 181h-274v45h328v-48c-6 -7 -242 -214 -242 -214c-56 -49 -62 -63 -62 -111c0 -52 54 -64 141 -64h33c62 0 131 -18 131 -97z" glyph-name="zeta" horiz-adv-x="458" unicode="ζ"/><glyph d="M468 0h-51v299c0 93 -46 144 -133 144s-136 -52 -136 -144v-299h-51v482h51v-57c36 42 83 63 142 63c53 0 96 -15 128 -46c33 -32 50 -77 50 -134v-308z" glyph-name="eta" horiz-adv-x="559" unicode="η"/><glyph d="M464 356c0 -94 4 -237 -66 -307c-35 -35 -76 -55 -131 -55c-54 0 -96 20 -131 55c-70 70 -66 213 -66 307s-4 237 66 307c35 35 77 55 131 55c55 0 96 -20 131 -55c70 -70 66 -213 66 -307zM413 398c0 78 -3 186 -49 232c-27 27 -58 43 -97 43s-70 -16 -97 -43 c-46 -46 -49 -154 -49 -232h292zM413 353h-292c0 -76 -6 -216 49 -271c27 -27 58 -43 97 -43s70 16 97 43c55 55 49 195 49 271z" glyph-name="theta" horiz-adv-x="534" unicode="θ"/><glyph d="M255 0h-44c-79 0 -116 49 -116 125v357h51v-356c0 -55 17 -81 74 -81h35v-45z" glyph-name="iota" horiz-adv-x="287" unicode="ι"/><glyph d="M487 0h-63l-166 265l-110 -127v-138h-51v482h51v-272l239 272h65l-159 -180z" glyph-name="kappa" horiz-adv-x="527" unicode="κ"/><glyph d="M473 0h-24c-32 0 -52 9 -76 31c-12 12 -23 30 -31 56l-109 334l-159 -421h-56l191 481l-44 129c-16 48 -26 57 -81 57h-9v45h15c66 0 97 -18 117 -78l176 -523c16 -48 35 -66 72 -66h18v-45z" glyph-name="lambda" horiz-adv-x="465" unicode="λ"/><glyph d="M408 0v57c-36 -42 -83 -63 -142 -63c-53 0 -95 15 -127 45v-269h-51v712h51v-299c0 -93 46 -144 133 -144s136 52 136 144v299h51v-482h-51z" glyph-name="mu" horiz-adv-x="556" unicode="μ"/><glyph d="M416 482l-176 -482h-50l-176 482h56l145 -422l145 422h56z" glyph-name="nu" horiz-adv-x="430" unicode="ν"/><glyph d="M455 614l-34 -33c-34 36 -79 62 -139 62c-81 0 -133 -48 -133 -131s50 -121 131 -121h121v-45h-119c-98 0 -162 -62 -162 -154c0 -88 66 -147 152 -147h43c63 0 131 -18 131 -97c0 -64 -35 -101 -125 -101v39c46 0 81 14 81 56c0 41 -25 58 -84 58h-46 c-115 0 -204 78 -204 192c0 100 59 158 124 178c-59 15 -98 77 -98 142c0 104 77 176 188 176c64 0 126 -22 173 -74z" glyph-name="xi" horiz-adv-x="475" unicode="ξ"/><glyph d="M457 241c0 -69 -9 -143 -60 -194c-35 -35 -79 -53 -134 -53c-54 0 -99 18 -134 53c-51 51 -60 125 -60 194s9 143 60 194c35 35 80 53 134 53c55 0 99 -18 134 -53c51 -51 60 -125 60 -194zM406 241c0 56 -3 121 -43 161c-27 27 -61 41 -100 41s-73 -14 -100 -41 c-40 -40 -43 -105 -43 -161s3 -121 43 -161c27 -27 61 -41 100 -41s73 14 100 41c40 40 43 105 43 161z" glyph-name="omicron" horiz-adv-x="526" unicode="ο"/><glyph d="M481 0h-48v437h-275v-437h-48v482h371v-482z" glyph-name="pi" horiz-adv-x="591" unicode="π"/><glyph d="M444 241c0 -76 -14 -156 -63 -205c-25 -25 -67 -42 -118 -42c-55 0 -100 12 -143 68v-292h-51v520c0 92 51 198 186 198c146 0 189 -112 189 -247zM392 241c0 100 -16 201 -134 201s-138 -103 -138 -196c0 -100 18 -207 136 -207s136 102 136 202z" glyph-name="rho" horiz-adv-x="513" unicode="ρ"/><glyph d="M440 414l-35 -32c-41 46 -73 61 -124 61c-55 0 -99 -21 -128 -64c-24 -35 -33 -73 -33 -138s9 -103 33 -138c34 -51 79 -58 136 -58c66 0 143 -13 143 -97c0 -64 -36 -101 -126 -101v39c46 0 81 14 81 56c0 59 -54 58 -98 58c-153 0 -220 93 -220 241 c0 153 80 247 212 247c66 0 108 -17 159 -74z" glyph-name="sigma1" horiz-adv-x="493" unicode="ς"/><glyph d="M472 437h-92c54 -42 77 -116 77 -196c0 -69 -9 -143 -60 -194c-35 -35 -79 -53 -134 -53c-54 0 -99 18 -134 53c-51 51 -60 125 -60 194s9 137 60 188c35 35 80 53 134 53h209v-45zM406 241c0 56 -3 115 -43 155c-27 27 -61 41 -100 41s-73 -14 -100 -41 c-40 -40 -43 -99 -43 -155s3 -121 43 -161c27 -27 61 -41 100 -41s73 14 100 41c40 40 43 105 43 161z" glyph-name="sigma" horiz-adv-x="536" unicode="σ"/><glyph d="M321 437h-121v-437h-51v437h-121v45h293v-45z" glyph-name="tau" horiz-adv-x="349" unicode="τ"/><glyph d="M437 236c0 -69 -4 -138 -55 -189c-35 -35 -74 -53 -129 -53c-54 0 -94 18 -129 53c-51 51 -54 120 -54 189v246h50v-246c0 -56 -2 -116 38 -156c27 -27 56 -41 95 -41s68 14 95 41c40 40 38 100 38 156v246h51v-246z" glyph-name="upsilon" horiz-adv-x="507" unicode="υ"/><glyph d="M577 243c0 -159 -50 -249 -230 -249v-224h-51v224c-182 0 -227 107 -227 249c0 111 39 192 116 239l14 -42c-64 -47 -79 -129 -79 -200c0 -101 16 -197 176 -201v443h69c151 0 212 -78 212 -239zM526 246c0 109 -21 192 -179 192v-399c166 5 179 98 179 207z" glyph-name="phi" horiz-adv-x="646" unicode="φ"/><glyph d="M420 0h-62l-127 203l-129 -203h-62l163 246l-156 236h62l122 -194l120 194h62l-156 -236z" glyph-name="chi" horiz-adv-x="460" unicode="χ"/><glyph d="M544 241c0 -164 -57 -239 -212 -246v-225h-51v225c-155 7 -211 81 -211 246v241h50v-241c0 -139 33 -195 161 -201v442h51v-442c129 6 161 64 161 201v241h51v-241z" glyph-name="psi" horiz-adv-x="614" unicode="ψ"/><glyph d="M635 233c0 -63 -9 -128 -36 -173c-25 -41 -65 -66 -124 -66s-108 47 -123 102c-15 -55 -64 -102 -123 -102s-99 25 -124 66c-27 45 -36 110 -36 173c0 66 19 145 47 182c19 25 56 67 110 73v-45c-32 -6 -65 -39 -78 -64c-19 -35 -29 -66 -29 -146c0 -39 0 -104 26 -146 c16 -27 46 -48 84 -48c93 0 97 120 97 183v128h52v-128c0 -63 4 -183 97 -183c38 0 68 21 84 48c26 42 26 107 26 146c0 80 -10 111 -29 146c-13 25 -46 58 -78 64v45c54 -6 91 -48 110 -73c28 -37 47 -116 47 -182z" glyph-name="omega" horiz-adv-x="704" unicode="ω"/><glyph d="M255 0h-44c-79 0 -116 49 -116 125v357h51v-356c0 -55 17 -81 74 -81h35v-45zM-10 600v77h58v-77h-58zM198 600v77h58v-77h-58z" glyph-name="iotadieresis" horiz-adv-x="287" unicode="ϊ"/><glyph d="M437 236c0 -69 -4 -138 -55 -189c-35 -35 -74 -53 -129 -53c-54 0 -94 18 -129 53c-51 51 -54 120 -54 189v246h50v-246c0 -56 -2 -116 38 -156c27 -27 56 -41 95 -41s68 14 95 41c40 40 38 100 38 156v246h51v-246zM123 600v77h58v-77h-58zM331 600v77h58v-77h-58z" glyph-name="upsilondieresis" horiz-adv-x="507" unicode="ϋ"/><glyph d="M457 241c0 -69 -9 -143 -60 -194c-35 -35 -79 -53 -134 -53c-54 0 -99 18 -134 53c-51 51 -60 125 -60 194s9 143 60 194c35 35 80 53 134 53c55 0 99 -18 134 -53c51 -51 60 -125 60 -194zM406 241c0 56 -3 121 -43 161c-27 27 -61 41 -100 41s-73 -14 -100 -41 c-40 -40 -43 -105 -43 -161s3 -121 43 -161c27 -27 61 -41 100 -41s73 14 100 41c40 40 43 105 43 161zM291 615l-58 -33v130h58v-97z" glyph-name="omicrontonos" horiz-adv-x="526" unicode="ό"/><glyph d="M437 236c0 -69 -4 -138 -55 -189c-35 -35 -74 -53 -129 -53c-54 0 -94 18 -129 53c-51 51 -54 120 -54 189v246h50v-246c0 -56 -2 -116 38 -156c27 -27 56 -41 95 -41s68 14 95 41c40 40 38 100 38 156v246h51v-246zM281 615l-58 -33v130h58v-97z" glyph-name="upsilontonos" horiz-adv-x="507" unicode="ύ"/><glyph d="M635 233c0 -63 -9 -128 -36 -173c-25 -41 -65 -66 -124 -66s-108 47 -123 102c-15 -55 -64 -102 -123 -102s-99 25 -124 66c-27 45 -36 110 -36 173c0 66 19 145 47 182c19 25 56 67 110 73v-45c-32 -6 -65 -39 -78 -64c-19 -35 -29 -66 -29 -146c0 -39 0 -104 26 -146 c16 -27 46 -48 84 -48c93 0 97 120 97 183v128h52v-128c0 -63 4 -183 97 -183c38 0 68 21 84 48c26 42 26 107 26 146c0 80 -10 111 -29 146c-13 25 -46 58 -78 64v45c54 -6 91 -48 110 -73c28 -37 47 -116 47 -182zM376 615l-58 -33v130h58v-97z" glyph-name="omegatonos" horiz-adv-x="704" unicode="ώ"/><glyph d="M491 197c0 -109 -78 -203 -177 -203c-61 0 -113 1 -166 68v-292h-51v768c0 99 72 174 180 174c103 0 177 -55 177 -164c0 -61 -19 -150 -104 -167c92 -11 141 -74 141 -184zM442 200c0 140 -87 159 -173 159h-61v38h63c124 0 135 88 135 140c0 97 -59 134 -127 134 c-91 0 -131 -66 -131 -152v-319c0 -80 41 -163 144 -163c107 0 150 86 150 163z" glyph-name="beta1" horiz-adv-x="540" unicode="ϐ"/><glyph d="M542 0h-432v712h432v-48h-378v-281h322v-48h-322v-287h378v-48zM181 790v77h58v-77h-58zM389 790v77h58v-77h-58z" glyph-name="afii10023" horiz-adv-x="598" unicode="Ё"/><glyph d="M425 382h-164v-382h-54v664h-182v48h479v-48h-243v-234h170c130 0 215 -81 215 -205v-20c0 -124 -85 -205 -215 -205h-40v48h34c106 0 167 57 167 157v20c0 100 -61 157 -167 157z" glyph-name="afii10051" horiz-adv-x="743" unicode="Ђ"/><glyph d="M540 664h-368v-664h-54v712h422v-48zM318 780h-58l97 147h67z" glyph-name="afii10052" horiz-adv-x="564" unicode="Ѓ"/><glyph d="M568 202c-23 -129 -117 -208 -242 -208c-67 0 -131 26 -178 73c-65 65 -66 128 -66 289s1 224 66 289c47 47 111 73 178 73c127 0 219 -79 242 -208h-55c-21 98 -91 160 -187 160c-51 0 -99 -19 -135 -55c-48 -48 -55 -100 -55 -232h286v-48h-286c0 -137 6 -190 55 -238 c36 -36 84 -55 135 -55c96 0 168 62 189 160h53z" glyph-name="afii10053" horiz-adv-x="644" unicode="Є"/><glyph d="M528 191c0 -120 -92 -197 -240 -197c-106 0 -172 29 -237 94l38 38c64 -64 116 -84 202 -84c112 0 183 54 183 147c0 42 -13 77 -39 100c-26 22 -45 29 -103 38l-83 13c-54 8 -97 26 -127 52c-38 32 -56 76 -56 131c0 119 85 195 221 195c88 0 144 -24 205 -77l-35 -35 c-44 39 -88 66 -173 66c-103 0 -165 -57 -165 -147c0 -41 12 -72 37 -93s66 -38 106 -44l77 -12c67 -10 97 -22 127 -47c39 -32 62 -81 62 -138z" glyph-name="afii10054" horiz-adv-x="587" unicode="Ѕ"/><glyph d="M164 0h-54v712h54v-712z" glyph-name="afii10055" horiz-adv-x="274" unicode="І"/><glyph d="M164 0h-54v712h54v-712zM4 790v77h58v-77h-58zM212 790v77h58v-77h-58z" glyph-name="afii10056" horiz-adv-x="274" unicode="Ї"/><glyph d="M398 210c0 -130 -83 -216 -212 -216c-64 0 -115 20 -156 61l37 37c27 -27 56 -50 119 -50c102 0 158 65 158 179v491h54v-502z" glyph-name="afii10057" horiz-adv-x="498" unicode="Ј"/><glyph d="M940 205c0 100 -61 157 -167 157h-203v-314h203c106 0 167 57 167 157zM238 664v-257c0 -301 -72 -407 -204 -407h-29v48h18c95 0 162 65 162 387v277h385v-302h209c130 0 215 -81 215 -205s-85 -205 -215 -205h-263v664h-278z" glyph-name="afii10058" horiz-adv-x="1037" unicode="Љ"/><glyph d="M1013 205c0 -124 -85 -205 -215 -205h-263v362h-371v-362h-54v712h54v-302h371v302h54v-302h209c130 0 215 -81 215 -205zM959 205c0 100 -61 157 -167 157h-203v-314h203c106 0 167 57 167 157z" glyph-name="afii10059" horiz-adv-x="1056" unicode="Њ"/><glyph d="M646 0h-54v225c0 100 -61 157 -167 157h-164v-382h-54v664h-182v48h479v-48h-243v-234h170c130 0 215 -81 215 -205v-225z" glyph-name="afii10060" horiz-adv-x="743" unicode="Ћ"/><glyph d="M169 712v-340l331 340h72l-338 -340l365 -372h-76l-354 370v-370h-54v712h54zM323 780h-58l97 147h67z" glyph-name="afii10061" horiz-adv-x="600" unicode="Ќ"/><glyph d="M407 880c-7 -83 -56 -120 -140 -120s-133 37 -140 120h51c5 -52 35 -80 89 -80s84 28 89 80h51zM522 712l-259 -604c-28 -66 -67 -108 -134 -108h-54v48h42c53 0 77 24 101 80l31 74l-237 510h58l207 -449l187 449h58z" glyph-name="afii10062" horiz-adv-x="534" unicode="Ў"/><glyph d="M589 0h-212v-180h-54v180h-213v712h54v-664h371v664h54v-712z" glyph-name="afii10145" horiz-adv-x="699" unicode="Џ"/><glyph d="M586 0h-58l-62 173h-332l-62 -173h-58l262 712h48zM449 221l-149 419l-149 -419h298z" glyph-name="afii10017" horiz-adv-x="600" unicode="А"/><glyph d="M588 205c0 -124 -85 -205 -215 -205h-263v712h434v-48h-380v-254h209c130 0 215 -81 215 -205zM534 205c0 100 -61 157 -167 157h-203v-314h203c106 0 167 57 167 157z" glyph-name="afii10018" horiz-adv-x="657" unicode="Б"/><glyph d="M589 192c0 -120 -78 -192 -209 -192h-270v712h262c123 0 206 -74 206 -184c0 -52 -19 -96 -54 -129c-16 -14 -27 -21 -57 -33c35 -14 48 -22 66 -38c37 -34 56 -80 56 -136zM524 526c0 87 -59 138 -158 138h-202v-276h202c100 0 158 51 158 138zM535 194 c0 89 -62 146 -161 146h-210v-292h210c99 0 161 56 161 146z" glyph-name="afii10019" horiz-adv-x="671" unicode="В"/><glyph d="M540 664h-368v-664h-54v712h422v-48z" glyph-name="afii10020" horiz-adv-x="564" unicode="Г"/><glyph d="M640 -180h-54v180h-512v-180h-54v228h65c67 106 92 226 92 404v260h378v-664h85v-228zM501 48v616h-273v-260c0 -129 -23 -256 -83 -356h356z" glyph-name="afii10021" horiz-adv-x="680" unicode="Д"/><glyph d="M542 0h-432v712h432v-48h-378v-281h322v-48h-322v-287h378v-48z" glyph-name="afii10022" horiz-adv-x="598" unicode="Е"/><glyph d="M1 0l350 372l-323 340h72l316 -340v340h54v-340l316 340h72l-323 -340l350 -372h-76l-339 370v-370h-54v370l-339 -370h-76z" glyph-name="afii10024" horiz-adv-x="886" unicode="Ж"/><glyph d="M306 -6c-120 0 -213 79 -236 208h53c21 -98 93 -160 189 -160c97 0 172 57 172 152c0 99 -58 146 -158 146h-89v48h92c91 0 143 51 143 143c0 90 -63 139 -159 139s-166 -62 -187 -160h-55c23 129 115 208 242 208c123 0 213 -72 213 -186c0 -80 -34 -134 -107 -165 c79 -27 119 -84 119 -175c0 -122 -101 -198 -232 -198z" glyph-name="afii10025" horiz-adv-x="620" unicode="З"/><glyph d="M610 0h-54v624l-392 -624h-54v712h54v-622l392 622h54v-712z" glyph-name="afii10026" horiz-adv-x="720" unicode="И"/><glyph d="M500 880c-7 -83 -56 -120 -140 -120s-133 37 -140 120h51c5 -52 35 -80 89 -80s84 28 89 80h51zM610 0h-54v624l-392 -624h-54v712h54v-622l392 622h54v-712z" glyph-name="afii10027" horiz-adv-x="720" unicode="Й"/><glyph d="M169 712v-340l331 340h72l-338 -340l365 -372h-76l-354 370v-370h-54v712h54z" glyph-name="afii10028" horiz-adv-x="600" unicode="К"/><glyph d="M570 0h-54v664h-278v-257c0 -301 -72 -407 -204 -407h-29v48h18c95 0 162 65 162 387v277h385v-712z" glyph-name="afii10029" horiz-adv-x="680" unicode="Л"/><glyph d="M708 0h-54v587l-216 -487h-54l-220 487v-587h-54v712h54l248 -549l242 549h54v-712z" glyph-name="afii10030" horiz-adv-x="818" unicode="М"/><glyph d="M589 0h-54v335h-371v-335h-54v712h54v-329h371v329h54v-712z" glyph-name="afii10031" horiz-adv-x="699" unicode="Н"/><glyph d="M570 417v-61c0 -172 -7 -230 -66 -289c-47 -47 -111 -73 -178 -73s-131 26 -178 73c-62 62 -66 131 -66 289v47c0 106 4 180 66 242c47 47 111 73 178 73s131 -26 178 -73c60 -60 66 -141 66 -228zM516 334v39c0 152 -10 197 -55 242c-35 35 -84 55 -135 55 c-52 0 -100 -20 -135 -55c-50 -50 -55 -114 -55 -259v-31c0 -136 11 -184 55 -228c35 -35 83 -55 135 -55s100 20 135 55c54 54 55 128 55 237z" glyph-name="afii10032" horiz-adv-x="652" unicode="О"/><glyph d="M589 0h-54v664h-371v-664h-54v712h479v-712z" glyph-name="afii10033" horiz-adv-x="699" unicode="П"/><glyph d="M586 507c0 -124 -85 -205 -215 -205h-207v-302h-54v712h261c130 0 215 -81 215 -205zM532 507c0 100 -61 157 -167 157h-201v-314h201c106 0 167 57 167 157z" glyph-name="afii10034" horiz-adv-x="631" unicode="Р"/><glyph d="M568 202c-23 -129 -117 -208 -242 -208c-67 0 -131 26 -178 73c-65 65 -66 128 -66 289s1 224 66 289c47 47 111 73 178 73c127 0 219 -79 242 -208h-55c-21 98 -91 160 -187 160c-51 0 -99 -19 -135 -55c-51 -51 -55 -106 -55 -259s4 -208 55 -259 c36 -36 84 -55 135 -55c96 0 168 62 189 160h53z" glyph-name="afii10035" horiz-adv-x="644" unicode="С"/><glyph d="M509 664h-213v-664h-54v664h-212v48h479v-48z" glyph-name="afii10036" horiz-adv-x="539" unicode="Т"/><glyph d="M522 712l-259 -604c-28 -66 -67 -108 -134 -108h-54v48h42c53 0 77 24 101 80l31 74l-237 510h58l207 -449l187 449h58z" glyph-name="afii10037" horiz-adv-x="534" unicode="У"/><glyph d="M650 380c0 146 -52 240 -243 243v-485c185 3 243 94 243 242zM110 380c0 -148 58 -239 243 -242v485c-191 -3 -243 -97 -243 -243zM407 -3h-54v94c-211 6 -297 104 -297 290c0 187 88 283 297 289v65h54v-65c209 -6 297 -102 297 -289c0 -186 -86 -284 -297 -290v-94z" glyph-name="afii10038" horiz-adv-x="760" unicode="Ф"/><glyph d="M514 0h-63l-186 317l-186 -317h-61l218 365l-204 347h63l170 -299l171 299h62l-204 -347z" glyph-name="afii10039" horiz-adv-x="532" unicode="Х"/><glyph d="M674 -180h-54v180h-510v712h54v-664h371v664h54v-664h85v-228z" glyph-name="afii10040" horiz-adv-x="714" unicode="Ц"/><glyph d="M534 0h-54v300c-47 -10 -149 -30 -208 -30c-99 0 -192 40 -192 179v263h54v-256c0 -118 76 -138 147 -138c54 0 148 18 199 28v366h54v-712z" glyph-name="afii10041" horiz-adv-x="644" unicode="Ч"/><glyph d="M890 0h-780v712h54v-664h309v664h54v-664h309v664h54v-712z" glyph-name="afii10042" horiz-adv-x="1000" unicode="Ш"/><glyph d="M975 -180h-54v180h-811v712h54v-664h309v664h54v-664h309v664h54v-664h85v-228z" glyph-name="afii10043" horiz-adv-x="1015" unicode="Щ"/><glyph d="M685 205c0 -124 -85 -205 -215 -205h-263v664h-177v48h231v-302h209c130 0 215 -81 215 -205zM631 205c0 100 -61 157 -167 157h-203v-314h203c106 0 167 57 167 157z" glyph-name="afii10044" horiz-adv-x="728" unicode="Ъ"/><glyph d="M744 0h-54v712h54v-712zM588 205c0 -124 -85 -205 -215 -205h-263v712h54v-302h209c130 0 215 -81 215 -205zM534 205c0 100 -61 157 -167 157h-203v-314h203c106 0 167 57 167 157z" glyph-name="afii10045" horiz-adv-x="854" unicode="Ы"/><glyph d="M588 205c0 -124 -85 -205 -215 -205h-263v712h54v-302h209c130 0 215 -81 215 -205zM534 205c0 100 -61 157 -167 157h-203v-314h203c106 0 167 57 167 157z" glyph-name="afii10046" horiz-adv-x="631" unicode="Ь"/><glyph d="M76 202h53c21 -98 93 -160 189 -160c51 0 99 19 135 55c49 48 55 101 55 238h-286v48h286c0 132 -7 184 -55 232c-36 36 -84 55 -135 55c-96 0 -166 -62 -187 -160h-55c23 129 115 208 242 208c67 0 131 -26 178 -73c65 -65 66 -128 66 -289s-1 -224 -66 -289 c-47 -47 -111 -73 -178 -73c-125 0 -219 79 -242 208z" glyph-name="afii10047" horiz-adv-x="644" unicode="Э"/><glyph d="M818 417v-61c0 -172 -7 -230 -66 -289c-47 -47 -111 -73 -178 -73s-131 26 -178 73c-59 59 -66 125 -66 268h-166v-335h-54v712h54v-329h166c0 116 0 196 66 262c47 47 111 73 178 73s131 -26 178 -73c60 -60 66 -141 66 -228zM764 334v39c0 152 -10 197 -55 242 c-35 35 -84 55 -135 55c-52 0 -100 -20 -135 -55c-50 -50 -55 -114 -55 -259v-31c0 -136 11 -184 55 -228c35 -35 83 -55 135 -55s100 20 135 55c54 54 55 128 55 237z" glyph-name="afii10048" horiz-adv-x="900" unicode="Ю"/><glyph d="M547 0h-54v302h-200l-166 -302h-63l170 307c-100 19 -163 94 -163 200c0 124 85 205 215 205h261v-712zM493 350v314h-201c-106 0 -167 -57 -167 -157s61 -157 167 -157h201z" glyph-name="afii10049" horiz-adv-x="657" unicode="Я"/><glyph d="M431 0h-51v48c-41 -41 -79 -54 -147 -54c-71 0 -111 12 -142 44c-22 23 -35 58 -35 94c0 88 63 139 168 139h156v54c0 77 -38 118 -136 118c-68 0 -103 -17 -133 -61l-37 32c41 57 92 74 170 74c127 0 187 -57 187 -158v-330zM380 168v62h-150c-83 0 -123 -33 -123 -97 s39 -94 126 -94c44 0 86 4 120 37c18 17 27 47 27 92z" glyph-name="afii10065" horiz-adv-x="524" unicode="а"/><glyph d="M461 241c0 -96 -17 -153 -59 -195c-32 -33 -80 -52 -132 -52c-96 0 -165 57 -185 148c-13 57 -10 153 -10 215c0 176 6 236 58 288c67 67 213 65 293 72v-49c-65 -6 -197 0 -253 -56c-45 -45 -49 -112 -49 -202c22 45 90 77 149 77c51 0 94 -14 125 -44 c43 -41 63 -111 63 -202zM410 236c0 87 -10 134 -42 166c-24 25 -61 40 -98 40s-73 -15 -98 -40c-30 -31 -46 -79 -46 -164s15 -127 46 -159c25 -25 61 -40 98 -40s74 15 98 40c31 31 42 74 42 157z" glyph-name="afii10066" horiz-adv-x="528" unicode="б"/><glyph d="M463 131c0 -81 -53 -131 -142 -131h-224v482h219c83 0 139 -49 139 -124c0 -54 -31 -92 -82 -108c53 -17 90 -58 90 -119zM404 355c0 54 -36 84 -99 84h-157v-168h157c64 0 99 31 99 84zM412 135c0 56 -38 93 -102 93h-162v-185h162c64 0 102 36 102 92z" glyph-name="afii10067" horiz-adv-x="535" unicode="в"/><glyph d="M401 439h-249v-439h-51v482h300v-43z" glyph-name="afii10068" horiz-adv-x="411" unicode="г"/><glyph d="M515 -150h-51v150h-388v-150h-51v193h59c37 53 70 122 70 299v140h286v-439h75v-193zM389 43v396h-186v-110c0 -162 -29 -241 -61 -286h247z" glyph-name="afii10069" horiz-adv-x="551" unicode="д"/><glyph d="M455 230h-335c2 -52 5 -74 17 -102c24 -59 72 -88 141 -88c26 0 48 4 68 12c22 9 35 19 64 46l38 -30c-35 -34 -52 -46 -81 -58c-26 -11 -56 -16 -91 -16c-136 0 -207 85 -207 250c0 152 73 244 193 244s193 -89 193 -235v-23zM404 271c-2 38 -3 50 -9 69 c-19 65 -69 103 -133 103c-56 0 -103 -31 -125 -81c-11 -25 -15 -46 -17 -91h284z" glyph-name="afii10070" horiz-adv-x="523" unicode="е"/><glyph d="M99 482l225 -232v232h51v-232l225 232h66l-225 -229l248 -253h-70l-244 248v-248h-51v248l-244 -248h-70l248 253l-225 229h66z" glyph-name="afii10072" horiz-adv-x="699" unicode="ж"/><glyph d="M405 133c0 -86 -85 -138 -182 -138c-77 0 -129 17 -186 69l35 35c46 -45 83 -59 148 -59c64 0 136 35 136 94c0 61 -46 92 -111 92h-69v43h71c58 0 100 31 100 88c0 55 -47 87 -119 87c-52 0 -97 -14 -139 -43l-30 36c53 37 105 51 169 51c96 0 169 -47 169 -130 c0 -50 -28 -93 -81 -109c54 -15 89 -59 89 -116z" glyph-name="afii10073" horiz-adv-x="477" unicode="з"/><glyph d="M476 0h-51v408l-277 -408h-51v482h51v-408l277 408h51v-482z" glyph-name="afii10074" horiz-adv-x="573" unicode="и"/><glyph d="M427 697c-7 -83 -56 -120 -140 -120s-133 37 -140 120h51c5 -52 35 -80 89 -80s84 28 89 80h51zM476 0h-51v408l-277 -408h-51v482h51v-408l277 408h51v-482z" glyph-name="afii10075" horiz-adv-x="573" unicode="й"/><glyph d="M153 482v-232l233 232h66l-233 -229l256 -253h-70l-252 248v-248h-51v482h51z" glyph-name="afii10076" horiz-adv-x="485" unicode="к"/><glyph d="M145 482h291v-482h-51v439h-190v-187c0 -200 -69 -252 -153 -252h-22v43h15c44 0 110 17 110 228v211z" glyph-name="afii10077" horiz-adv-x="533" unicode="л"/><glyph d="M551 0h-51v378l-151 -310h-48l-153 310v-378h-51v482h51l178 -363l174 363h51v-482z" glyph-name="afii10078" horiz-adv-x="648" unicode="м"/><glyph d="M462 0h-51v228h-263v-228h-51v482h51v-211h263v211h51v-482z" glyph-name="afii10079" horiz-adv-x="559" unicode="н"/><glyph d="M457 244c0 -96 -18 -154 -60 -197c-34 -34 -81 -53 -134 -53s-100 19 -134 53c-42 42 -60 101 -60 194s18 152 60 194c34 34 81 53 134 53c124 0 194 -88 194 -244zM406 239c0 87 -11 130 -43 163c-25 26 -62 41 -100 41s-75 -15 -100 -41c-31 -32 -43 -76 -43 -161 s11 -128 43 -161c25 -26 62 -41 100 -41s75 15 100 41c31 32 43 76 43 159z" glyph-name="afii10080" horiz-adv-x="526" unicode="о"/><glyph d="M462 0h-51v439h-263v-439h-51v482h365v-482z" glyph-name="afii10081" horiz-adv-x="559" unicode="п"/><glyph d="M471 240c0 -164 -61 -246 -183 -246c-73 0 -105 22 -140 68v-292h-51v712h51v-62c38 48 69 68 139 68c124 0 184 -81 184 -248zM420 240c0 141 -41 203 -136 203c-94 0 -136 -62 -136 -202s41 -202 136 -202c94 0 136 62 136 201z" glyph-name="afii10082" horiz-adv-x="540" unicode="р"/><glyph d="M440 68c-48 -51 -84 -74 -156 -74c-134 0 -215 93 -215 247s81 247 215 247c72 0 107 -23 156 -74l-35 -32c-36 39 -67 61 -122 61c-56 0 -101 -22 -130 -64c-24 -34 -33 -73 -33 -139c0 -64 9 -104 33 -137c30 -43 73 -64 129 -64s86 21 123 61z" glyph-name="afii10083" horiz-adv-x="493" unicode="с"/><glyph d="M399 439h-164v-439h-51v439h-174v43h389v-43z" glyph-name="afii10084" horiz-adv-x="409" unicode="т"/><glyph d="M416 482l-224 -613c-11 -30 -19 -43 -33 -56c-22 -20 -53 -31 -91 -31h-24v45h19c50 0 69 14 88 66l39 107l-176 482h56l145 -422l145 422h56z" glyph-name="afii10085" horiz-adv-x="430" unicode="у"/><glyph d="M556 240c0 110 -54 198 -197 203v-404c131 4 197 84 197 201zM359 -230h-51v224c-156 7 -248 90 -248 247c0 156 91 240 248 247v224h51v-224c157 -7 248 -91 248 -247c0 -157 -92 -240 -248 -247v-224zM111 240c0 -117 66 -197 197 -201v404c-143 -5 -197 -93 -197 -203 z" glyph-name="afii10086" horiz-adv-x="667" unicode="ф"/><glyph d="M420 0h-62l-127 203l-129 -203h-62l163 246l-156 236h62l122 -194l120 194h62l-156 -236z" glyph-name="afii10087" horiz-adv-x="460" unicode="х"/><glyph d="M537 -150h-51v150h-389v482h51v-439h263v439h51v-439h75v-193z" glyph-name="afii10088" horiz-adv-x="573" unicode="ц"/><glyph d="M433 0h-51v195c-38 -8 -104 -21 -160 -21c-87 0 -143 40 -143 140v168h51v-163c0 -73 40 -97 101 -97c57 0 113 10 151 18v242h51v-482z" glyph-name="afii10089" horiz-adv-x="530" unicode="ч"/><glyph d="M696 0h-599v482h51v-439h223v439h51v-439h223v439h51v-482z" glyph-name="afii10090" horiz-adv-x="793" unicode="ш"/><glyph d="M771 -150h-51v150h-623v482h51v-439h223v439h51v-439h223v439h51v-439h75v-193z" glyph-name="afii10091" horiz-adv-x="807" unicode="щ"/><glyph d="M503 142c0 -86 -59 -142 -149 -142h-212v439h-132v43h183v-198h161c90 0 149 -56 149 -142zM452 142c0 63 -37 99 -106 99h-153v-198h153c69 0 106 35 106 99z" glyph-name="afii10092" horiz-adv-x="543" unicode="ъ"/><glyph d="M582 0h-51v482h51v-482zM448 142c0 -86 -59 -142 -149 -142h-202v482h51v-198h151c90 0 149 -56 149 -142zM397 142c0 63 -37 99 -106 99h-143v-198h143c69 0 106 35 106 99z" glyph-name="afii10093" horiz-adv-x="679" unicode="ы"/><glyph d="M458 142c0 -86 -59 -142 -149 -142h-212v482h51v-198h161c90 0 149 -56 149 -142zM407 142c0 63 -37 99 -106 99h-153v-198h153c69 0 106 35 106 99z" glyph-name="afii10094" horiz-adv-x="498" unicode="ь"/><glyph d="M424 241c0 -154 -81 -247 -215 -247c-72 0 -108 23 -156 74l35 32c37 -40 67 -61 123 -61c117 0 162 88 162 191h-229v41h228c-5 97 -56 172 -162 172c-55 0 -86 -22 -122 -61l-35 32c49 51 84 74 156 74c134 0 215 -93 215 -247z" glyph-name="afii10095" horiz-adv-x="493" unicode="э"/><glyph d="M643 244c0 -96 -18 -154 -60 -197c-34 -34 -81 -53 -134 -53s-100 19 -134 53c-40 40 -58 95 -60 179h-107v-226h-51v482h51v-213h108c3 77 21 128 59 166c34 34 81 53 134 53c124 0 194 -88 194 -244zM592 239c0 87 -11 130 -43 163c-25 26 -62 41 -100 41 s-75 -15 -100 -41c-31 -32 -43 -76 -43 -161s11 -128 43 -161c25 -26 62 -41 100 -41s75 15 100 41c31 32 43 76 43 159z" glyph-name="afii10096" horiz-adv-x="712" unicode="ю"/><glyph d="M427 0h-51v196h-135l-114 -196h-60l118 198c-74 11 -121 66 -121 142c0 86 59 142 149 142h214v-482zM376 239v200h-153c-69 0 -107 -36 -107 -100s38 -100 107 -100h153z" glyph-name="afii10097" horiz-adv-x="524" unicode="я"/><glyph d="M455 230h-335c2 -52 5 -74 17 -102c24 -59 72 -88 141 -88c26 0 48 4 68 12c22 9 35 19 64 46l38 -30c-35 -34 -52 -46 -81 -58c-26 -11 -56 -16 -91 -16c-136 0 -207 85 -207 250c0 152 73 244 193 244s193 -89 193 -235v-23zM404 271c-2 38 -3 50 -9 69 c-19 65 -69 103 -133 103c-56 0 -103 -31 -125 -81c-11 -25 -15 -46 -17 -91h284zM131 600v77h58v-77h-58zM339 600v77h58v-77h-58z" glyph-name="afii10071" horiz-adv-x="523" unicode="ё"/><glyph d="M468 -85c0 -79 -44 -145 -136 -145h-44v45h35c59 0 94 43 94 101v383c0 93 -42 144 -128 144s-141 -53 -141 -144v-299h-51v564h-61v38h61v110h51v-110h254v-38h-254v-139c42 44 86 63 148 63c109 0 172 -69 172 -180v-393z" glyph-name="afii10099" horiz-adv-x="559" unicode="ђ"/><glyph d="M401 439h-249v-439h-51v482h300v-43zM242 590h-58l97 147h67z" glyph-name="afii10100" horiz-adv-x="411" unicode="ѓ"/><glyph d="M440 68c-48 -51 -84 -74 -156 -74c-134 0 -215 93 -215 247s81 247 215 247c72 0 107 -23 156 -74l-35 -32c-36 39 -67 61 -122 61c-106 0 -157 -75 -162 -172h228v-41h-229c0 -103 45 -191 162 -191c56 0 86 21 123 61z" glyph-name="afii10101" horiz-adv-x="493" unicode="є"/><glyph d="M438 137c0 -88 -75 -143 -193 -143c-84 0 -146 22 -195 69l35 35c38 -40 89 -59 158 -59c94 0 145 33 145 98c0 50 -29 75 -92 81l-80 7c-97 8 -145 51 -145 126c0 83 68 137 173 137c66 0 127 -19 169 -51l-34 -34c-37 27 -82 41 -135 41c-79 0 -123 -34 -123 -93 c0 -50 30 -75 98 -81l78 -7c80 -7 141 -32 141 -126z" glyph-name="afii10102" horiz-adv-x="494" unicode="ѕ"/><glyph d="M97 0v482h51v-482h-51zM91 649v63h63v-63h-63z" glyph-name="afii10103" horiz-adv-x="245" unicode="і"/><glyph d="M97 0v482h51v-482h-51zM-10 600v77h58v-77h-58zM198 600v77h58v-77h-58z" glyph-name="afii10104" horiz-adv-x="245" unicode="ї"/><glyph d="M148 -105c0 -76 -37 -125 -116 -125h-44v45h35c57 0 74 26 74 81v586h51v-587zM91 649v63h63v-63h-63z" glyph-name="afii10105" horiz-adv-x="245" unicode="ј"/><glyph d="M706 142c0 63 -37 99 -106 99h-153v-198h153c69 0 106 35 106 99zM145 482h302v-198h161c90 0 149 -56 149 -142s-59 -142 -149 -142h-212v439h-201v-187c0 -200 -69 -252 -153 -252h-22v43h15c44 0 110 17 110 228v211z" glyph-name="afii10106" horiz-adv-x="797" unicode="љ"/><glyph d="M772 142c0 -86 -59 -142 -149 -142h-212v241h-263v-241h-51v482h51v-198h263v198h51v-198h161c90 0 149 -56 149 -142zM721 142c0 63 -37 99 -106 99h-153v-198h153c69 0 106 35 106 99z" glyph-name="afii10107" horiz-adv-x="812" unicode="њ"/><glyph d="M468 0h-51v299c0 93 -47 144 -133 144s-136 -53 -136 -144v-299h-51v564h-61v38h61v110h51v-110h254v-38h-254v-139c42 44 81 63 143 63c109 0 177 -69 177 -180v-308z" glyph-name="afii10108" horiz-adv-x="559" unicode="ћ"/><glyph d="M153 482v-232l233 232h66l-233 -229l256 -253h-70l-252 248v-248h-51v482h51zM268 590h-58l97 147h67z" glyph-name="afii10109" horiz-adv-x="485" unicode="ќ"/><glyph d="M355 697c-7 -83 -56 -120 -140 -120s-133 37 -140 120h51c5 -52 35 -80 89 -80s84 28 89 80h51zM416 482l-224 -613c-11 -30 -19 -43 -33 -56c-22 -20 -53 -31 -91 -31h-24v45h19c50 0 69 14 88 66l39 107l-176 482h56l145 -422l145 422h56z" glyph-name="afii10110" horiz-adv-x="430" unicode="ў"/><glyph d="M462 0h-157v-150h-51v150h-157v482h51v-439h263v439h51v-482z" glyph-name="afii10193" horiz-adv-x="559" unicode="џ"/><glyph d="M540 664h-368v-664h-54v712h368v170h54v-218z" glyph-name="afii10050" horiz-adv-x="564" unicode="Ґ"/><glyph d="M401 439h-249v-439h-51v482h249v160h51v-203z" glyph-name="afii10098" horiz-adv-x="411" unicode="ґ"/><glyph d="M53 240v47h408v-47h-408z" glyph-name="endash" unicode="–"/><glyph d="M82 240v47h709v-47h-709z" glyph-name="emdash" horiz-adv-x="873" unicode="—"/><glyph d="M791 240h-709v47h709v-47z" glyph-name="afii00208" horiz-adv-x="873" unicode="―"/><glyph d="M95 642v70l70 70v-140h-70z" glyph-name="quoteleft" horiz-adv-x="260" unicode="‘"/><glyph d="M95 572v140h70v-70z" glyph-name="quoteright" horiz-adv-x="260" unicode="’"/><glyph d="M95 -70v140h70v-70z" glyph-name="quotesinglbase" horiz-adv-x="260" unicode="‚"/><glyph d="M95 642v70l70 70v-140h-70zM251 642v70l70 70v-140h-70z" glyph-name="quotedblleft" horiz-adv-x="416" unicode="“"/><glyph d="M95 572v140h70v-70zM251 572v140h70v-70z" glyph-name="quotedblright" horiz-adv-x="416" unicode="”"/><glyph d="M95 -70v140h70v-70zM251 -70v140h70v-70z" glyph-name="quotedblbase" horiz-adv-x="416" unicode="„"/><glyph d="M331 457v-457h-51v457h-200v45h200v210h51v-210h203v-45h-203z" glyph-name="dagger" horiz-adv-x="614" unicode="†"/><glyph d="M331 -20v-210h-51v210h-200v45h200v432h-200v45h200v210h51v-210h203v-45h-203v-432h203v-45h-203z" glyph-name="daggerdbl" horiz-adv-x="614" unicode="‡"/><glyph d="M436 334c0 -90 -73 -163 -163 -163s-163 73 -163 163s73 163 163 163s163 -73 163 -163z" glyph-name="bullet" horiz-adv-x="546" unicode="•"/><glyph d="M325 0v74h74v-74h-74zM555 0v74h74v-74h-74zM95 0v74h74v-74h-74z" glyph-name="ellipsis" horiz-adv-x="724" unicode="…"/><glyph d="M759 127c0 -80 -54 -134 -131 -134c-79 0 -132 54 -132 134v107c0 80 53 134 132 134c77 0 131 -54 131 -134v-107zM1099 127c0 -80 -54 -134 -131 -134c-79 0 -132 54 -132 134v107c0 80 53 134 132 134c77 0 131 -54 131 -134v-107zM332 478c0 -79 -54 -133 -131 -133 c-79 0 -132 54 -132 133v107c0 80 53 134 132 134c77 0 131 -54 131 -134v-107zM1055 232c0 60 -24 98 -87 98c-64 0 -88 -38 -88 -98v-103c0 -60 24 -98 88 -98c63 0 87 37 87 97v104zM715 232c0 60 -24 98 -87 98s-88 -38 -88 -98v-103c0 -60 25 -98 88 -98s87 38 87 98 v103zM288 583c0 60 -24 98 -87 98s-88 -38 -88 -98v-103c0 -60 25 -97 88 -97c61 0 87 37 87 97v103zM271 0h-45l332 712h45z" glyph-name="perthousand" horiz-adv-x="1168" unicode="‰"/><glyph d="M42 265l196 196v-66l-130 -130l130 -130v-66z" glyph-name="guilsinglleft" horiz-adv-x="320" unicode="‹"/><glyph d="M82 69v66l130 130l-130 130v66l196 -196z" glyph-name="guilsinglright" horiz-adv-x="320" unicode="›"/><glyph d="M-55 0h-45l332 712h45z" glyph-name="fraction" horiz-adv-x="177" unicode="⁄"/><glyph d="M600 202c-24 -128 -116 -208 -242 -208c-68 0 -131 26 -178 73c-51 54 -62 106 -65 201h-65v38h64v106h-64v38h65c3 90 14 144 65 195c47 47 110 73 178 73c128 0 218 -80 242 -208h-55c-21 99 -91 160 -187 160c-51 0 -99 -19 -135 -55c-39 -39 -51 -81 -54 -165h244 v-38h-245v-106h245v-38h-244c3 -89 14 -131 54 -171c36 -36 84 -55 135 -55c96 0 168 61 189 160h53z" glyph-name="Euro" horiz-adv-x="676" unicode="€"/><glyph d="M879 285h-262v44h262v-44zM548 0h-51l-361 616v-616h-51v712h51l361 -614v614h51v-712zM881 542c0 -51 -6 -104 -41 -139c-23 -23 -53 -35 -91 -35s-68 12 -91 35c-35 35 -41 88 -41 139s6 104 41 139c23 23 53 35 91 35s68 -12 91 -35c35 -35 41 -88 41 -139zM834 542 c0 38 -2 84 -25 107c-15 15 -36 24 -60 24s-45 -9 -60 -24c-23 -23 -25 -69 -25 -107s2 -84 25 -107c15 -15 36 -24 60 -24s45 9 60 24c23 23 25 69 25 107z" glyph-name="afii61352" horiz-adv-x="940" unicode="№"/><glyph d="M709 285v328l-110 -218h-46l-110 218v-328h-44v427h44l133 -270l133 270h44v-427h-44zM198 671v-386h-44v386h-122v41h288v-41h-122z" glyph-name="trademark" horiz-adv-x="809" unicode="™"/><glyph d="M570 0h-186v47c46 22 79 45 105 88c25 41 27 114 27 221c0 153 -4 208 -55 259c-36 36 -84 55 -135 55s-99 -19 -135 -55c-51 -51 -55 -106 -55 -259c0 -107 2 -180 27 -221c26 -43 59 -66 105 -88v-47h-186v47h91c-30 24 -48 45 -62 71c-32 59 -29 150 -29 238 c0 161 1 224 66 289c47 47 111 73 178 73s131 -26 178 -73c65 -65 66 -128 66 -289c0 -88 3 -179 -29 -238c-14 -26 -32 -47 -62 -71h91v-47z" glyph-name="uni2126" horiz-adv-x="652" unicode="Ω"/><glyph d="M462 -141l-404 404l404 404h69l-379 -379h819v-50h-819l379 -379h-69z" glyph-name="arrowleft" horiz-adv-x="1027" unicode="←"/><glyph d="M918 247l-379 379v-819h-50v819l-379 -379v69l404 404l404 -404v-69z" glyph-name="arrowup" horiz-adv-x="1027" unicode="↑"/><glyph d="M498 -141l379 379h-819v50h819l-379 379h69l404 -404l-404 -404h-69z" glyph-name="arrowright" horiz-adv-x="1027" unicode="→"/><glyph d="M918 211l-404 -404l-404 404v69l379 -379v819h50v-819l379 379v-69z" glyph-name="arrowdown" horiz-adv-x="1027" unicode="↓"/><glyph d="M854 -42l-35 -35l-580 579v-536l-48 48v572h571l49 -49h-536z" glyph-name="uni2196" horiz-adv-x="1027" unicode="↖"/><glyph d="M836 14l-48 -48v536l-580 -579l-35 35l579 579h-536l49 49h571v-572z" glyph-name="uni2197" horiz-adv-x="1027" unicode="↗"/><glyph d="M836 -77h-571l-49 48h536l-579 579l35 36l580 -579v536l48 -49v-571z" glyph-name="uni2198" horiz-adv-x="1027" unicode="↘"/><glyph d="M854 550l-579 -579h536l-49 -48h-571v571l48 49v-536l580 579z" glyph-name="uni2199" horiz-adv-x="1027" unicode="↙"/><glyph d="M443 241c0 -69 -9 -143 -58 -194c-33 -34 -77 -53 -129 -53s-96 19 -129 53c-49 51 -58 125 -58 194c0 76 9 148 58 197c27 27 70 50 122 50c54 0 101 -12 143 -68v86c0 95 -45 167 -146 167c-61 0 -87 -19 -125 -53l-33 33c51 45 86 65 158 65c126 0 197 -85 197 -209 v-268zM392 241c0 56 -3 121 -41 161c-25 26 -58 41 -95 41s-70 -15 -95 -41c-38 -40 -41 -105 -41 -161s3 -121 41 -161c25 -26 58 -41 95 -41s70 15 95 41c38 40 41 105 41 161z" glyph-name="partialdiff" horiz-adv-x="540" unicode="∂"/><glyph d="M581 0h-571l262 712h47zM511 48l-216 592l-215 -592h431z" glyph-name="uni2206" horiz-adv-x="591" unicode="∆"/><glyph d="M589 -230h-54v942h-371v-942h-54v990h479v-990z" glyph-name="product" horiz-adv-x="699" unicode="∏"/><glyph d="M495 -230h-432v48l207 461l-207 433v48h432v-48h-371l195 -409v-48l-195 -437h371v-48z" glyph-name="summation" horiz-adv-x="551" unicode="∑"/><glyph d="M53 240v47h408v-47h-408z" glyph-name="minus" unicode="−"/><glyph d="M95 227v74h74v-74h-74z" glyph-name="uni2219" horiz-adv-x="264" unicode="∙"/><glyph d="M520 664h-88l-217 -664h-46l-159 482h56l126 -387l199 617h129v-48z" glyph-name="radical" horiz-adv-x="550" unicode="√"/><glyph d="M720 260c0 -85 -61 -148 -147 -148c-69 0 -115 31 -177 108c-62 -77 -109 -109 -176 -109c-86 0 -148 64 -148 149s62 150 148 150c65 0 114 -33 176 -110c62 77 107 110 177 110c86 0 147 -65 147 -150zM366 260c-52 63 -89 105 -143 105c-61 0 -103 -44 -103 -105 s42 -102 103 -102c54 0 91 39 143 102zM672 260c0 61 -42 103 -103 103c-54 0 -91 -40 -143 -103c52 -63 89 -102 143 -102c61 0 103 41 103 102z" glyph-name="infinity" horiz-adv-x="792" unicode="∞"/><glyph d="M95 227v74h74v-74h-74z" glyph-name="uni2224" horiz-adv-x="264" unicode="∤"/><glyph d="M95 227v74h74v-74h-74z" glyph-name="logicaland" horiz-adv-x="264" unicode="∧"/><glyph d="M299 667h-35c-51 0 -74 -30 -74 -80v-691c0 -73 -40 -126 -116 -126h-44v45h35c51 0 74 30 74 80v691c0 73 40 126 116 126h44v-45z" glyph-name="integral" horiz-adv-x="329" unicode="∫"/><glyph d="M461 357c-54 -54 -77 -62 -116 -62c-33 0 -66 16 -102 31c-28 12 -50 23 -76 23c-28 0 -43 -5 -83 -45l-31 31c54 54 77 62 116 62c33 0 66 -16 102 -31c28 -12 50 -23 76 -23c28 0 43 5 83 45zM461 197c-54 -54 -77 -62 -116 -62c-33 0 -66 16 -102 31 c-28 12 -50 23 -76 23c-28 0 -43 -5 -83 -45l-31 31c54 54 77 62 116 62c33 0 66 -16 102 -31c28 -12 50 -23 76 -23c28 0 43 5 83 45z" glyph-name="approxequal" unicode="≈"/><glyph d="M461 163h-271l-104 -104l-33 33l71 71h-71v47h118l106 106h-224v47h271l104 104l33 -33l-71 -71h71v-47h-118l-106 -106h224v-47z" glyph-name="notequal" unicode="≠"/><glyph d="M409 119l-304 161v48l304 161v-55l-254 -130l254 -130v-55zM409 -6l-304 161v55l304 -161v-55z" glyph-name="lessequal" unicode="≤"/><glyph d="M409 280l-304 -161v55l254 130l-254 130v55l304 -161v-48zM409 155l-304 -161v55l304 161v-55z" glyph-name="greaterequal" unicode="≥"/><glyph d="M95 227v74h74v-74h-74z" glyph-name="dotmath" horiz-adv-x="264" unicode="⋅"/><glyph d="M582 356l-255 -363l-255 363l255 363zM525 356l-198 285l-198 -285l198 -287z" glyph-name="lozenge" horiz-adv-x="654" unicode="◊"/><glyph d="M182 -94c-31 31 -50 49 -66 80s-19 61 -19 93v554c0 32 3 62 19 93s35 49 66 80l35 -35c-23 -23 -42 -40 -54 -65c-10 -21 -15 -47 -15 -79v-542c0 -31 5 -58 15 -79c12 -25 31 -42 54 -65z" glyph-name="parenleft.case" horiz-adv-x="284"/><glyph d="M187 79c0 -32 -2 -62 -19 -93c-16 -31 -35 -49 -66 -80l-37 37c23 23 42 40 54 65c11 21 14 46 14 77v542c0 31 -3 56 -14 77c-12 25 -31 42 -54 65l37 37c31 -31 50 -49 66 -80c17 -31 19 -61 19 -93v-554z" glyph-name="parenright.case" horiz-adv-x="284"/><glyph d="M82 332v47h262v-47h-262z" glyph-name="hyphen.case" horiz-adv-x="426"/><glyph d="M97 -74v860h148v-45h-97v-770h97v-45h-148z" glyph-name="bracketleft.case" horiz-adv-x="290"/><glyph d="M45 -74v42h100v776h-100v42h148v-860h-148z" glyph-name="bracketright.case" horiz-adv-x="290"/><glyph d="M252 -74c-49 0 -77 7 -97 27c-19 19 -26 40 -26 95v207c0 28 -6 48 -18 60c-11 11 -24 19 -43 19h-18v44h18c19 0 32 8 43 19c12 12 18 32 18 60v207c0 55 7 76 26 95c20 20 48 27 97 27h14v-45h-13c-36 0 -48 -2 -59 -13s-14 -28 -14 -65v-207c0 -52 -18 -79 -61 -100 c43 -21 61 -48 61 -100v-207c0 -37 3 -54 14 -65s23 -13 59 -13h13v-45h-14z" glyph-name="braceleft.case" horiz-adv-x="316"/><glyph d="M248 334c-19 0 -32 -8 -43 -19c-12 -12 -18 -32 -18 -60v-207c0 -55 -7 -76 -26 -95c-20 -20 -48 -27 -97 -27h-14v45h13c36 0 48 2 59 13s14 28 14 65v207c0 52 18 79 61 100c-43 21 -61 48 -61 100v207c0 37 -3 54 -14 65s-23 13 -59 13h-13v45h14c49 0 77 -7 97 -27 c19 -19 26 -40 26 -95v-207c0 -28 6 -48 18 -60c11 -11 24 -19 43 -19h18v-44h-18z" glyph-name="braceright.case" horiz-adv-x="316"/><glyph d="M42 356l196 196v-66l-130 -130l130 -130v-66zM249 356l196 196v-66l-130 -130l130 -130v-66z" glyph-name="guillemotleft.case" horiz-adv-x="527"/><glyph d="M82 332v47h262v-47h-262z" glyph-name="uni00AD.case" horiz-adv-x="426"/><glyph d="M82 160v66l130 130l-130 130v66l196 -196zM289 160v66l130 130l-130 130v66l196 -196z" glyph-name="guillemotright.case" horiz-adv-x="527"/><glyph d="M53 332v47h408v-47h-408z" glyph-name="endash.case"/><glyph d="M82 332v47h709v-47h-709z" glyph-name="emdash.case" horiz-adv-x="873"/><glyph d="M42 356l196 196v-66l-130 -130l130 -130v-66z" glyph-name="guilsinglleft.case" horiz-adv-x="320"/><glyph d="M82 160v66l130 130l-130 130v66l196 -196z" glyph-name="guilsinglright.case" horiz-adv-x="320"/><glyph d="M239 590l-106 147h67l97 -147h-58z" glyph-name="grave.lc" horiz-adv-x="500"/><glyph d="M130 600v77h58v-77h-58zM338 600v77h58v-77h-58z" glyph-name="dieresis.lc" horiz-adv-x="526"/><glyph d="M398 610h-296v46h296v-46z" glyph-name="macron.lc" horiz-adv-x="500"/><glyph d="M274 590h-58l97 147h67z" glyph-name="acute.lc" horiz-adv-x="526"/><glyph d="M356 590l-93 109l-93 -109h-57l123 147h54l123 -147h-57z" glyph-name="circumflex.lc" horiz-adv-x="526"/><glyph d="M261 590h-54l-123 147h57l93 -109l93 109h57z" glyph-name="caron.lc" horiz-adv-x="452"/><glyph d="M415 722c-9 -85 -57 -135 -165 -135s-156 50 -165 135h45c8 -56 51 -90 120 -90s112 34 120 90h45z" glyph-name="breve.lc" horiz-adv-x="500"/><glyph d="M219 610v63h62v-63h-62z" glyph-name="dotaccent.lc" horiz-adv-x="500"/><glyph d="M363 677c0 -63 -51 -115 -114 -115s-114 52 -114 115s51 114 114 114s114 -51 114 -114zM322 677c0 40 -33 72 -73 72s-73 -32 -73 -72s33 -73 73 -73s73 33 73 73z" glyph-name="ring.lc" horiz-adv-x="524"/><glyph d="M412 653c-46 -46 -71 -48 -89 -48c-28 0 -46 11 -69 24c-19 11 -36 21 -56 21c-16 0 -28 -2 -59 -33l-30 29c46 46 70 48 89 48c29 0 45 -9 69 -24c21 -13 36 -21 56 -21c15 0 28 2 59 33z" glyph-name="tilde.lc" horiz-adv-x="526"/><glyph d="M188 590h-58l97 147h67zM334 590h-57l97 147h67z" glyph-name="hungarumlaut.lc" horiz-adv-x="500"/><glyph d="M390 697c-7 -83 -56 -120 -140 -120s-133 37 -140 120h51c5 -52 35 -80 89 -80s84 28 89 80h51z" glyph-name="brevecyr.lc" horiz-adv-x="500"/><glyph d="M130 600v77h58v-77h-58z" glyph-name="diedot.lc" horiz-adv-x="526"/><glyph d="M444 184c0 -111 -77 -190 -187 -190c-109 0 -187 79 -187 190v344c0 111 78 190 187 190c110 0 187 -79 187 -190v-344zM393 523c0 84 -47 150 -136 150s-136 -66 -136 -150v-334c0 -84 47 -150 136 -150s136 66 136 150v334z" glyph-name="zero.lf"/><glyph d="M179 0v654l-129 -114v61l129 111h51v-712h-51z" glyph-name="one.lf" horiz-adv-x="350"/><glyph d="M40 0v45l286 375c28 36 40 70 40 111c0 85 -50 142 -137 142c-74 0 -137 -42 -137 -142h-51c0 106 71 187 188 187c114 0 188 -75 188 -187c0 -53 -13 -90 -49 -137l-267 -349h316v-45h-377z" glyph-name="two.lf" horiz-adv-x="472"/><glyph d="M445 190c0 -127 -87 -197 -202 -197c-111 0 -195 57 -203 180h51c8 -97 77 -135 152 -135c85 0 151 57 151 152c0 96 -46 152 -155 152h-12v45h12c96 0 141 51 141 143c0 93 -61 144 -138 144c-84 0 -133 -50 -142 -130h-51c11 112 89 175 193 175 c112 0 189 -74 189 -189c0 -76 -29 -131 -101 -162c80 -27 115 -87 115 -178z" glyph-name="three.lf" horiz-adv-x="505"/><glyph d="M368 117v-117h-51v117h-282v45l262 550h54l-262 -550h228v226h51v-226h95v-45h-95z" glyph-name="four.lf" horiz-adv-x="503"/><glyph d="M437 233c0 -68 -4 -138 -55 -189c-34 -34 -80 -51 -137 -51c-59 0 -106 16 -137 48c-28 28 -44 67 -48 116h51c11 -76 50 -119 134 -119c39 0 75 13 98 36c42 42 43 105 43 159c0 89 -17 190 -133 190c-65 0 -114 -27 -129 -75h-45v364h342v-45h-297v-252 c31 35 76 53 135 53c51 0 91 -14 120 -43c51 -51 58 -125 58 -192z" glyph-name="five.lf" horiz-adv-x="505"/><glyph d="M427 201c0 -114 -68 -207 -188 -207s-189 84 -189 200c0 47 11 89 40 149l183 369h51l-164 -329c24 11 52 17 83 17c116 0 184 -88 184 -199zM376 197c0 85 -47 158 -138 158c-84 0 -137 -62 -137 -158s53 -158 137 -158s138 62 138 158z" glyph-name="six.lf" horiz-adv-x="477"/><glyph d="M161 0h-52l252 667h-270v-112h-51v157h373v-45z" glyph-name="seven.lf" horiz-adv-x="448"/><glyph d="M466 192c0 -114 -88 -198 -203 -198s-203 84 -203 198c0 83 45 142 113 178c-64 35 -98 89 -98 162c0 104 77 186 188 186s188 -82 188 -186c0 -73 -32 -127 -97 -162c68 -36 112 -95 112 -178zM415 192c0 87 -66 154 -152 154s-152 -67 -152 -154 c0 -88 66 -153 152 -153s152 65 152 153zM400 532c0 83 -56 141 -137 141s-137 -58 -137 -141s56 -141 137 -141s137 58 137 141z" glyph-name="eight.lf" horiz-adv-x="526"/><glyph d="M427 518c0 -47 -11 -89 -40 -149l-183 -369h-51l164 329c-24 -11 -52 -17 -84 -17c-117 0 -183 88 -183 199c0 114 68 207 188 207s189 -84 189 -200zM376 515c0 96 -54 158 -138 158s-137 -62 -137 -158c0 -85 46 -158 137 -158c84 0 138 62 138 158z" glyph-name="nine.lf" horiz-adv-x="477"/><glyph d="M444 184c0 -111 -77 -190 -187 -190s-187 79 -187 190v229c0 111 77 190 187 190s187 -79 187 -190v-229zM393 189v219c0 84 -47 150 -136 150s-136 -66 -136 -150v-219c0 -84 47 -150 136 -150s136 66 136 150z" glyph-name="zero.osf"/><glyph d="M230 0h-51v539l-129 -114v61l129 111h51v-597z" glyph-name="one.osf" horiz-adv-x="350"/><glyph d="M436 0h-396v45l258 258c42 42 67 89 67 143c0 73 -57 132 -136 132c-75 0 -136 -55 -136 -133h-51c0 99 78 178 187 178c114 0 187 -80 187 -177c0 -70 -33 -124 -80 -171l-230 -230h330v-45z" glyph-name="two.osf" horiz-adv-x="491"/><glyph d="M445 74c0 -127 -88 -197 -202 -197c-111 0 -196 57 -203 180h51c7 -97 78 -135 152 -135c85 0 151 57 151 152c0 96 -46 152 -155 152h-12v45h12c95 0 141 52 141 143c0 94 -61 144 -138 144c-84 0 -133 -51 -142 -130h-51c10 111 90 175 193 175c112 0 189 -75 189 -189 c0 -75 -30 -132 -101 -162c79 -27 115 -88 115 -178z" glyph-name="three.osf" horiz-adv-x="509"/><glyph d="M483 30h-95v-153h-51v153h-302v45l272 550h53l-272 -550h249v226h51v-226h95v-45z" glyph-name="four.osf" horiz-adv-x="523"/><glyph d="M437 118c0 -68 -4 -138 -55 -189c-33 -33 -78 -51 -137 -51c-58 0 -106 16 -137 48c-27 27 -44 65 -48 116h51c10 -76 51 -119 134 -119c39 0 75 13 98 36c42 42 43 106 43 159c0 89 -16 190 -133 190c-65 0 -114 -27 -129 -75h-45v364h342v-45h-297v-252 c31 36 77 53 135 53c51 0 92 -15 120 -43c50 -50 58 -125 58 -192z" glyph-name="five.osf" horiz-adv-x="505"/><glyph d="M464 219c0 -124 -74 -225 -204 -225s-205 90 -205 217c0 49 14 106 46 162l202 355h53l-183 -314c32 16 57 21 91 21c127 0 200 -95 200 -216zM413 214c0 94 -52 178 -154 178c-94 0 -153 -71 -153 -178c0 -106 59 -177 153 -177s154 71 154 177z" glyph-name="six.osf" horiz-adv-x="519"/><glyph d="M448 552l-300 -677h-53l300 677h-299v-112h-51v157h403v-45z" glyph-name="seven.osf" horiz-adv-x="483"/><glyph d="M466 192c0 -114 -88 -198 -203 -198s-203 84 -203 198c0 82 45 142 113 178c-63 34 -98 89 -98 162c0 105 77 186 188 186s188 -81 188 -186c0 -73 -34 -128 -97 -162c68 -36 112 -96 112 -178zM415 192c0 87 -66 154 -152 154s-152 -67 -152 -154s66 -153 152 -153 s152 66 152 153zM400 532c0 82 -56 141 -137 141s-137 -59 -137 -141c0 -83 56 -141 137 -141s137 58 137 141z" glyph-name="eight.osf" horiz-adv-x="526"/><glyph d="M464 386c0 -49 -14 -106 -46 -162l-202 -355h-53l183 314c-32 -16 -57 -21 -91 -21c-127 0 -200 95 -200 216c0 124 74 225 204 225s205 -90 205 -217zM413 383c0 106 -59 177 -153 177s-154 -71 -154 -177c0 -94 52 -178 154 -178c94 0 153 71 153 178z" glyph-name="nine.osf" horiz-adv-x="519"/><glyph d="M195 712l-6 -520h-44l-6 520h56zM207 37c0 -22 -18 -40 -40 -40s-40 18 -40 40s18 40 40 40s40 -18 40 -40z" glyph-name="exclam.ss01" horiz-adv-x="304"/><glyph d="M178 43c0 -25 -21 -46 -46 -46s-46 21 -46 46s21 46 46 46s46 -21 46 -46z" glyph-name="period.ss01" horiz-adv-x="264"/><glyph d="M206 343c0 -25 -21 -46 -46 -46s-46 21 -46 46s21 46 46 46s46 -21 46 -46zM206 43c0 -25 -21 -46 -46 -46s-46 21 -46 46s21 46 46 46s46 -21 46 -46z" glyph-name="colon.ss01" horiz-adv-x="292"/><glyph d="M194 -68l-68 -68v204h68v-136zM206 343c0 -25 -21 -46 -46 -46s-46 21 -46 46s21 46 46 46s46 -21 46 -46z" glyph-name="semicolon.ss01" horiz-adv-x="292"/><glyph d="M438 542c0 -46 -18 -81 -44 -119l-85 -125c-13 -19 -18 -44 -18 -60v-47h-51v45c0 38 9 61 29 90l84 124c20 30 34 54 34 92c0 74 -55 131 -128 131c-78 0 -128 -61 -128 -131h-51c0 95 73 176 179 176c102 0 179 -76 179 -176zM305 37c0 -22 -18 -40 -40 -40 s-40 18 -40 40s18 40 40 40s40 -18 40 -40z" glyph-name="question.ss01" horiz-adv-x="488"/><glyph d="M873 316c0 -157 -121 -292 -286 -292h-48l13 61c-32 -43 -72 -67 -126 -67c-78 0 -139 42 -139 144c0 26 4 60 8 80c14 77 41 139 83 176c38 33 80 46 120 46c67 0 102 -36 114 -73l14 68h45l-79 -395c135 0 232 123 232 252c0 181 -134 305 -315 305 c-207 0 -376 -171 -376 -384c0 -219 151 -388 383 -388h41l-9 -44h-40c-247 0 -426 185 -426 432c0 240 191 431 427 431c216 0 364 -142 364 -352zM588 321c0 75 -47 100 -92 100c-33 0 -66 -14 -89 -37c-28 -28 -48 -66 -63 -143c-5 -28 -9 -58 -9 -79 c0 -75 46 -101 91 -101c7 0 52 1 90 39c28 28 48 65 63 142c5 28 9 58 9 79z" glyph-name="at.ss01" horiz-adv-x="942"/><glyph d="M527 83c-57 -54 -116 -89 -201 -89c-67 0 -131 26 -178 73c-65 65 -66 128 -66 289s1 224 66 289c47 47 111 73 178 73c85 0 144 -35 201 -89l-36 -36c-49 48 -91 77 -165 77c-51 0 -100 -19 -135 -55c-51 -51 -55 -106 -55 -259s4 -208 55 -259c35 -36 84 -55 135 -55 c74 0 116 29 165 77z" glyph-name="C.ss01" horiz-adv-x="596"/><glyph d="M571 248c0 -74 -16 -127 -58 -172c-47 -52 -115 -82 -187 -82c-67 0 -131 26 -178 73c-65 65 -66 128 -66 289s1 224 66 289c47 47 111 73 178 73c92 0 149 -36 212 -99l-36 -36c-54 54 -96 87 -176 87c-51 0 -99 -19 -135 -55c-51 -51 -55 -106 -55 -259s4 -208 55 -259 c35 -36 84 -55 135 -55c56 0 111 24 148 69c31 38 43 80 43 141v64h-191v48h245v-116z" glyph-name="G.ss01" horiz-adv-x="648"/><glyph d="M148 0h-51v482h51v-482zM160 681c0 -21 -17 -38 -37 -38c-21 0 -38 17 -38 37c0 21 17 38 37 38c21 0 38 -17 38 -37z" glyph-name="i.ss01" horiz-adv-x="245"/><glyph d="M148 -105c0 -75 -38 -125 -116 -125h-44v45h35c57 0 74 27 74 81v586h51v-587zM160 681c0 -21 -17 -38 -37 -38c-21 0 -38 17 -38 37c0 21 17 38 37 38c21 0 38 -17 38 -37z" glyph-name="j.ss01" horiz-adv-x="245"/><glyph d="M165 -230h-56l6 520h44zM177 445c0 -22 -18 -40 -40 -40s-40 18 -40 40s18 40 40 40s40 -18 40 -40z" glyph-name="exclamdown.ss01" horiz-adv-x="304"/><glyph d="M391 638c0 -21 -17 -38 -37 -38c-21 0 -38 17 -38 37c0 21 17 38 37 38c21 0 38 -17 38 -37zM184 638c0 -21 -17 -38 -37 -38c-21 0 -38 17 -38 37c0 21 17 38 37 38c21 0 38 -17 38 -37z" glyph-name="dieresis.ss01" horiz-adv-x="500"/><glyph d="M178 260c0 -25 -21 -46 -46 -46s-46 21 -46 46s21 46 46 46s46 -21 46 -46z" glyph-name="periodcentered.ss01" horiz-adv-x="264"/><glyph d="M320 -133c0 -54 -40 -94 -100 -94v37c33 0 59 25 59 57s-26 57 -59 57v37c60 0 100 -40 100 -94z" glyph-name="cedilla.ss01" horiz-adv-x="500"/><glyph d="M408 -60c0 -95 -73 -176 -179 -176c-102 0 -179 76 -179 176c0 46 18 81 44 119l85 125c13 19 18 44 18 60v47h51v-45c0 -38 -9 -61 -29 -90l-84 -124c-20 -30 -34 -54 -34 -92c0 -74 55 -131 128 -131c78 0 128 61 128 131h51zM263 445c0 -22 -18 -40 -40 -40 s-40 18 -40 40s18 40 40 40s40 -18 40 -40z" glyph-name="questiondown.ss01" horiz-adv-x="488"/><glyph d="M529 0l-62 173h-332l-62 -173h-58l262 712h48l262 -712h-58zM301 640l-149 -419h298zM442 828c0 -21 -17 -38 -37 -38c-21 0 -38 17 -38 37c0 21 17 38 37 38c21 0 38 -17 38 -37zM235 828c0 -21 -17 -38 -37 -38c-21 0 -38 17 -38 37c0 21 17 38 37 38 c21 0 38 -17 38 -37z" glyph-name="Adieresis.ss01" horiz-adv-x="602"/><glyph d="M527 83c-57 -54 -116 -89 -201 -89c-67 0 -131 26 -178 73c-65 65 -66 128 -66 289s1 224 66 289c47 47 111 73 178 73c85 0 144 -35 201 -89l-36 -36c-49 48 -91 77 -165 77c-51 0 -100 -19 -135 -55c-51 -51 -55 -106 -55 -259s4 -208 55 -259c35 -36 84 -55 135 -55 c74 0 116 29 165 77zM379 -133c0 -54 -40 -94 -100 -94v37c33 0 59 25 59 57s-26 57 -59 57v37c60 0 100 -40 100 -94z" glyph-name="Ccedilla.ss01" horiz-adv-x="596"/><glyph d="M110 0v712h432v-48h-378v-281h322v-48h-322v-287h378v-48h-432zM455 828c0 -21 -17 -38 -37 -38c-21 0 -38 17 -38 37c0 21 17 38 37 38c21 0 38 -17 38 -37zM248 828c0 -21 -17 -38 -37 -38c-21 0 -38 17 -38 37c0 21 17 38 37 38c21 0 38 -17 38 -37z" glyph-name="Edieresis.ss01" horiz-adv-x="598"/><glyph d="M110 0v712h54v-712h-54zM279 828c0 -21 -17 -38 -37 -38c-21 0 -38 17 -38 37c0 21 17 38 37 38c21 0 38 -17 38 -37zM72 828c0 -21 -17 -38 -37 -38c-21 0 -38 17 -38 37c0 21 17 38 37 38c21 0 38 -17 38 -37z" glyph-name="Idieresis.ss01" horiz-adv-x="274"/><glyph d="M570 356c0 -160 -1 -224 -66 -289c-47 -47 -110 -73 -178 -73s-131 26 -178 73c-65 65 -66 129 -66 289c0 161 1 224 66 289c47 47 110 73 178 73s131 -26 178 -73c65 -65 66 -128 66 -289zM516 356c0 152 -4 208 -55 259c-36 36 -84 55 -135 55s-99 -19 -135 -55 c-51 -51 -55 -107 -55 -259s4 -208 55 -259c36 -36 84 -55 135 -55s99 19 135 55c51 51 55 107 55 259zM467 828c0 -21 -17 -38 -37 -38c-21 0 -38 17 -38 37c0 21 17 38 37 38c21 0 38 -17 38 -37zM260 828c0 -21 -17 -38 -37 -38c-21 0 -38 17 -38 37c0 21 17 38 37 38 c21 0 38 -17 38 -37z" glyph-name="Odieresis.ss01" horiz-adv-x="652"/><glyph d="M588 231c0 -139 -101 -237 -244 -237s-244 98 -244 237v481h54v-474c0 -118 75 -196 190 -196s190 78 190 196v474h54v-481zM485 828c0 -21 -17 -38 -37 -38c-21 0 -38 17 -38 37c0 21 17 38 37 38c21 0 38 -17 38 -37zM278 828c0 -21 -17 -38 -37 -38 c-21 0 -38 17 -38 37c0 21 17 38 37 38c21 0 38 -17 38 -37z" glyph-name="Udieresis.ss01" horiz-adv-x="688"/><glyph d="M380 0v48c-41 -41 -79 -54 -147 -54c-72 0 -111 12 -142 44c-23 23 -35 58 -35 94c0 88 63 139 168 139h156v54c0 77 -37 118 -136 118c-68 0 -102 -17 -133 -61l-37 32c41 57 91 74 170 74c128 0 187 -57 187 -158v-330h-51zM380 230h-150c-82 0 -123 -32 -123 -97 c0 -64 38 -94 126 -94c44 0 85 4 120 37c18 17 27 48 27 92v62zM390 638c0 -21 -17 -38 -37 -38c-21 0 -38 17 -38 37c0 21 17 38 37 38c21 0 38 -17 38 -37zM183 638c0 -21 -17 -38 -37 -38c-21 0 -38 17 -38 37c0 21 17 38 37 38c21 0 38 -17 38 -37z" glyph-name="adieresis.ss01" horiz-adv-x="524"/><glyph d="M440 68c-51 -57 -93 -74 -159 -74c-132 0 -212 94 -212 247s80 247 212 247c66 0 108 -17 159 -74l-35 -32c-41 46 -73 61 -124 61c-55 0 -99 -21 -128 -64c-24 -35 -33 -73 -33 -138s9 -103 33 -138c29 -43 73 -64 128 -64c51 0 83 16 124 61zM320 -133 c0 -54 -40 -94 -100 -94v37c33 0 59 25 59 57s-26 57 -59 57v37c60 0 100 -40 100 -94z" glyph-name="ccedilla.ss01" horiz-adv-x="493"/><glyph d="M455 230h-335c2 -52 5 -74 17 -102c24 -59 72 -88 141 -88c26 0 48 4 68 12c22 9 35 19 64 46l38 -30c-35 -34 -52 -46 -81 -58c-26 -11 -56 -16 -91 -16c-136 0 -207 85 -207 250c0 152 73 244 193 244s193 -89 193 -235v-23zM404 271c-2 38 -3 50 -9 69 c-19 65 -69 103 -133 103c-56 0 -103 -31 -125 -81c-11 -25 -15 -46 -17 -91h284zM405 638c0 -21 -17 -38 -37 -38c-21 0 -38 17 -38 37c0 21 17 38 37 38c21 0 38 -17 38 -37zM198 638c0 -21 -17 -38 -37 -38c-21 0 -38 17 -38 37c0 21 17 38 37 38c21 0 38 -17 38 -37z" glyph-name="edieresis.ss01" horiz-adv-x="523"/><glyph d="M97 0v482h51v-482h-51zM268 638c0 -21 -17 -38 -37 -38c-21 0 -38 17 -38 37c0 21 17 38 37 38c21 0 38 -17 38 -37zM61 638c0 -21 -17 -38 -37 -38c-21 0 -38 17 -38 37c0 21 17 38 37 38c21 0 38 -17 38 -37z" glyph-name="idieresis.ss01" horiz-adv-x="245"/><glyph d="M457 241c0 -69 -9 -143 -60 -194c-35 -35 -79 -53 -134 -53c-54 0 -99 18 -134 53c-51 51 -60 125 -60 194s9 143 60 194c35 35 80 53 134 53c55 0 99 -18 134 -53c51 -51 60 -125 60 -194zM406 241c0 56 -3 121 -43 161c-27 27 -61 41 -100 41s-73 -14 -100 -41 c-40 -40 -43 -105 -43 -161s3 -121 43 -161c27 -27 61 -41 100 -41s73 14 100 41c40 40 43 105 43 161zM404 638c0 -21 -17 -38 -37 -38c-21 0 -38 17 -38 37c0 21 17 38 37 38c21 0 38 -17 38 -37zM197 638c0 -21 -17 -38 -37 -38c-21 0 -38 17 -38 37c0 21 17 38 37 38 c21 0 38 -17 38 -37z" glyph-name="odieresis.ss01" horiz-adv-x="526"/><glyph d="M461 240h-408v47h408v-47zM303 433c0 -25 -21 -46 -46 -46s-46 21 -46 46s21 46 46 46s46 -21 46 -46zM303 94c0 -25 -21 -46 -46 -46s-46 21 -46 46s21 46 46 46s46 -21 46 -46z" glyph-name="divide.ss01"/><glyph d="M411 0v57c-36 -42 -83 -63 -142 -63c-53 0 -96 15 -128 46c-33 32 -50 77 -50 134v308h51v-299c0 -93 46 -144 133 -144s136 52 136 144v299h51v-482h-51zM417 638c0 -21 -17 -38 -37 -38c-21 0 -38 17 -38 37c0 21 17 38 37 38c21 0 38 -17 38 -37zM210 638 c0 -21 -17 -38 -37 -38c-21 0 -38 17 -38 37c0 21 17 38 37 38c21 0 38 -17 38 -37z" glyph-name="udieresis.ss01" horiz-adv-x="559"/><glyph d="M192 -131c-9 -26 -20 -45 -33 -56c-24 -23 -59 -31 -91 -31h-24v45h19c55 0 71 18 88 66l39 107l-176 482h56l145 -422l145 422h56zM356 638c0 -21 -17 -38 -37 -38c-21 0 -38 17 -38 37c0 21 17 38 37 38c21 0 38 -17 38 -37zM149 638c0 -21 -17 -38 -37 -38 c-21 0 -38 17 -38 37c0 21 17 38 37 38c21 0 38 -17 38 -37z" glyph-name="ydieresis.ss01" horiz-adv-x="430"/><glyph d="M529 0l-62 173h-332l-62 -173h-58l262 712h48l262 -712h-58zM301 640l-149 -419h298zM579 -227c-60 0 -100 40 -100 94s40 94 100 94v-37c-33 0 -59 -25 -59 -57s26 -57 59 -57v-37z" glyph-name="Aogonek.ss01" horiz-adv-x="602"/><glyph d="M380 0v48c-41 -41 -79 -54 -147 -54c-72 0 -111 12 -142 44c-23 23 -35 58 -35 94c0 88 63 139 168 139h156v54c0 77 -37 118 -136 118c-68 0 -102 -17 -133 -61l-37 32c41 57 91 74 170 74c128 0 187 -57 187 -158v-330h-51zM380 230h-150c-82 0 -123 -32 -123 -97 c0 -64 38 -94 126 -94c44 0 85 4 120 37c18 17 27 48 27 92v62zM423 -227c-60 0 -100 40 -100 94s40 94 100 94v-37c-33 0 -59 -25 -59 -57s26 -57 59 -57v-37z" glyph-name="aogonek.ss01" horiz-adv-x="524"/><glyph d="M527 83c-57 -54 -116 -89 -201 -89c-67 0 -131 26 -178 73c-65 65 -66 128 -66 289s1 224 66 289c47 47 111 73 178 73c85 0 144 -35 201 -89l-36 -36c-49 48 -91 77 -165 77c-51 0 -100 -19 -135 -55c-51 -51 -55 -106 -55 -259s4 -208 55 -259c35 -36 84 -55 135 -55 c74 0 116 29 165 77zM320 780h-58l97 147h67z" glyph-name="Cacute.ss01" horiz-adv-x="596"/><glyph d="M527 83c-57 -54 -116 -89 -201 -89c-67 0 -131 26 -178 73c-65 65 -66 128 -66 289s1 224 66 289c47 47 111 73 178 73c85 0 144 -35 201 -89l-36 -36c-49 48 -91 77 -165 77c-51 0 -100 -19 -135 -55c-51 -51 -55 -106 -55 -259s4 -208 55 -259c35 -36 84 -55 135 -55 c74 0 116 29 165 77zM419 780l-93 109l-93 -109h-57l123 147h54l123 -147h-57z" glyph-name="Ccircumflex.ss01" horiz-adv-x="596"/><glyph d="M527 83c-57 -54 -116 -89 -201 -89c-67 0 -131 26 -178 73c-65 65 -66 128 -66 289s1 224 66 289c47 47 111 73 178 73c85 0 144 -35 201 -89l-36 -36c-49 48 -91 77 -165 77c-51 0 -100 -19 -135 -55c-51 -51 -55 -106 -55 -259s4 -208 55 -259c35 -36 84 -55 135 -55 c74 0 116 29 165 77zM363 830c0 -21 -17 -38 -37 -38c-21 0 -38 17 -38 37c0 21 17 38 37 38c21 0 38 -17 38 -37z" glyph-name="Cdotaccent.ss01" horiz-adv-x="596"/><glyph d="M440 68c-51 -57 -93 -74 -159 -74c-132 0 -212 94 -212 247s80 247 212 247c66 0 108 -17 159 -74l-35 -32c-41 46 -73 61 -124 61c-55 0 -99 -21 -128 -64c-24 -35 -33 -73 -33 -138s9 -103 33 -138c29 -43 73 -64 128 -64c51 0 83 16 124 61zM318 650 c0 -21 -17 -38 -37 -38c-21 0 -38 17 -38 37c0 21 17 38 37 38c21 0 38 -17 38 -37z" glyph-name="cdotaccent.ss01" horiz-adv-x="493"/><glyph d="M527 83c-57 -54 -116 -89 -201 -89c-67 0 -131 26 -178 73c-65 65 -66 128 -66 289s1 224 66 289c47 47 111 73 178 73c85 0 144 -35 201 -89l-36 -36c-49 48 -91 77 -165 77c-51 0 -100 -19 -135 -55c-51 -51 -55 -106 -55 -259s4 -208 55 -259c35 -36 84 -55 135 -55 c74 0 116 29 165 77zM338 780h-54l-123 147h57l93 -109l93 109h57z" glyph-name="Ccaron.ss01" horiz-adv-x="596"/><glyph d="M392 0v62c-43 -56 -88 -68 -143 -68c-51 0 -93 17 -118 42c-49 49 -62 129 -62 205s13 156 62 205c25 25 67 42 118 42c55 0 100 -12 143 -68v292h51v-712h-51zM392 241c0 100 -18 202 -136 202s-136 -102 -136 -202s18 -202 136 -202s136 102 136 202zM596 584l-53 -56 v184h53v-128z" glyph-name="dcaron.ss01" horiz-adv-x="540"/><glyph d="M110 0v712h432v-48h-378v-281h322v-48h-322v-287h378v-48h-432zM352 830c0 -21 -17 -38 -37 -38c-21 0 -38 17 -38 37c0 21 17 38 37 38c21 0 38 -17 38 -37z" glyph-name="Edotaccent.ss01" horiz-adv-x="598"/><glyph d="M120 230c0 -123 54 -190 157 -190c57 0 92 17 133 58l38 -30c-49 -49 -94 -74 -174 -74c-133 0 -205 86 -205 247c0 156 72 247 193 247s193 -87 193 -235v-23h-335zM404 271c-3 46 -4 62 -17 91c-21 51 -69 81 -125 81s-104 -30 -125 -81c-11 -31 -14 -44 -17 -91h284z M298 648c0 -21 -17 -38 -37 -38c-21 0 -38 17 -38 37c0 21 17 38 37 38c21 0 38 -17 38 -37z" glyph-name="edotaccent.ss01" horiz-adv-x="523"/><glyph d="M110 0v712h432v-48h-378v-281h322v-48h-322v-287h378v-48h-432zM534 -227c-60 0 -100 40 -100 94s40 94 100 94v-37c-33 0 -59 -25 -59 -57s26 -57 59 -57v-37z" glyph-name="Eogonek.ss01" horiz-adv-x="598"/><glyph d="M120 230c0 -123 54 -190 157 -190c57 0 92 17 133 58l38 -30c-49 -49 -94 -74 -174 -74c-133 0 -205 86 -205 247c0 156 72 247 193 247s193 -87 193 -235v-23h-335zM404 271c-3 46 -4 62 -17 91c-21 51 -69 81 -125 81s-104 -30 -125 -81c-11 -31 -14 -44 -17 -91h284z M420 -227c-60 0 -100 40 -100 94s40 94 100 94v-37c-33 0 -59 -25 -59 -57s26 -57 59 -57v-37z" glyph-name="eogonek.ss01" horiz-adv-x="523"/><glyph d="M571 248c0 -74 -16 -127 -58 -172c-47 -52 -115 -82 -187 -82c-67 0 -131 26 -178 73c-65 65 -66 128 -66 289s1 224 66 289c47 47 111 73 178 73c92 0 149 -36 212 -99l-36 -36c-54 54 -96 87 -176 87c-51 0 -99 -19 -135 -55c-51 -51 -55 -106 -55 -259s4 -208 55 -259 c35 -36 84 -55 135 -55c56 0 111 24 148 69c31 38 43 80 43 141v64h-191v48h245v-116zM419 780l-93 109l-93 -109h-57l123 147h54l123 -147h-57z" glyph-name="Gcircumflex.ss01" horiz-adv-x="648"/><glyph d="M571 248c0 -74 -16 -127 -58 -172c-47 -52 -115 -82 -187 -82c-67 0 -131 26 -178 73c-65 65 -66 128 -66 289s1 224 66 289c47 47 111 73 178 73c92 0 149 -36 212 -99l-36 -36c-54 54 -96 87 -176 87c-51 0 -99 -19 -135 -55c-51 -51 -55 -106 -55 -259s4 -208 55 -259 c35 -36 84 -55 135 -55c56 0 111 24 148 69c31 38 43 80 43 141v64h-191v48h245v-116zM491 927c-9 -85 -57 -135 -165 -135s-156 50 -165 135h45c8 -56 51 -90 120 -90s112 34 120 90h45z" glyph-name="Gbreve.ss01" horiz-adv-x="648"/><glyph d="M571 248c0 -74 -16 -127 -58 -172c-47 -52 -115 -82 -187 -82c-67 0 -131 26 -178 73c-65 65 -66 128 -66 289s1 224 66 289c47 47 111 73 178 73c92 0 149 -36 212 -99l-36 -36c-54 54 -96 87 -176 87c-51 0 -99 -19 -135 -55c-51 -51 -55 -106 -55 -259s4 -208 55 -259 c35 -36 84 -55 135 -55c56 0 111 24 148 69c31 38 43 80 43 141v64h-191v48h245v-116zM363 830c0 -21 -17 -38 -37 -38c-21 0 -38 17 -38 37c0 21 17 38 37 38c21 0 38 -17 38 -37z" glyph-name="Gdotaccent.ss01" horiz-adv-x="648"/><glyph d="M443 -27c0 -121 -72 -209 -197 -209c-72 0 -109 19 -159 64l34 34c38 -35 64 -53 125 -53c101 0 146 71 146 167v86c-43 -56 -88 -68 -143 -68c-51 0 -93 17 -118 42c-49 49 -62 129 -62 205s13 156 62 205c25 25 67 42 118 42c55 0 100 -12 143 -68v62h51v-509zM392 241 c0 100 -18 202 -136 202s-136 -102 -136 -202s18 -202 136 -202s136 102 136 202zM293 650c0 -21 -17 -38 -37 -38c-21 0 -38 17 -38 37c0 21 17 38 37 38c21 0 38 -17 38 -37z" glyph-name="gdotaccent.ss01" horiz-adv-x="540"/><glyph d="M571 248c0 -74 -16 -127 -58 -172c-47 -52 -115 -82 -187 -82c-67 0 -131 26 -178 73c-65 65 -66 128 -66 289s1 224 66 289c47 47 111 73 178 73c92 0 149 -36 212 -99l-36 -36c-54 54 -96 87 -176 87c-51 0 -99 -19 -135 -55c-51 -51 -55 -106 -55 -259s4 -208 55 -259 c35 -36 84 -55 135 -55c56 0 111 24 148 69c31 38 43 80 43 141v64h-191v48h245v-116zM388 -133c0 -54 -40 -94 -100 -94v37c33 0 59 25 59 57s-26 57 -59 57v37c60 0 100 -40 100 -94z" glyph-name="Gcommaaccent.ss01" horiz-adv-x="648"/><glyph d="M443 -27c0 -121 -72 -209 -197 -209c-72 0 -109 19 -159 64l34 34c38 -35 64 -53 125 -53c101 0 146 71 146 167v86c-43 -56 -88 -68 -143 -68c-51 0 -93 17 -118 42c-49 49 -62 129 -62 205s13 156 62 205c25 25 67 42 118 42c55 0 100 -12 143 -68v62h51v-509zM392 241 c0 100 -18 202 -136 202s-136 -102 -136 -202s18 -202 136 -202s136 102 136 202zM314 549c-60 0 -100 40 -100 94s40 94 100 94v-37c-33 0 -59 -25 -59 -57s26 -57 59 -57v-37z" glyph-name="gcommaaccent.ss01" horiz-adv-x="540"/><glyph d="M110 0v712h54v-712h-54zM176 -227c-60 0 -100 40 -100 94s40 94 100 94v-37c-33 0 -59 -25 -59 -57s26 -57 59 -57v-37z" glyph-name="Iogonek.ss01" horiz-adv-x="274"/><glyph d="M148 0h-51v482h51v-482zM160 681c0 -21 -17 -38 -37 -38c-21 0 -38 17 -38 37c0 21 17 38 37 38c21 0 38 -17 38 -37zM161 -221c-60 0 -100 40 -100 94s40 94 100 94v-37c-33 0 -59 -25 -59 -57s26 -57 59 -57v-37z" glyph-name="iogonek.ss01" horiz-adv-x="245"/><glyph d="M164 0h-54v712h54v-712zM174 830c0 -21 -17 -38 -37 -38c-21 0 -38 17 -38 37c0 21 17 38 37 38c21 0 38 -17 38 -37z" glyph-name="Idotaccent.ss01" horiz-adv-x="274"/><glyph d="M563 0l-229 399l-170 -206v-193h-54v712h54v-445l361 445h65l-220 -272l257 -440h-64zM398 -133c0 -54 -40 -94 -100 -94v37c33 0 59 25 59 57s-26 57 -59 57v37c60 0 100 -40 100 -94z" glyph-name="Kcommaaccent.ss01" horiz-adv-x="645"/><glyph d="M424 0l-166 265l-110 -127v-138h-51v712h51v-502l239 272h65l-159 -180l194 -302h-63zM323 -133c0 -54 -40 -94 -100 -94v37c33 0 59 25 59 57s-26 57 -59 57v37c60 0 100 -40 100 -94z" glyph-name="kcommaaccent.ss01" horiz-adv-x="527"/><glyph d="M110 0v712h54v-664h378v-48h-432zM384 -133c0 -54 -40 -94 -100 -94v37c33 0 59 25 59 57s-26 57 -59 57v37c60 0 100 -40 100 -94z" glyph-name="Lcommaaccent.ss01" horiz-adv-x="572"/><glyph d="M211 0c-79 0 -116 49 -116 125v587h51v-586c0 -55 17 -81 74 -81h35v-45h-44zM236 -133c0 -54 -40 -94 -100 -94v37c33 0 59 25 59 57s-26 57 -59 57v37c60 0 100 -40 100 -94z" glyph-name="lcommaaccent.ss01" horiz-adv-x="287"/><glyph d="M110 0v712h54v-664h378v-48h-432zM348 584l-53 -56v184h53v-128z" glyph-name="Lcaron.ss01" horiz-adv-x="572"/><glyph d="M211 0c-79 0 -116 49 -116 125v587h51v-586c0 -55 17 -81 74 -81h35v-45h-44zM299 584l-53 -56v184h53v-128z" glyph-name="lcaron.ss01" horiz-adv-x="287"/><glyph d="M575 0l-411 619v-619h-54v712h54l411 -617v617h54v-712h-54zM413 -133c0 -54 -40 -94 -100 -94v37c33 0 59 25 59 57s-26 57 -59 57v37c60 0 100 -40 100 -94z" glyph-name="Ncommaaccent.ss01" horiz-adv-x="739"/><glyph d="M417 0v299c0 93 -46 144 -133 144s-136 -52 -136 -144v-299h-51v482h51v-57c36 42 83 63 142 63c53 0 96 -15 128 -46c33 -32 50 -77 50 -134v-308h-51zM351 -133c0 -54 -40 -94 -100 -94v37c33 0 59 25 59 57s-26 57 -59 57v37c60 0 100 -40 100 -94z" glyph-name="ncommaaccent.ss01" horiz-adv-x="559"/><glyph d="M530 0l-170 328h-196v-328h-54v712h271c116 0 204 -67 204 -191c0 -107 -64 -175 -164 -192l172 -329h-63zM531 520c0 99 -65 144 -157 144h-210v-288h210c92 0 157 45 157 144zM374 -133c0 -54 -40 -94 -100 -94v37c33 0 59 25 59 57s-26 57 -59 57v37 c60 0 100 -40 100 -94z" glyph-name="Rcommaaccent.ss01" horiz-adv-x="657"/><glyph d="M368 405c-29 29 -51 38 -91 38c-83 0 -129 -69 -129 -146v-297h-51v482h51v-64c28 45 84 70 141 70c47 0 81 -11 116 -46zM188 -133c0 -54 -40 -94 -100 -94v37c33 0 59 25 59 57s-26 57 -59 57v37c60 0 100 -40 100 -94z" glyph-name="rcommaaccent.ss01" horiz-adv-x="409"/><glyph d="M528 191c0 -121 -91 -197 -240 -197c-105 0 -172 29 -237 94l38 38c64 -64 117 -84 202 -84c113 0 183 54 183 147c0 43 -12 77 -39 100c-27 21 -44 30 -103 38l-83 13c-54 8 -96 25 -127 52c-37 31 -56 75 -56 131c0 120 84 195 221 195c88 0 144 -24 205 -77l-35 -35 c-42 40 -89 66 -173 66c-104 0 -165 -56 -165 -147c0 -41 12 -72 37 -93s66 -37 106 -44l77 -12c67 -9 98 -22 127 -47c39 -32 62 -81 62 -138zM350 -133c0 -54 -40 -94 -100 -94v37c33 0 59 25 59 57s-26 57 -59 57v37c60 0 100 -40 100 -94z" glyph-name="Scedilla.ss01" horiz-adv-x="587"/><glyph d="M438 137c0 -88 -74 -143 -193 -143c-84 0 -146 22 -195 69l35 35c37 -39 90 -59 158 -59c95 0 145 33 145 98c0 51 -28 74 -92 81l-80 7c-97 8 -145 50 -145 126c0 84 68 137 173 137c67 0 126 -19 169 -51l-34 -34c-37 27 -82 41 -135 41c-80 0 -123 -33 -123 -93 c0 -51 30 -74 98 -81l78 -7c80 -8 141 -32 141 -126zM299 -133c0 -54 -40 -94 -100 -94v37c33 0 59 25 59 57s-26 57 -59 57v37c60 0 100 -40 100 -94z" glyph-name="scedilla.ss01" horiz-adv-x="494"/><glyph d="M296 664v-664h-54v664h-212v48h479v-48h-213zM326 -133c0 -54 -40 -94 -100 -94v37c33 0 59 25 59 57s-26 57 -59 57v37c60 0 100 -40 100 -94z" glyph-name="Tcommaaccent.ss01" horiz-adv-x="539"/><glyph d="M225 0c-76 0 -116 53 -116 126v318h-66v38h66v154h51v-154h109v-38h-109v-319c0 -51 23 -80 74 -80h35v-45h-44zM237 -133c0 -54 -40 -94 -100 -94v37c33 0 59 25 59 57s-26 57 -59 57v37c60 0 100 -40 100 -94z" glyph-name="tcommaaccent.ss01" horiz-adv-x="325"/><glyph d="M225 0c-76 0 -116 53 -116 126v318h-66v38h66v154h51v-154h109v-38h-109v-319c0 -51 23 -80 74 -80h35v-45h-44zM303 584l-53 -56v184h53v-128z" glyph-name="tcaron.ss01" horiz-adv-x="325"/><glyph d="M588 231c0 -139 -101 -237 -244 -237s-244 98 -244 237v481h54v-474c0 -118 75 -196 190 -196s190 78 190 196v474h54v-481zM527 -227c-60 0 -100 40 -100 94s40 94 100 94v-37c-33 0 -59 -25 -59 -57s26 -57 59 -57v-37z" glyph-name="Uogonek.ss01" horiz-adv-x="688"/><glyph d="M411 0v57c-36 -42 -83 -63 -142 -63c-53 0 -96 15 -128 46c-33 32 -50 77 -50 134v308h51v-299c0 -93 46 -144 133 -144s136 52 136 144v299h51v-482h-51zM454 -227c-60 0 -100 40 -100 94s40 94 100 94v-37c-33 0 -59 -25 -59 -57s26 -57 59 -57v-37z" glyph-name="uogonek.ss01" horiz-adv-x="559"/><glyph d="M274 295v-295h-54v295l-210 417h58l181 -360l177 360h58zM388 828c0 -21 -17 -38 -37 -38c-21 0 -38 17 -38 37c0 21 17 38 37 38c21 0 38 -17 38 -37zM181 828c0 -21 -17 -38 -37 -38c-21 0 -38 17 -38 37c0 21 17 38 37 38c21 0 38 -17 38 -37z" glyph-name="Ydieresis.ss01" horiz-adv-x="494"/><glyph d="M63 0v57l375 607h-360v48h418v-48l-378 -616h378v-48h-433zM315 831c0 -21 -17 -38 -37 -38c-21 0 -38 17 -38 37c0 21 17 38 37 38c21 0 38 -17 38 -37z" glyph-name="Zdotaccent.ss01" horiz-adv-x="559"/><glyph d="M54 0v48l290 389h-274v45h328v-48l-291 -389h291v-45h-344zM255 650c0 -21 -17 -38 -37 -38c-21 0 -38 17 -38 37c0 21 17 38 37 38c21 0 38 -17 38 -37z" glyph-name="zdotaccent.ss01" horiz-adv-x="452"/><glyph d="M528 191c0 -121 -91 -197 -240 -197c-105 0 -172 29 -237 94l38 38c64 -64 117 -84 202 -84c113 0 183 54 183 147c0 43 -12 77 -39 100c-27 21 -44 30 -103 38l-83 13c-54 8 -96 25 -127 52c-37 31 -56 75 -56 131c0 120 84 195 221 195c88 0 144 -24 205 -77l-35 -35 c-42 40 -89 66 -173 66c-104 0 -165 -56 -165 -147c0 -41 12 -72 37 -93s66 -37 106 -44l77 -12c67 -9 98 -22 127 -47c39 -32 62 -81 62 -138zM350 -133c0 -54 -40 -94 -100 -94v37c33 0 59 25 59 57s-26 57 -59 57v37c60 0 100 -40 100 -94z" glyph-name="Scommaaccent.ss01" horiz-adv-x="587"/><glyph d="M438 137c0 -88 -74 -143 -193 -143c-84 0 -146 22 -195 69l35 35c37 -39 90 -59 158 -59c95 0 145 33 145 98c0 51 -28 74 -92 81l-80 7c-97 8 -145 50 -145 126c0 84 68 137 173 137c67 0 126 -19 169 -51l-34 -34c-37 27 -82 41 -135 41c-80 0 -123 -33 -123 -93 c0 -51 30 -74 98 -81l78 -7c80 -8 141 -32 141 -126zM299 -133c0 -54 -40 -94 -100 -94v37c33 0 59 25 59 57s-26 57 -59 57v37c60 0 100 -40 100 -94z" glyph-name="scommaaccent.ss01" horiz-adv-x="494"/><glyph d="M296 664v-664h-54v664h-212v48h479v-48h-213zM326 -133c0 -54 -40 -94 -100 -94v37c33 0 59 25 59 57s-26 57 -59 57v37c60 0 100 -40 100 -94z" glyph-name="uni021A.ss01" horiz-adv-x="539"/><glyph d="M225 0c-76 0 -116 53 -116 126v318h-66v38h66v154h51v-154h109v-38h-109v-319c0 -51 23 -80 74 -80h35v-45h-44zM237 -133c0 -54 -40 -94 -100 -94v37c33 0 59 25 59 57s-26 57 -59 57v37c60 0 100 -40 100 -94z" glyph-name="uni021B.ss01" horiz-adv-x="325"/><glyph d="M288 648c0 -21 -17 -38 -37 -38c-21 0 -38 17 -38 37c0 21 17 38 37 38c21 0 38 -17 38 -37z" glyph-name="dotaccent.ss01" horiz-adv-x="500"/><glyph d="M420 -227c-60 0 -100 40 -100 94s40 94 100 94v-37c-33 0 -59 -25 -59 -57s26 -57 59 -57v-37z" glyph-name="ogonek.ss01" horiz-adv-x="500"/><glyph d="M367 737l-106 -147h-58l97 147h67z" glyph-name="tonos.ss01" horiz-adv-x="500"/><glyph d="M401 638c0 -21 -17 -38 -37 -38c-21 0 -38 17 -38 37c0 21 17 38 37 38c21 0 38 -17 38 -37zM357 737l-106 -147h-58l97 147h67zM184 638c0 -21 -17 -38 -37 -38c-21 0 -38 17 -38 37c0 21 17 38 37 38c21 0 38 -17 38 -37z" glyph-name="dieresistonos.ss01" horiz-adv-x="510"/><glyph d="M587 0h-58l-62 173h-332l-62 -173h-58l262 712h48zM450 221l-149 419l-149 -419h298zM124 712l-106 -147h-58l97 147h67z" glyph-name="Alphatonos.ss01" horiz-adv-x="602"/><glyph d="M178 260c0 -25 -21 -46 -46 -46s-46 21 -46 46s21 46 46 46s46 -21 46 -46z" glyph-name="anoteleia.ss01" horiz-adv-x="264"/><glyph d="M542 0h-432v712h432v-48h-378v-281h322v-48h-322v-287h378v-48zM24 712l-106 -147h-58l97 147h67z" glyph-name="Epsilontonos.ss01" horiz-adv-x="598"/><glyph d="M589 0h-54v335h-371v-335h-54v712h54v-329h371v329h54v-712zM24 712l-106 -147h-58l97 147h67z" glyph-name="Etatonos.ss01" horiz-adv-x="699"/><glyph d="M164 0h-54v712h54v-712zM24 712l-106 -147h-58l97 147h67z" glyph-name="Iotatonos.ss01" horiz-adv-x="274"/><glyph d="M570 356c0 -160 -1 -224 -66 -289c-47 -47 -110 -73 -178 -73s-131 26 -178 73c-65 65 -66 129 -66 289c0 161 1 224 66 289c47 47 110 73 178 73s131 -26 178 -73c65 -65 66 -128 66 -289zM516 356c0 152 -4 208 -55 259c-36 36 -84 55 -135 55s-99 -19 -135 -55 c-51 -51 -55 -107 -55 -259s4 -208 55 -259c36 -36 84 -55 135 -55s99 19 135 55c51 51 55 107 55 259zM64 712l-106 -147h-58l97 147h67z" glyph-name="Omicrontonos.ss01" horiz-adv-x="652"/><glyph d="M484 712l-210 -417v-295h-54v295l-210 417h58l181 -360l177 360h58zM-6 712l-106 -147h-58l97 147h67z" glyph-name="Upsilontonos.ss01" horiz-adv-x="494"/><glyph d="M570 0h-186v47c46 22 79 45 105 88c25 41 27 114 27 221c0 153 -4 208 -55 259c-36 36 -84 55 -135 55s-99 -19 -135 -55c-51 -51 -55 -106 -55 -259c0 -107 2 -180 27 -221c26 -43 59 -66 105 -88v-47h-186v47h91c-30 24 -48 45 -62 71c-32 59 -29 150 -29 238 c0 161 1 224 66 289c47 47 111 73 178 73s131 -26 178 -73c65 -65 66 -128 66 -289c0 -88 3 -179 -29 -238c-14 -26 -32 -47 -62 -71h91v-47zM64 712l-106 -147h-58l97 147h67z" glyph-name="Omegatonos.ss01" horiz-adv-x="652"/><glyph d="M255 0h-44c-79 0 -116 49 -116 125v357h51v-356c0 -55 17 -81 74 -81h35v-45zM281 638c0 -21 -17 -38 -37 -38c-21 0 -38 17 -38 37c0 21 17 38 37 38c21 0 38 -17 38 -37zM237 737l-106 -147h-58l97 147h67zM64 638c0 -21 -17 -38 -37 -38c-21 0 -38 17 -38 37 c0 21 17 38 37 38c21 0 38 -17 38 -37z" glyph-name="iotadieresistonos.ss01" horiz-adv-x="287"/><glyph d="M488 664h-432v48h432v-48zM432 335h-320v48h320v-48zM488 0h-432v48h432v-48z" glyph-name="Xi.ss01" horiz-adv-x="544"/><glyph d="M164 0h-54v712h54v-712zM279 828c0 -21 -17 -38 -37 -38c-21 0 -38 17 -38 37c0 21 17 38 37 38c21 0 38 -17 38 -37zM72 828c0 -21 -17 -38 -37 -38c-21 0 -38 17 -38 37c0 21 17 38 37 38c21 0 38 -17 38 -37z" glyph-name="Iotadieresis.ss01" horiz-adv-x="274"/><glyph d="M484 712l-210 -417v-295h-54v295l-210 417h58l181 -360l177 360h58zM388 828c0 -21 -17 -38 -37 -38c-21 0 -38 17 -38 37c0 21 17 38 37 38c21 0 38 -17 38 -37zM181 828c0 -21 -17 -38 -37 -38c-21 0 -38 17 -38 37c0 21 17 38 37 38c21 0 38 -17 38 -37z" glyph-name="Upsilondieresis.ss01" horiz-adv-x="494"/><glyph d="M443 0h-51v62c-43 -56 -88 -68 -143 -68c-51 0 -93 17 -118 42c-49 49 -62 129 -62 205s13 156 62 205c25 25 67 42 118 42c55 0 100 -12 143 -68v62h51v-482zM392 241c0 100 -18 202 -136 202s-136 -102 -136 -202s18 -202 136 -202s136 102 136 202zM377 737l-106 -147 h-58l97 147h67z" glyph-name="alphatonos.ss01" horiz-adv-x="540"/><glyph d="M437 68c-62 -62 -125 -74 -197 -74c-96 0 -172 47 -172 136c0 60 26 92 82 115c-48 19 -72 56 -72 108c0 84 79 135 168 135c82 0 143 -22 190 -74l-34 -33c-34 36 -87 63 -155 63c-52 0 -114 -34 -114 -92c0 -54 31 -84 96 -84h82v-44h-82c-74 0 -106 -36 -106 -94 c0 -59 56 -92 115 -92c40 0 106 2 164 61zM377 737l-106 -147h-58l97 147h67z" glyph-name="epsilontonos.ss01" horiz-adv-x="492"/><glyph d="M468 0h-51v299c0 93 -46 144 -133 144s-136 -52 -136 -144v-299h-51v482h51v-57c36 42 83 63 142 63c53 0 96 -15 128 -46c33 -32 50 -77 50 -134v-308zM397 737l-106 -147h-58l97 147h67z" glyph-name="etatonos.ss01" horiz-adv-x="559"/><glyph d="M255 0h-44c-79 0 -116 49 -116 125v357h51v-356c0 -55 17 -81 74 -81h35v-45zM257 737l-106 -147h-58l97 147h67z" glyph-name="iotatonos.ss01" horiz-adv-x="287"/><glyph d="M437 236c0 -69 -4 -138 -55 -189c-35 -35 -74 -53 -129 -53c-54 0 -94 18 -129 53c-51 51 -54 120 -54 189v246h50v-246c0 -56 -2 -116 38 -156c27 -27 56 -41 95 -41s68 14 95 41c40 40 38 100 38 156v246h51v-246zM396 638c0 -21 -17 -38 -37 -38c-21 0 -38 17 -38 37 c0 21 17 38 37 38c21 0 38 -17 38 -37zM352 737l-106 -147h-58l97 147h67zM179 638c0 -21 -17 -38 -37 -38c-21 0 -38 17 -38 37c0 21 17 38 37 38c21 0 38 -17 38 -37z" glyph-name="upsilondieresistonos.ss01" horiz-adv-x="507"/><glyph d="M481 0h-48v437h-275v-437h-48v482h371v-482z" glyph-name="pi.ss01" horiz-adv-x="591"/><glyph d="M580 241c0 -129 -57 -247 -233 -247v-224h-51v224c-176 0 -233 118 -233 247s57 247 233 247v224h51v-224c176 0 233 -118 233 -247zM529 241c0 99 -38 202 -182 202v-404c144 0 182 103 182 202zM296 39v404c-144 0 -182 -103 -182 -202s38 -202 182 -202z" glyph-name="phi.ss01" horiz-adv-x="646"/><glyph d="M544 241c0 -164 -57 -239 -212 -246v-225h-51v225c-155 7 -211 81 -211 246v241h50v-241c0 -139 33 -195 161 -201v672h51v-672c129 6 161 64 161 201v241h51v-241z" glyph-name="psi.ss01" horiz-adv-x="614"/><glyph d="M255 0h-44c-79 0 -116 49 -116 125v357h51v-356c0 -55 17 -81 74 -81h35v-45zM268 638c0 -21 -17 -38 -37 -38c-21 0 -38 17 -38 37c0 21 17 38 37 38c21 0 38 -17 38 -37zM61 638c0 -21 -17 -38 -37 -38c-21 0 -38 17 -38 37c0 21 17 38 37 38c21 0 38 -17 38 -37z" glyph-name="iotadieresis.ss01" horiz-adv-x="287"/><glyph d="M437 236c0 -69 -4 -138 -55 -189c-35 -35 -74 -53 -129 -53c-54 0 -94 18 -129 53c-51 51 -54 120 -54 189v246h50v-246c0 -56 -2 -116 38 -156c27 -27 56 -41 95 -41s68 14 95 41c40 40 38 100 38 156v246h51v-246zM397 638c0 -21 -17 -38 -37 -38c-21 0 -38 17 -38 37 c0 21 17 38 37 38c21 0 38 -17 38 -37zM190 638c0 -21 -17 -38 -37 -38c-21 0 -38 17 -38 37c0 21 17 38 37 38c21 0 38 -17 38 -37z" glyph-name="upsilondieresis.ss01" horiz-adv-x="507"/><glyph d="M457 241c0 -69 -9 -143 -60 -194c-35 -35 -79 -53 -134 -53c-54 0 -99 18 -134 53c-51 51 -60 125 -60 194s9 143 60 194c35 35 80 53 134 53c55 0 99 -18 134 -53c51 -51 60 -125 60 -194zM406 241c0 56 -3 121 -43 161c-27 27 -61 41 -100 41s-73 -14 -100 -41 c-40 -40 -43 -105 -43 -161s3 -121 43 -161c27 -27 61 -41 100 -41s73 14 100 41c40 40 43 105 43 161zM387 737l-106 -147h-58l97 147h67z" glyph-name="omicrontonos.ss01" horiz-adv-x="526"/><glyph d="M437 236c0 -69 -4 -138 -55 -189c-35 -35 -74 -53 -129 -53c-54 0 -94 18 -129 53c-51 51 -54 120 -54 189v246h50v-246c0 -56 -2 -116 38 -156c27 -27 56 -41 95 -41s68 14 95 41c40 40 38 100 38 156v246h51v-246zM377 737l-106 -147h-58l97 147h67z" glyph-name="upsilontonos.ss01" horiz-adv-x="507"/><glyph d="M635 233c0 -63 -9 -128 -36 -173c-25 -41 -65 -66 -124 -66s-108 47 -123 102c-15 -55 -64 -102 -123 -102s-99 25 -124 66c-27 45 -36 110 -36 173c0 66 19 145 47 182c19 25 56 67 110 73v-45c-32 -6 -65 -39 -78 -64c-19 -35 -29 -66 -29 -146c0 -39 0 -104 26 -146 c16 -27 46 -48 84 -48c93 0 97 120 97 183v128h52v-128c0 -63 4 -183 97 -183c38 0 68 21 84 48c26 42 26 107 26 146c0 80 -10 111 -29 146c-13 25 -46 58 -78 64v45c54 -6 91 -48 110 -73c28 -37 47 -116 47 -182zM487 737l-106 -147h-58l97 147h67z" glyph-name="omegatonos.ss01" horiz-adv-x="704"/><glyph d="M491 197c0 -109 -78 -203 -177 -203c-61 0 -114 2 -167 69v-63h-50v538c0 99 72 174 180 174c103 0 177 -55 177 -164c0 -61 -19 -150 -104 -167c92 -11 141 -74 141 -184zM442 200c0 140 -87 159 -173 159h-61v38h63c124 0 135 88 135 140c0 97 -59 134 -127 134 c-91 0 -131 -66 -131 -152v-319c0 -80 41 -163 144 -163c107 0 150 86 150 163z" glyph-name="beta1.ss01" horiz-adv-x="540"/><glyph d="M542 0h-432v712h432v-48h-378v-281h322v-48h-322v-287h378v-48zM455 828c0 -21 -17 -38 -37 -38c-21 0 -38 17 -38 37c0 21 17 38 37 38c21 0 38 -17 38 -37zM248 828c0 -21 -17 -38 -37 -38c-21 0 -38 17 -38 37c0 21 17 38 37 38c21 0 38 -17 38 -37z" glyph-name="afii10023.ss01" horiz-adv-x="598"/><glyph d="M528 83c-62 -56 -113 -89 -199 -89c-69 0 -132 27 -180 73c-61 58 -66 127 -66 289v22c0 128 0 201 66 267c47 47 111 73 179 73c84 0 141 -35 200 -89l-36 -36c-50 48 -92 77 -163 77c-83 0 -169 -56 -183 -143c-4 -27 -8 -52 -9 -144h295v-48h-295v-28 c0 -73 1 -156 55 -210c36 -36 83 -55 137 -55c71 0 113 29 163 77z" glyph-name="afii10053.ss01" horiz-adv-x="596"/><glyph d="M164 0h-54v712h54v-712zM278 828c0 -21 -17 -38 -37 -38c-21 0 -38 17 -38 37c0 21 17 38 37 38c21 0 38 -17 38 -37zM71 828c0 -21 -17 -38 -37 -38c-21 0 -38 17 -38 37c0 21 17 38 37 38c21 0 38 -17 38 -37z" glyph-name="afii10056.ss01" horiz-adv-x="274"/><glyph d="M940 205c0 100 -61 157 -167 157h-203v-314h203c106 0 167 57 167 157zM195 712h375v-302h209c130 0 215 -81 215 -205s-85 -205 -215 -205h-263v664h-269c0 -578 -70 -664 -213 -664h-29v48h18c105 0 172 55 172 664z" glyph-name="afii10058.ss01" horiz-adv-x="1037"/><glyph d="M164 335v-335h-54v712h54v-329h129c55 0 92 57 107 96l57 143c26 65 54 90 119 90h18v-47h-7c-56 0 -67 -20 -87 -70l-57 -144c-19 -47 -57 -81 -84 -87c55 -1 80 -42 100 -90l64 -151c25 -59 34 -75 87 -75h18v-48h-32c-69 0 -91 30 -119 95l-73 173 c-17 40 -50 67 -87 67h-153zM323 780h-58l97 147h67z" glyph-name="afii10061.ss01" horiz-adv-x="654"/><glyph d="M640 -180h-54v180h-512v-180h-54v228h65c67 106 95 226 95 664h375v-664h85v-228zM501 48v616h-270c0 -389 -26 -516 -86 -616h356z" glyph-name="afii10021.ss01" horiz-adv-x="680"/><glyph d="M503 0h-54v335h-113c-37 0 -70 -27 -87 -67l-73 -173c-27 -65 -49 -95 -119 -95h-32v48h18c53 0 58 5 83 65l68 161c21 49 46 89 100 90c-27 6 -65 40 -84 87l-57 144c-20 50 -30 70 -87 70h-7v47h18c65 0 93 -25 119 -90l57 -143c16 -39 53 -96 107 -96h89v329h54v-329 h90c55 0 92 57 107 96l57 143c26 65 54 90 119 90h18v-47h-7c-54 0 -65 -14 -87 -70l-57 -144c-19 -47 -57 -81 -84 -87c55 -1 80 -42 100 -90l70 -166c17 -40 25 -60 81 -60h18v-48h-32c-69 0 -91 30 -119 95l-73 173c-17 40 -50 67 -87 67h-114v-335z" glyph-name="afii10024.ss01" horiz-adv-x="953"/><glyph d="M505 192c0 -122 -101 -198 -232 -198c-99 0 -156 23 -226 94l38 38c63 -60 105 -84 194 -84c97 0 172 57 172 152c0 99 -58 146 -158 146h-79v48h82c91 0 143 51 143 143c0 90 -63 139 -159 139c-71 0 -123 -20 -176 -66l-32 35c65 54 122 79 208 79 c123 0 213 -72 213 -186c0 -80 -34 -134 -107 -165c79 -27 119 -84 119 -175z" glyph-name="afii10025.ss01" horiz-adv-x="587"/><glyph d="M164 335v-335h-54v712h54v-329h129c55 0 92 57 107 96l57 143c26 65 54 90 119 90h18v-47h-7c-56 0 -67 -20 -87 -70l-57 -144c-19 -47 -57 -81 -84 -87c55 -1 80 -42 100 -90l64 -151c25 -59 34 -75 87 -75h18v-48h-32c-69 0 -91 30 -119 95l-73 173 c-17 40 -50 67 -87 67h-153z" glyph-name="afii10028.ss01" horiz-adv-x="654"/><glyph d="M570 0h-54v664h-269c0 -578 -70 -664 -213 -664h-29v48h18c105 0 172 55 172 664h375v-712z" glyph-name="afii10029.ss01" horiz-adv-x="680"/><glyph d="M527 83c-62 -56 -113 -89 -199 -89c-69 0 -132 27 -180 73c-61 58 -66 127 -66 289v22c0 128 0 201 66 267c47 47 111 73 179 73c84 0 141 -35 200 -89l-36 -36c-50 48 -92 77 -163 77c-83 0 -169 -56 -183 -143c-5 -29 -9 -54 -9 -171v-30c0 -138 11 -185 55 -229 c36 -36 83 -55 137 -55c71 0 113 29 163 77z" glyph-name="afii10035.ss01" horiz-adv-x="596"/><glyph d="M513 378v-22c0 -162 -5 -231 -66 -289c-48 -46 -111 -73 -180 -73c-86 0 -137 33 -199 89l36 36c50 -48 92 -77 163 -77c54 0 101 19 137 55c54 54 55 137 55 210v28h-295v48h295c-1 84 -5 117 -9 144c-13 87 -100 143 -183 143c-71 0 -113 -29 -163 -77l-36 36 c59 54 116 89 200 89c68 0 132 -26 179 -73c66 -66 66 -139 66 -267z" glyph-name="afii10047.ss01" horiz-adv-x="596"/><glyph d="M72 0h-32v48h18c56 0 62 16 87 75l61 141c12 29 30 56 55 72c-116 10 -170 82 -170 185c0 124 88 191 204 191h272v-712h-54v328h-170c-29 -6 -62 -24 -82 -70l-70 -163c-28 -65 -49 -95 -119 -95zM145 520c0 -98 66 -144 157 -144h211v288h-211 c-91 0 -157 -46 -157 -144z" glyph-name="afii10049.ss01" horiz-adv-x="677"/><glyph d="M268 39c37 0 74 15 98 40c31 31 44 74 44 157c0 87 -12 129 -44 161c-24 25 -61 40 -98 40s-73 -15 -98 -40c-30 -31 -44 -74 -44 -159s13 -127 44 -159c25 -25 61 -40 98 -40zM268 -6c-106 0 -163 57 -183 148c-13 57 -10 139 -10 201c0 113 5 208 70 271 c57 54 140 56 212 63c22 2 36 13 41 35h41c-3 -52 -26 -74 -73 -79c-33 -4 -77 -6 -108 -12c-32 -7 -63 -19 -88 -43c-40 -37 -53 -133 -53 -183c28 55 91 87 152 87c122 0 192 -86 192 -241c0 -96 -19 -153 -61 -195c-32 -33 -80 -52 -132 -52z" glyph-name="afii10066.ss01" horiz-adv-x="528"/><glyph d="M513 -150h-51v150h-383v-150h-51v193h59c38 78 60 192 60 439h291v-439h75v-193zM387 43v396h-192c0 -212 -23 -327 -52 -396h244z" glyph-name="afii10069.ss01" horiz-adv-x="551"/><glyph d="M602 383l-24 -62c-12 -30 -32 -51 -52 -64c32 -10 54 -36 68 -70l32 -82c17 -44 27 -62 77 -62h12v-43h-31c-60 0 -81 22 -104 84l-31 85c-21 57 -68 59 -97 59h-54v-228h-51v228h-66c-28 0 -67 -9 -85 -59l-31 -85c-23 -62 -44 -84 -104 -84h-31v43h12c50 0 60 18 77 62 l32 82c13 34 35 60 68 70c-21 13 -41 34 -52 64l-24 62c-17 45 -34 57 -84 57h-4v42h23c49 0 82 -17 103 -72l30 -79c11 -29 43 -60 91 -60h45v211h51v-211h52c44 3 73 32 84 60l30 79c21 55 54 72 103 72h23v-42h-4c-50 0 -67 -12 -84 -57z" glyph-name="afii10072.ss01" horiz-adv-x="745"/><glyph d="M231 228h-83v-228h-51v482h51v-211h74c48 0 80 31 91 60l30 79c21 55 54 72 103 72h23v-42h-4c-50 0 -67 -12 -84 -57l-24 -62c-12 -30 -32 -51 -52 -64c32 -10 54 -36 68 -70l32 -82c17 -44 27 -62 77 -62h12v-43h-31c-60 0 -81 22 -104 84l-31 85c-21 57 -68 59 -97 59 z" glyph-name="afii10076.ss01" horiz-adv-x="520"/><glyph d="M149 482h287v-482h-51v439h-187c0 -407 -58 -439 -159 -439h-22v43h15c71 0 117 17 117 439z" glyph-name="afii10077.ss01" horiz-adv-x="533"/><glyph d="M766 241c0 -76 -13 -156 -62 -205c-25 -25 -67 -42 -118 -42c-55 0 -100 12 -143 68v-292h-51v292c-43 -56 -88 -68 -143 -68c-51 0 -93 17 -118 42c-49 49 -62 129 -62 205s13 156 62 205c25 25 67 42 118 42c55 0 100 -12 143 -68v292h51v-292c43 56 88 68 143 68 c51 0 93 -17 118 -42c49 -49 62 -129 62 -205zM715 241c0 100 -18 202 -136 202s-136 -102 -136 -202s18 -202 136 -202s136 102 136 202zM392 241c0 100 -18 202 -136 202s-136 -102 -136 -202s18 -202 136 -202s136 102 136 202z" glyph-name="afii10086.ss01" horiz-adv-x="835"/><glyph d="M381 211h-85c-29 0 -76 -2 -97 -59l-24 -68c-23 -62 -44 -84 -104 -84h-31v43h12c50 0 60 18 77 62l25 65c8 22 21 38 38 49c-79 9 -123 56 -123 131c0 81 59 132 149 132h214v-482h-51v211zM381 252v187h-153c-69 0 -107 -31 -107 -90c0 -64 38 -97 107 -97h153z" glyph-name="afii10097.ss01" horiz-adv-x="529"/><glyph d="M455 230h-335c2 -52 5 -74 17 -102c24 -59 72 -88 141 -88c26 0 48 4 68 12c22 9 35 19 64 46l38 -30c-35 -34 -52 -46 -81 -58c-26 -11 -56 -16 -91 -16c-136 0 -207 85 -207 250c0 152 73 244 193 244s193 -89 193 -235v-23zM404 271c-2 38 -3 50 -9 69 c-19 65 -69 103 -133 103c-56 0 -103 -31 -125 -81c-11 -25 -15 -46 -17 -91h284zM405 638c0 -21 -17 -38 -37 -38c-21 0 -38 17 -38 37c0 21 17 38 37 38c21 0 38 -17 38 -37zM198 638c0 -21 -17 -38 -37 -38c-21 0 -38 17 -38 37c0 21 17 38 37 38c21 0 38 -17 38 -37z" glyph-name="afii10071.ss01" horiz-adv-x="523"/><glyph d="M148 0h-51v482h51v-482zM160 681c0 -21 -17 -38 -37 -38c-21 0 -38 17 -38 37c0 21 17 38 37 38c21 0 38 -17 38 -37z" glyph-name="afii10103.ss01" horiz-adv-x="245"/><glyph d="M97 0v482h51v-482h-51zM264 638c0 -21 -17 -38 -37 -38c-21 0 -38 17 -38 37c0 21 17 38 37 38c21 0 38 -17 38 -37zM57 638c0 -21 -17 -38 -37 -38c-21 0 -38 17 -38 37c0 21 17 38 37 38c21 0 38 -17 38 -37z" glyph-name="afii10104.ss01" horiz-adv-x="245"/><glyph d="M148 -105c0 -75 -38 -125 -116 -125h-44v45h35c57 0 74 27 74 81v586h51v-587zM160 681c0 -21 -17 -38 -37 -38c-21 0 -38 17 -38 37c0 21 17 38 37 38c21 0 38 -17 38 -37z" glyph-name="afii10105.ss01" horiz-adv-x="245"/><glyph d="M706 142c0 63 -37 99 -106 99h-153v-198h153c69 0 106 35 106 99zM149 482h298v-198h161c90 0 149 -56 149 -142s-59 -142 -149 -142h-212v439h-198c0 -407 -58 -439 -159 -439h-22v43h15c71 0 117 17 117 439z" glyph-name="afii10106.ss01" horiz-adv-x="797"/><glyph d="M231 228h-83v-228h-51v482h51v-211h74c48 0 80 31 91 60l30 79c21 55 54 72 103 72h23v-42h-4c-50 0 -67 -12 -84 -57l-24 -62c-12 -30 -32 -51 -52 -64c32 -10 54 -36 68 -70l32 -82c17 -44 27 -62 77 -62h12v-43h-31c-60 0 -81 22 -104 84l-31 85c-21 57 -68 59 -97 59 zM276 590h-58l97 147h67z" glyph-name="afii10109.ss01" horiz-adv-x="520"/><glyph d="M638 43c0 -25 -21 -46 -46 -46s-46 21 -46 46s21 46 46 46s46 -21 46 -46zM408 43c0 -25 -21 -46 -46 -46s-46 21 -46 46s21 46 46 46s46 -21 46 -46zM178 43c0 -25 -21 -46 -46 -46s-46 21 -46 46s21 46 46 46s46 -21 46 -46z" glyph-name="ellipsis.ss01" horiz-adv-x="724"/><glyph d="M559 83c-57 -54 -116 -89 -201 -89c-67 0 -131 26 -178 73c-52 52 -62 107 -65 201h-65v38h64v106h-64v38h65c3 90 14 144 65 195c47 47 111 73 178 73c85 0 144 -35 201 -89l-36 -36c-49 48 -91 77 -165 77c-51 0 -100 -19 -135 -55c-39 -39 -51 -80 -54 -165h244v-38 h-245v-106h245v-38h-244c3 -89 14 -131 54 -171c35 -36 84 -55 135 -55c74 0 116 29 165 77z" glyph-name="Euro.ss01" horiz-adv-x="628"/><glyph d="M178 260c0 -25 -21 -46 -46 -46s-46 21 -46 46s21 46 46 46s46 -21 46 -46z" glyph-name="uni2219.ss01" horiz-adv-x="264"/><glyph d="M178 260c0 -25 -21 -46 -46 -46s-46 21 -46 46s21 46 46 46s46 -21 46 -46z" glyph-name="uni2224.ss01" horiz-adv-x="264"/><glyph d="M178 260c0 -25 -21 -46 -46 -46s-46 21 -46 46s21 46 46 46s46 -21 46 -46z" glyph-name="logicaland.ss01" horiz-adv-x="264"/><glyph d="M178 260c0 -25 -21 -46 -46 -46s-46 21 -46 46s21 46 46 46s46 -21 46 -46z" glyph-name="dotmath.ss01" horiz-adv-x="264"/><glyph d="M270 444h-109v-444h-51v444h-66v38h66v104c0 73 40 126 116 126h44v-45h-35c-51 0 -74 -30 -74 -80v-105h109v-38zM448 0h-51v482h51v-482zM460 681c0 -21 -17 -38 -37 -38c-21 0 -38 17 -38 37c0 21 17 38 37 38c21 0 38 -17 38 -37z" glyph-name="fi.ss01" horiz-adv-x="545"/><glyph d="M197 638c0 -21 -17 -38 -37 -38c-21 0 -38 17 -38 37c0 21 17 38 37 38c21 0 38 -17 38 -37z" glyph-name="diedotlc.ss01" horiz-adv-x="526"/><glyph d="M260 828c0 -21 -17 -38 -37 -38c-21 0 -38 17 -38 37c0 21 17 38 37 38c21 0 38 -17 38 -37z" glyph-name="diedotuc.ss01" horiz-adv-x="652"/><glyph d="M404 638c0 -21 -17 -38 -37 -38c-21 0 -38 17 -38 37c0 21 17 38 37 38c21 0 38 -17 38 -37zM197 638c0 -21 -17 -38 -37 -38c-21 0 -38 17 -38 37c0 21 17 38 37 38c21 0 38 -17 38 -37z" glyph-name="dieresislc.ss01" horiz-adv-x="526"/><glyph d="M467 828c0 -21 -17 -38 -37 -38c-21 0 -38 17 -38 37c0 21 17 38 37 38c21 0 38 -17 38 -37zM260 828c0 -21 -17 -38 -37 -38c-21 0 -38 17 -38 37c0 21 17 38 37 38c21 0 38 -17 38 -37z" glyph-name="dieresisuc.ss01" horiz-adv-x="652"/><glyph d="M298 650c0 -21 -17 -38 -37 -38c-21 0 -38 17 -38 37c0 21 17 38 37 38c21 0 38 -17 38 -37z" glyph-name="dotaccentlc.ss01" horiz-adv-x="500"/><glyph d="M287 830c0 -21 -17 -38 -37 -38c-21 0 -38 17 -38 37c0 21 17 38 37 38c21 0 38 -17 38 -37z" glyph-name="dotaccentuc.ss01" horiz-adv-x="500"/><glyph d="M444 184c0 -111 -77 -190 -187 -190s-187 79 -187 190v229c0 111 77 190 187 190s187 -79 187 -190v-229zM393 189v219c0 84 -47 150 -136 150s-136 -66 -136 -150v-219c0 -84 47 -150 136 -150s136 66 136 150z" glyph-name="zero.tosf"/><glyph d="M313 0h-51v539l-129 -114v61l129 111h51v-597z" glyph-name="one.tosf"/><glyph d="M460 0h-396v45l258 258c42 42 67 89 67 143c0 73 -57 132 -136 132c-75 0 -136 -55 -136 -133h-51c0 99 78 178 187 178c114 0 187 -80 187 -177c0 -70 -33 -124 -80 -171l-230 -230h330v-45z" glyph-name="two.tosf"/><glyph d="M447 74c0 -127 -88 -197 -202 -197c-111 0 -196 57 -203 180h51c7 -97 78 -135 152 -135c85 0 151 57 151 152c0 96 -46 152 -155 152h-12v45h12c95 0 141 52 141 143c0 94 -61 144 -138 144c-84 0 -133 -51 -142 -130h-51c10 111 90 175 193 175c112 0 189 -75 189 -189 c0 -75 -30 -132 -101 -162c79 -27 115 -88 115 -178z" glyph-name="three.tosf"/><glyph d="M481 30h-95v-153h-51v153h-302v45l272 550h53l-272 -550h249v226h51v-226h95v-45z" glyph-name="four.tosf"/><glyph d="M446 118c0 -68 -4 -138 -55 -189c-33 -33 -78 -51 -137 -51c-58 0 -106 16 -137 48c-27 27 -44 65 -48 116h51c10 -76 51 -119 134 -119c39 0 75 13 98 36c42 42 43 106 43 159c0 89 -16 190 -133 190c-65 0 -114 -27 -129 -75h-45v364h342v-45h-297v-252 c31 36 77 53 135 53c51 0 92 -15 120 -43c50 -50 58 -125 58 -192z" glyph-name="five.tosf"/><glyph d="M464 219c0 -124 -74 -225 -204 -225s-205 90 -205 217c0 49 14 106 46 162l202 355h53l-183 -314c32 16 57 21 91 21c127 0 200 -95 200 -216zM413 214c0 94 -52 178 -154 178c-94 0 -153 -71 -153 -178c0 -106 59 -177 153 -177s154 71 154 177z" glyph-name="six.tosf"/><glyph d="M469 552l-300 -677h-53l300 677h-299v-112h-51v157h403v-45z" glyph-name="seven.tosf"/><glyph d="M460 192c0 -114 -88 -198 -203 -198s-203 84 -203 198c0 82 45 142 113 178c-63 34 -98 89 -98 162c0 105 77 186 188 186s188 -81 188 -186c0 -73 -34 -128 -97 -162c68 -36 112 -96 112 -178zM409 192c0 87 -66 154 -152 154s-152 -67 -152 -154s66 -153 152 -153 s152 66 152 153zM394 532c0 82 -56 141 -137 141s-137 -59 -137 -141c0 -83 56 -141 137 -141s137 58 137 141z" glyph-name="eight.tosf"/><glyph d="M459 386c0 -49 -14 -106 -46 -162l-202 -355h-53l183 314c-32 -16 -57 -21 -91 -21c-127 0 -200 95 -200 216c0 124 74 225 204 225s205 -90 205 -217zM408 383c0 106 -59 177 -153 177s-154 -71 -154 -177c0 -94 52 -178 154 -178c94 0 153 71 153 178z" glyph-name="nine.tosf"/><glyph d="M315 780l-106 147h67l97 -147h-58z" glyph-name="grave.uc" horiz-adv-x="652"/><glyph d="M193 790v77h58v-77h-58zM401 790v77h58v-77h-58z" glyph-name="dieresis.uc" horiz-adv-x="652"/><glyph d="M102 800v46h296v-46h-296z" glyph-name="macron.uc" horiz-adv-x="500"/><glyph d="M337 780h-58l97 147h67z" glyph-name="acute.uc" horiz-adv-x="652"/><glyph d="M419 780l-93 109l-93 -109h-57l123 147h54l123 -147h-57z" glyph-name="circumflex.uc" horiz-adv-x="652"/><glyph d="M314 780h-54l-123 147h57l93 -109l93 109h57z" glyph-name="caron.uc" horiz-adv-x="559"/><glyph d="M415 927c-9 -85 -57 -135 -165 -135s-156 50 -165 135h45c8 -56 51 -90 120 -90s112 34 120 90h45z" glyph-name="breve.uc" horiz-adv-x="500"/><glyph d="M219 800v63h62v-63h-62z" glyph-name="dotaccent.uc" horiz-adv-x="500"/><glyph d="M364 861c0 -63 -51 -115 -114 -115s-114 52 -114 115s51 114 114 114s114 -51 114 -114zM323 861c0 40 -33 72 -73 72s-73 -32 -73 -72s33 -73 73 -73s73 33 73 73z" glyph-name="ring.uc" horiz-adv-x="500"/><glyph d="M475 843c-46 -46 -71 -48 -89 -48c-28 0 -46 11 -69 24c-19 11 -36 21 -56 21c-16 0 -28 -2 -59 -33l-30 29c46 46 70 48 89 48c29 0 45 -9 69 -24c21 -13 36 -21 56 -21c15 0 28 2 59 33z" glyph-name="tilde.uc" horiz-adv-x="652"/><glyph d="M294 927l-106 -147h-58l97 147h67zM441 927l-107 -147h-57l97 147h67z" glyph-name="hungarumlaut.uc" horiz-adv-x="500"/><glyph d="M390 880c-7 -83 -56 -120 -140 -120s-133 37 -140 120h51c5 -52 35 -80 89 -80s84 28 89 80h51z" glyph-name="brevecyr.uc" horiz-adv-x="500"/><glyph d="M193 790v77h58v-77h-58z" glyph-name="diedot.uc" horiz-adv-x="652"/><glyph d="M296 664v-664h-54v664h-212v48h479v-48h-213zM263 -220h-63l72 150h55z" glyph-name="Tcedilla" horiz-adv-x="539"/><glyph d="M601 712l-48 -148h-47l40 148h55z" glyph-name="caroncomma" horiz-adv-x="526"/><glyph d="M170 -70l-64 -150h-63l72 150h55z" glyph-name="commaaccent" horiz-adv-x="258"/><glyph d="M237 737l-106 -147h-58l97 147h67z" glyph-name="commaturn" horiz-adv-x="258"/><glyph d="M225 0c-76 0 -116 53 -116 126v318h-66v38h66v154h51v-154h109v-38h-109v-319c0 -51 23 -80 74 -80h35v-45h-44zM157 -220h-63l72 150h55z" glyph-name="tcedilla" horiz-adv-x="325"/><glyph d="M170 -70l-64 -150h-63l72 150h55z" glyph-name="undercommaaccent" horiz-adv-x="258"/><glyph d="M188 -133c0 -54 -40 -94 -100 -94v37c33 0 59 25 59 57s-26 57 -59 57v37c60 0 100 -40 100 -94z" glyph-name="commaaccent.ss01" horiz-adv-x="258"/><glyph d="M188 -133c0 -54 -40 -94 -100 -94v37c33 0 59 25 59 57s-26 57 -59 57v37c60 0 100 -40 100 -94z" glyph-name="undercommaaccent.ss01" horiz-adv-x="258"/><glyph d="M164 549c-60 0 -100 40 -100 94s40 94 100 94v-37c-33 0 -59 -25 -59 -57s26 -57 59 -57v-37z" glyph-name="commaturn.ss01" horiz-adv-x="258"/><glyph d="M296 664v-664h-54v664h-212v48h479v-48h-213zM326 -133c0 -54 -40 -94 -100 -94v37c33 0 59 25 59 57s-26 57 -59 57v37c60 0 100 -40 100 -94z" glyph-name="Tcedilla.ss01" horiz-adv-x="539"/><glyph d="M225 0c-76 0 -116 53 -116 126v318h-66v38h66v154h51v-154h109v-38h-109v-319c0 -51 23 -80 74 -80h35v-45h-44zM237 -133c0 -54 -40 -94 -100 -94v37c33 0 59 25 59 57s-26 57 -59 57v37c60 0 100 -40 100 -94z" glyph-name="tcedilla.ss01" horiz-adv-x="325"/><glyph d="M596 584l-53 -56v184h53v-128z" glyph-name="caroncomma.ss01" horiz-adv-x="526"/></font>
</defs>
</svg>
